<svg xmlns="http://www.w3.org/2000/svg" viewBox="0 -0.5 6 36" shape-rendering="crispEdges">
<metadata>Made with Pixels to Svg https://codepen.io/shshaw/pen/XbxvNj</metadata>
<path stroke="#c09e83" d="M5 0h1M4 2h1M3 4h1M2 6h1M2 8h1M1 9h1M1 11h1M0 12h1M0 13h1M0 14h1M0 15h1M0 16h1M0 17h1M0 18h1M0 19h1M0 20h1M0 21h1M0 22h1M0 23h1M1 24h1M1 26h1M2 27h1M2 29h1M3 31h1M4 33h1M5 35h1" />
<path stroke="#a48165" d="M5 1h1M4 3h1M3 5h1M2 7h1M1 10h1M1 25h1M2 28h1M3 30h1M4 32h1M5 34h1" />
<path stroke="#433532" d="M5 2h1M5 3h1M4 4h1M4 5h1M3 6h1M3 7h1M3 8h1M2 9h1M2 10h1M2 11h1M1 12h1M1 13h1M1 14h1M1 15h1M1 16h1M1 17h1M1 18h1M1 19h1M1 20h1M1 21h1M1 22h1M1 23h1M2 24h1M2 25h1M2 26h1M3 27h1M3 28h1M3 29h1M4 30h1M4 31h1M5 32h1M5 33h1" />
<path stroke="rgba(31,31,31,0.39215686274509803)" d="M5 4h1M5 5h1M5 6h1M5 7h1M5 8h1M5 9h1M5 10h1M5 11h1M5 12h1M5 13h1M5 14h1M5 15h1M5 16h1M5 17h1M5 18h1M5 19h1M5 20h1M5 21h1M5 22h1M5 23h1M5 24h1M5 25h1M5 26h1M5 27h1M5 28h1M5 29h1M5 30h1M5 31h1" />
</svg>