<svg xmlns="http://www.w3.org/2000/svg" viewBox="0 -0.5 55 8" shape-rendering="crispEdges">
<metadata>Made with Pixels to Svg https://codepen.io/shshaw/pen/XbxvNj</metadata>
<path stroke="#d3d3dc" d="M12 0h29M6 1h35M3 2h9M0 3h6" />
<path stroke="#36363f" d="M12 2h27M6 3h32M52 5h2" />
<path stroke="#5d5d65" d="M39 2h2M52 2h2" />
<path stroke="#4b4b53" d="M38 3h3M52 3h3" />
<path stroke="#745e46" d="M41 3h1M43 3h1M45 3h1M47 3h1M49 3h1M51 3h1" />
<path stroke="#887055" d="M42 3h1M44 3h1M46 3h1M48 3h1M50 3h1" />
<path stroke="#b3b3bd" d="M0 4h6M3 5h9M6 6h35M12 7h29" />
<path stroke="#282832" d="M6 4h32M12 5h27" />
<path stroke="#3c3c44" d="M38 4h3M52 4h3M39 5h2" />
<path stroke="#2d2318" d="M41 4h1M43 4h1M45 4h1M47 4h1M49 4h1M51 4h1" />
<path stroke="#1e1710" d="M42 4h1M44 4h1M46 4h1M48 4h1M50 4h1" />
</svg>