<svg xmlns="http://www.w3.org/2000/svg" viewBox="0 -0.5 36 8" shape-rendering="crispEdges">
<metadata>Made with Pixels to Svg https://codepen.io/shshaw/pen/XbxvNj</metadata>
<path stroke="#564b26" d="M26 0h1M25 1h1M26 3h1M28 3h1M30 3h1M32 3h1M34 3h1" />
<path stroke="#35301c" d="M26 1h1M26 2h1M28 4h1M30 4h1M32 4h1M34 4h1M25 6h1" />
<path stroke="#cfccc4" d="M2 2h6M0 3h5" />
<path stroke="#bbb8ae" d="M8 2h9M5 3h5M0 4h5M2 5h6" />
<path stroke="#a9a69a" d="M17 2h7M25 2h1M10 3h11M5 4h5M8 5h9" />
<path stroke="#a99553" d="M24 2h1M21 3h5" />
<path stroke="#796a38" d="M27 3h1M29 3h1M31 3h1M33 3h1M35 3h1M35 4h1" />
<path stroke="#77756e" d="M10 4h11M17 5h7M25 5h1" />
<path stroke="#605327" d="M21 4h5M24 5h1" />
<path stroke="#232013" d="M26 4h2M29 4h1M31 4h1M33 4h1M26 5h1M26 6h1M26 7h1" />
</svg>