<svg xmlns="http://www.w3.org/2000/svg" viewBox="0 -0.5 7 39" shape-rendering="crispEdges">
<metadata>Made with Pixels to Svg https://codepen.io/shshaw/pen/XbxvNj</metadata>
<path stroke="#e5cb7e" d="M2 0h1M4 0h1M2 1h1M4 1h1M2 2h1M4 2h1M3 4h1M3 6h1M3 8h1M3 10h1" />
<path stroke="#c59738" d="M1 1h1M5 1h1M1 2h1M5 2h1M2 6h1M4 6h1M2 10h1M4 10h1" />
<path stroke="#77550f" d="M0 2h1M6 2h1M0 3h1M6 3h1M1 4h1M5 4h1M2 5h1M4 5h1M2 7h1M4 7h1M2 9h1M4 9h1M3 12h1M3 38h1" />
<path stroke="#ab7d1d" d="M1 3h1M5 3h1M2 4h1M4 4h1M2 8h1M4 8h1M3 11h1" />
<path stroke="#d4bc74" d="M2 3h1M4 3h1M3 5h1M3 7h1M3 9h1" />
<path stroke="#b3b094" d="M3 13h1M3 14h1M3 37h1" />
<path stroke="#cac7a8" d="M3 15h1M3 16h1M3 17h1M3 18h1M3 19h1M3 20h1M3 21h1M3 22h1M3 23h1M3 24h1M3 25h1M3 26h1M3 27h1M3 28h1M3 29h1M3 30h1M3 31h1M3 32h1M3 33h1M3 34h1M3 35h1M3 36h1" />
</svg>