<svg xmlns="http://www.w3.org/2000/svg" viewBox="0 -0.5 2 34" shape-rendering="crispEdges">
<metadata>Made with Pixels to Svg https://codepen.io/shshaw/pen/XbxvNj</metadata>
<path stroke="#5cc7e3" d="M0 0h1M0 3h1" />
<path stroke="#157993" d="M1 0h1M1 3h1" />
<path stroke="#e6f2f5" d="M0 1h1M0 2h1" />
<path stroke="#b3d9e3" d="M1 1h1M1 2h1" />
<path stroke="#566f7d" d="M0 4h1M0 5h1M0 6h1M0 7h1M0 8h1M0 9h1M0 10h1M0 11h1M0 12h1M0 13h1M0 14h1M0 15h1M0 16h1M0 17h1M0 18h1M0 19h1M0 20h1M0 21h1M0 22h1M0 23h1M0 24h1M0 25h1M0 26h1M0 27h1M0 28h1M0 29h1M0 30h1M0 31h1M0 32h1M0 33h1" />
<path stroke="#141414" d="M1 4h1M1 5h1M1 6h1M1 7h1M1 8h1M1 9h1M1 10h1M1 11h1M1 12h1M1 13h1M1 14h1M1 15h1M1 16h1M1 17h1M1 18h1M1 19h1M1 20h1M1 21h1M1 22h1M1 23h1M1 24h1M1 25h1M1 26h1M1 27h1M1 28h1M1 29h1M1 30h1M1 31h1M1 32h1M1 33h1" />
</svg>