<svg xmlns="http://www.w3.org/2000/svg" viewBox="0 -0.5 30 45" shape-rendering="crispEdges">
<metadata>Made with Pixels to Svg https://codepen.io/shshaw/pen/XbxvNj</metadata>
<path stroke="#3f651a" d="M10 23h2M20 23h3M10 24h1M22 24h1M10 25h1M22 25h1M10 26h1M22 26h1M10 27h1M22 27h1M10 28h1M22 28h1M10 29h1M22 29h1M10 30h1M22 30h1M10 31h1M22 31h1M10 32h1M22 32h1M10 33h1M22 33h1M10 34h1M10 35h1M10 36h1M21 36h1M10 37h1M21 37h1M21 38h1M21 39h1M21 40h1M11 41h11" />
<path stroke="#273f0f" d="M12 23h8M12 24h8M12 25h8M12 26h8M12 27h8M12 28h8M12 29h8M12 30h8M12 31h8M12 32h8M12 33h8M12 34h8M12 35h8M12 36h8M12 37h8M12 38h8M12 39h8" />
<path stroke="#325115" d="M11 24h1M20 24h2M11 25h1M20 25h2M11 26h1M20 26h2M11 27h1M20 27h2M11 28h1M20 28h2M11 29h1M20 29h2M11 30h1M20 30h2M11 31h1M20 31h2M11 32h1M20 32h2M11 33h1M20 33h2M11 34h1M20 34h2M11 35h1M20 35h2M11 36h1M20 36h1M11 37h1M20 37h1M11 38h1M20 38h1M11 39h1M20 39h1M11 40h10" />
<path stroke="#6f9533" d="M22 34h1M22 35h1M22 36h1M22 37h1M10 38h1M22 38h1M10 39h1M22 39h1M10 40h1M22 40h1M10 41h1M22 41h1M10 42h13" />
</svg>