<svg xmlns="http://www.w3.org/2000/svg" viewBox="0 -0.5 30 45" shape-rendering="crispEdges">
<metadata>Made with Pixels to Svg https://codepen.io/shshaw/pen/XbxvNj</metadata>
<path stroke="#405b77" d="M20 37h1M18 38h1M19 39h1" />
<path stroke="#002432" d="M21 37h1M21 38h1M21 39h1" />
<path stroke="#001219" d="M17 38h1M17 39h1" />
<path stroke="#5c7895" d="M19 38h2M20 39h1" />
<path stroke="#2c4968" d="M18 39h1" />
<path stroke="#1e1106" d="M18 40h1M18 41h1M18 42h1" />
<path stroke="#472a12" d="M19 40h1M19 41h1M19 42h1" />
<path stroke="#58381e" d="M20 40h1M20 41h1M20 42h1" />
<path stroke="#321c0a" d="M21 40h1M21 41h1M21 42h1" />
</svg>