<svg xmlns="http://www.w3.org/2000/svg" viewBox="0 -0.5 30 45" shape-rendering="crispEdges">
<metadata>Made with Pixels to Svg https://codepen.io/shshaw/pen/XbxvNj</metadata>
<path stroke="#3f651a" d="M18 19h1M21 22h1" />
<path stroke="#a5c573" d="M19 19h1M20 20h1M18 21h1M21 21h1M22 22h1" />
<path stroke="#325114" d="M20 19h1M21 20h1" />
<path stroke="#6f9533" d="M18 20h1M19 22h1" />
<path stroke="#8db155" d="M19 20h1M20 21h1M22 21h1" />
<path stroke="#476f20" d="M19 21h1M20 22h1M19 23h1" />
<path stroke="#472a12" d="M20 23h2M19 24h1" />
<path stroke="#321c0a" d="M22 23h1M20 24h1" />
</svg>