<svg xmlns="http://www.w3.org/2000/svg" viewBox="0 -0.5 30 45" shape-rendering="crispEdges">
<metadata>Made with Pixels to Svg https://codepen.io/shshaw/pen/XbxvNj</metadata>
<path stroke="#6f9533" d="M19 17h2M22 18h1M12 19h1M10 20h1M13 20h1M16 20h1M18 20h1M11 21h1M14 21h1M17 21h1M10 22h1M12 22h1M19 22h1M13 23h1M16 23h3M21 23h3M22 24h2M19 30h1M17 31h1M16 32h1M10 33h1M16 33h1M11 34h1M15 34h1M12 35h1M15 35h1M13 37h2" />
<path stroke="#8db155" d="M21 17h1M18 18h1M17 19h1M12 20h1M19 20h1M23 20h1M13 21h1M20 21h1M22 21h1M16 22h2M14 23h2M20 23h1M21 24h1M22 25h2M19 29h1M10 30h1M10 31h1M16 31h1M10 32h2M15 32h1M11 33h2M14 33h2M12 34h3M13 35h2M13 36h2" />
<path stroke="#a5c573" d="M22 17h1M23 18h1M11 19h1M19 19h1M20 20h1M18 21h1M21 21h1M14 22h2M22 22h1M18 30h1M11 31h5M12 32h3M13 33h1" />
<path stroke="#325114" d="M19 18h1M20 19h1M15 20h1M21 20h1M23 21h1" />
<path stroke="#3f651a" d="M20 18h1M18 19h1M21 19h1M23 19h1M14 20h1M17 20h1M22 20h1M12 21h1M15 21h1M11 22h1M18 22h1M21 22h1M23 22h1M18 31h2M17 32h2M17 33h1M16 34h1M11 35h1M16 35h1M12 36h1M15 36h1M12 37h1M15 37h1M13 38h2" />
<path stroke="#476f20" d="M21 18h1M22 19h1M11 20h1M10 21h1M16 21h1M19 21h1M13 22h1M20 22h1M12 23h1M19 23h1" />
<path stroke="#1e1106" d="M10 23h1M10 24h1M18 24h1M11 25h1M16 25h2" />
<path stroke="#472a12" d="M11 23h1M12 24h5M19 24h1" />
<path stroke="#321c0a" d="M11 24h1M17 24h1M12 25h4" />
<path stroke="#2c4968" d="M18 25h1M17 26h1M17 27h2M16 28h2M15 29h2M11 30h4" />
<path stroke="#002432" d="M19 25h1M11 26h1M18 26h2M11 27h1M19 27h1M11 28h1M18 28h2M11 29h1M17 29h2M15 30h3" />
<path stroke="#5c7895" d="M12 26h3M12 27h2M12 28h3M12 29h2" />
<path stroke="#405b77" d="M15 26h2M14 27h3M15 28h1M14 29h1" />
<path stroke="#001219" d="M9 31h1M9 32h1M9 33h1M10 34h1M10 35h1M11 36h1M11 37h1M12 38h1M12 39h1" />
<path stroke="#273f0f" d="M19 32h1M18 33h1M17 34h1M17 35h1M16 36h1M16 37h1M15 38h1M13 39h2" />
</svg>