<svg xmlns="http://www.w3.org/2000/svg" viewBox="0 -0.5 30 45" shape-rendering="crispEdges">
<metadata>Made with Pixels to Svg https://codepen.io/shshaw/pen/XbxvNj</metadata>
<path stroke="#405b77" d="M17 31h3M17 32h3M17 33h3M17 34h1M19 34h1M17 35h1M17 36h1M18 37h1M20 37h1" />
<path stroke="#2c4968" d="M16 32h1M15 33h2M16 34h1M16 35h1M16 36h1M17 37h1" />
<path stroke="#002432" d="M20 32h1M20 33h1M20 34h1M20 35h1M20 36h1M21 37h1" />
<path stroke="#001219" d="M15 34h1M15 35h1M15 36h1M16 37h1" />
<path stroke="#5c7895" d="M18 34h1M18 35h2M18 36h2M19 37h1" />
</svg>