<svg xmlns="http://www.w3.org/2000/svg" viewBox="0 -0.5 30 45" shape-rendering="crispEdges">
<metadata>Made with Pixels to Svg https://codepen.io/shshaw/pen/XbxvNj</metadata>
<path stroke="#221820" d="M18 17h1M17 18h1M12 19h5M10 20h1M10 21h1M10 22h1M10 23h1M10 24h1M11 25h1M18 25h1M11 26h1M18 26h1M11 27h1M19 27h1M11 28h1M19 28h1M11 29h1M18 29h2M11 30h1M17 30h2M18 32h1" />
<path stroke="#896d5f" d="M18 18h1M17 19h1M12 20h1M14 20h2M13 22h1M18 22h1M13 23h1M18 23h1M11 24h1M16 24h3M14 27h1M16 27h1M14 29h1M16 29h1M12 31h1M14 31h2M12 33h1M12 35h1M13 37h1M13 39h1" />
<path stroke="#555058" d="M11 19h1M13 20h1M18 28h1M16 30h1" />
<path stroke="#8a929b" d="M18 19h2M19 20h1M12 21h1M16 21h2M12 22h1M15 22h3M12 23h1M15 23h3M14 26h1M14 28h1" />
<path stroke="#cca69b" d="M11 20h1M16 20h3M13 21h1M18 21h1M12 24h1M14 24h2M15 26h1M15 28h1M15 30h1M13 31h1M13 33h3M13 35h3M14 37h1M14 39h1" />
<path stroke="#7c838b" d="M20 20h1M11 21h1M14 21h2M19 21h2M11 22h1M14 22h1M19 22h2M11 23h1M14 23h1M19 23h2M20 24h1M16 26h1M15 27h1M15 29h1M12 30h1M14 30h1" />
<path stroke="#614e48" d="M13 24h1M19 24h1M12 25h1M14 25h1M13 26h1M12 27h1M17 27h2M13 28h1M12 29h1M17 29h1M11 31h1M16 31h2M13 32h3M13 34h3M13 36h3M14 38h1M13 40h1" />
<path stroke="#60656b" d="M13 25h1M15 25h3M12 26h1M17 26h1M13 27h1M12 28h1M16 28h2M13 29h1M13 30h1" />
<path stroke="#120d11" d="M19 25h1M19 26h1M19 30h1M10 31h1M19 31h1M11 32h1M17 32h1" />
<path stroke="#302623" d="M18 31h1M16 32h1M16 33h1M16 34h1M16 35h1M16 36h1M15 37h2M15 38h1M15 39h1M14 40h1" />
<path stroke="#4b3d39" d="M12 32h1M12 34h1M12 36h1M12 37h1M13 38h1" />
</svg>