<svg xmlns="http://www.w3.org/2000/svg" viewBox="0 -0.5 30 45" shape-rendering="crispEdges">
<metadata>Made with Pixels to Svg https://codepen.io/shshaw/pen/XbxvNj</metadata>
<path stroke="#896d5f" d="M18 18h1M20 18h1M17 19h1M21 19h1M23 19h1M17 20h1M23 20h1M17 21h1M21 25h1" />
<path stroke="#cca69b" d="M19 18h1M22 19h1M22 24h1" />
<path stroke="#8a929b" d="M18 19h3M19 20h3M20 21h1M21 24h1" />
<path stroke="#7c838b" d="M18 20h1M22 20h1M18 21h2M21 21h1M19 22h2M19 23h1M20 25h1M21 26h1M21 27h1" />
<path stroke="#614e48" d="M22 21h1M17 22h1M21 22h1M17 23h1M20 23h1M18 24h2M20 26h1" />
<path stroke="#60656b" d="M18 22h1M18 23h1" />
<path stroke="#221820" d="M22 22h1M21 23h2M20 24h1M22 25h1M22 26h1M19 27h1M22 27h1" />
<path stroke="#120d11" d="M19 25h1M19 26h1M20 27h1" />
</svg>