<svg xmlns="http://www.w3.org/2000/svg" viewBox="0 -0.5 30 45" shape-rendering="crispEdges">
<metadata>Made with Pixels to Svg https://codepen.io/shshaw/pen/XbxvNj</metadata>
<path stroke="#7c838b" d="M21 26h1M21 27h2M22 29h2M21 30h2M21 31h1" />
<path stroke="#8a929b" d="M22 26h1M23 30h1M22 31h2M21 32h1" />
<path stroke="#221820" d="M23 26h1M19 27h1M23 27h1M19 28h1M24 28h1M19 29h1M24 29h1M24 30h1M24 31h1M22 32h2M21 33h1" />
<path stroke="#120d11" d="M20 27h1M20 28h1M20 29h1M19 30h1M19 31h2M19 32h2M20 33h1" />
<path stroke="#614e48" d="M21 28h1" />
<path stroke="#896d5f" d="M22 28h1" />
<path stroke="#cca69b" d="M23 28h1" />
<path stroke="#60656b" d="M21 29h1M20 30h1" />
</svg>