<svg xmlns="http://www.w3.org/2000/svg" viewBox="0 -0.5 30 45" shape-rendering="crispEdges">
<metadata>Made with Pixels to Svg https://codepen.io/shshaw/pen/XbxvNj</metadata>
<path stroke="#120d11" d="M17 31h2M16 32h2M19 32h2M15 33h1M20 33h1M15 34h1M15 35h1M15 36h1M16 37h1" />
<path stroke="#221820" d="M18 32h1M17 33h1M19 33h1M20 34h1M20 35h1M20 36h1M20 37h1" />
<path stroke="#60656b" d="M16 33h1M18 33h1M16 34h2M19 34h1M16 35h1M16 36h1M18 37h2" />
<path stroke="#7c838b" d="M18 34h1M17 35h2M17 36h1" />
<path stroke="#8a929b" d="M19 35h1" />
<path stroke="#896d5f" d="M18 36h1M17 37h1" />
<path stroke="#cca69b" d="M19 36h1" />
</svg>