<svg xmlns="http://www.w3.org/2000/svg" viewBox="0 -0.5 30 45" shape-rendering="crispEdges">
<metadata>Made with Pixels to Svg https://codepen.io/shshaw/pen/XbxvNj</metadata>
<path stroke="#120d11" d="M10 32h2" />
<path stroke="#221820" d="M12 32h2M10 33h2M14 33h1M10 34h1M14 34h1M10 35h1M14 35h1M10 36h1M14 36h1M10 37h1M15 37h1" />
<path stroke="#60656b" d="M12 33h2M12 34h2M12 35h2M13 36h1M11 37h2" />
<path stroke="#7c838b" d="M11 34h1M11 35h1" />
<path stroke="#614e48" d="M11 36h2M13 37h2" />
</svg>