<svg xmlns="http://www.w3.org/2000/svg" viewBox="0 -0.5 30 45" shape-rendering="crispEdges">
<metadata>Made with Pixels to Svg https://codepen.io/shshaw/pen/XbxvNj</metadata>
<path stroke="#221820" d="M11 38h1M15 38h1M11 39h1M15 39h1M12 40h1M15 40h1M12 41h1M15 41h1M12 42h1M14 42h1" />
<path stroke="#7c838b" d="M12 38h1M13 41h1" />
<path stroke="#896d5f" d="M13 38h1M14 39h1M14 41h1" />
<path stroke="#60656b" d="M14 38h1M13 39h1M14 40h1" />
<path stroke="#614e48" d="M12 39h1M13 40h1M13 42h1" />
</svg>