<svg xmlns="http://www.w3.org/2000/svg" viewBox="0 -0.5 30 45" shape-rendering="crispEdges">
<metadata>Made with Pixels to Svg https://codepen.io/shshaw/pen/XbxvNj</metadata>
<path stroke="#896d5f" d="M10 18h1M9 19h1M12 20h1M11 24h1" />
<path stroke="#614e48" d="M11 18h1M10 19h1M12 19h1M8 20h1M8 21h1M12 21h1M9 22h3M11 27h2" />
<path stroke="#cca69b" d="M8 19h1" />
<path stroke="#555058" d="M11 19h1" />
<path stroke="#8a929b" d="M9 20h3" />
<path stroke="#7c838b" d="M9 21h3M11 23h1M11 25h1M11 26h1" />
<path stroke="#60656b" d="M12 22h1M12 23h1M12 24h1M12 25h1M12 26h1M11 28h1" />
<path stroke="#221820" d="M10 23h1M10 24h1M10 25h1M10 26h1M10 27h1" />
</svg>