<svg xmlns="http://www.w3.org/2000/svg" viewBox="0 -0.5 30 45" shape-rendering="crispEdges">
<metadata>Made with Pixels to Svg https://codepen.io/shshaw/pen/XbxvNj</metadata>
<path stroke="#cca69b" d="M20 37h1M20 38h1" />
<path stroke="#221820" d="M21 37h1M17 38h1M21 38h1M17 39h1M21 39h1M18 40h1M21 40h1M18 41h1M21 41h1M18 42h1M21 42h1" />
<path stroke="#7c838b" d="M18 38h2M20 41h1" />
<path stroke="#896d5f" d="M18 39h2M20 40h1M19 41h1M20 42h1" />
<path stroke="#60656b" d="M20 39h1M19 40h1M19 42h1" />
</svg>