<svg xmlns="http://www.w3.org/2000/svg" viewBox="0 -0.5 30 45" shape-rendering="crispEdges">
<metadata>Made with Pixels to Svg https://codepen.io/shshaw/pen/XbxvNj</metadata>
<path stroke="#120a03" d="M10 24h11M10 25h12M10 26h12M10 27h12M10 28h12M10 29h12M10 30h12M10 31h12M10 32h12M10 33h12M10 34h12M10 35h12M10 36h12M10 37h12M10 38h11M11 39h9M12 40h7" />
<path stroke="#2d1704" d="M21 38h1M10 39h1M20 39h1M11 40h1M19 40h1M12 41h7" />
<path stroke="#44250d" d="M21 39h1M10 40h1M20 40h1M11 41h1M19 41h1M12 42h7" />
</svg>