<svg xmlns="http://www.w3.org/2000/svg" viewBox="0 -0.5 30 45" shape-rendering="crispEdges">
<metadata>Made with Pixels to Svg https://codepen.io/shshaw/pen/XbxvNj</metadata>
<path stroke="#44250d" d="M17 18h1M11 19h2M16 19h1M18 19h1M10 20h1M13 20h3M17 20h1M19 20h1M16 21h1M18 21h1" />
<path stroke="#5d3a1d" d="M18 18h1M19 19h1M20 20h1" />
<path stroke="#2d1704" d="M17 19h1M11 20h2M16 20h1M18 20h1M10 21h1M17 21h1M19 21h1" />
<path stroke="#120a03" d="M11 21h5M10 22h1M16 22h3" />
<path stroke="#bd4439" d="M18 29h2M11 30h7M18 32h1M18 33h1M18 34h1M18 35h1M18 36h1M18 37h1" />
<path stroke="#a41e12" d="M18 30h2M11 31h7M17 33h1M17 34h1M17 35h1M17 36h1" />
<path stroke="#49100b" d="M18 31h2M11 32h7M19 32h1" />
<path stroke="#564106" d="M10 32h1M14 35h1" />
<path stroke="#c29d35" d="M12 33h5M13 34h2" />
<path stroke="#957211" d="M15 34h1" />
</svg>