<svg xmlns="http://www.w3.org/2000/svg" viewBox="0 -0.5 30 45" shape-rendering="crispEdges">
<metadata>Made with Pixels to Svg https://codepen.io/shshaw/pen/XbxvNj</metadata>
<path stroke="#0c120b" d="M10 32h1M10 33h1" />
<path stroke="#151e13" d="M11 32h1M11 33h1M11 34h1" />
<path stroke="#21301e" d="M12 32h1M12 33h1M10 34h1M12 34h1M11 35h2" />
<path stroke="#191006" d="M13 32h1M13 33h2" />
<path stroke="#26180a" d="M13 34h2" />
<path stroke="#0f0e0e" d="M10 35h1M13 35h2M9 36h1M15 36h1M9 37h1M15 37h1M9 38h7" />
<path stroke="#353132" d="M10 36h2M11 37h2" />
<path stroke="#211f1f" d="M12 36h3M10 37h1M13 37h2" />
</svg>