<svg xmlns="http://www.w3.org/2000/svg" viewBox="0 -0.5 30 45" shape-rendering="crispEdges">
<metadata>Made with Pixels to Svg https://codepen.io/shshaw/pen/XbxvNj</metadata>
<path stroke="#581b16" d="M18 17h1M17 18h1M19 18h1M12 19h4M13 20h1M17 28h1" />
<path stroke="#471410" d="M18 18h1M11 19h1M16 19h2M11 20h2M14 20h2M12 21h3M13 22h1M17 26h1M17 27h1M17 29h1M18 31h1M18 32h1M18 33h1" />
<path stroke="#26180a" d="M18 19h2M10 20h1M17 20h1M20 20h1M10 21h1M16 21h1M21 21h1M9 22h1M16 22h1M21 22h1M9 23h1M17 23h1M21 23h1M9 24h1M11 24h1M17 24h1M21 24h1M10 25h1M18 25h1M21 25h1M18 26h1M21 26h1M18 27h1M21 27h1M18 28h1M21 28h1M18 29h1M21 29h1M21 30h1M19 31h1M21 31h1M19 32h1M21 32h1M19 33h1M22 33h1M13 34h1" />
<path stroke="#320e0b" d="M16 20h1M15 21h1M14 22h1M13 23h1M17 25h1M18 30h1" />
<path stroke="#513215" d="M18 20h2M11 21h1M17 21h1M19 21h2M10 22h1M20 22h1M20 23h1" />
<path stroke="#3a240f" d="M18 21h1M11 22h1M17 22h3M10 23h2M18 23h2M10 24h1M18 24h3M19 25h2M19 26h2M19 27h2M19 28h2M19 29h2M19 30h2M20 31h1M20 32h1M20 33h2" />
<path stroke="#21301e" d="M12 22h1M15 22h1M14 23h1M14 24h1M12 25h1M12 26h1M13 29h1M12 33h1M14 33h1M17 33h1M10 34h1M12 34h1M14 34h1M16 34h1M11 35h2M14 35h2" />
<path stroke="#191006" d="M12 23h1M13 24h1M14 25h1M15 26h1M16 27h1M10 31h2M14 31h4M13 33h1" />
<path stroke="#151e13" d="M15 23h1M15 24h1M15 25h1M11 26h1M16 26h1M12 27h3M12 28h1M14 28h2M12 29h1M14 29h2M12 30h1M14 30h2M11 33h1M15 33h1M11 34h1M15 34h1" />
<path stroke="#0c120b" d="M16 23h1M16 24h1M11 25h1M16 25h1M11 27h1M11 28h1M11 29h1M16 29h1M11 30h1M16 30h2M10 33h1M16 33h1" />
<path stroke="#080502" d="M12 24h1M13 25h1M14 26h1M15 27h1M16 28h1M10 32h2M14 32h4" />
<path stroke="#d48d26" d="M13 26h1" />
<path stroke="#b3761d" d="M13 28h1M13 30h1" />
<path stroke="#383533" d="M12 31h2" />
<path stroke="#21201f" d="M12 32h2" />
</svg>