<svg xmlns="http://www.w3.org/2000/svg" viewBox="0 -0.5 30 45" shape-rendering="crispEdges">
<metadata>Made with Pixels to Svg https://codepen.io/shshaw/pen/XbxvNj</metadata>
<path stroke="#26180a" d="M9 23h13M9 24h1M21 24h1M9 25h1M21 25h1M9 26h1M21 26h1M9 27h1M21 27h1M9 28h1M21 28h1M9 29h1M21 29h1M9 30h1M21 30h1M9 31h1M21 31h1M9 32h1M21 32h1M9 33h1M21 33h1M9 34h1M21 34h1M9 35h1M21 35h1M9 36h1M21 36h1M9 37h1M21 37h1M9 38h1M21 38h1M9 39h1M21 39h1M8 40h1M16 40h5M8 41h1M11 41h5M8 42h3" />
<path stroke="#191006" d="M10 24h11M10 25h11M10 26h11M10 27h11M10 28h11M10 29h11M10 30h11M10 31h11M10 32h11M10 33h11M10 34h11M10 35h11M10 36h11M10 37h11M10 38h11M10 39h11M9 40h7M9 41h2" />
</svg>