<svg xmlns="http://www.w3.org/2000/svg" viewBox="0 -0.5 30 45" shape-rendering="crispEdges">
<metadata>Made with Pixels to Svg https://codepen.io/shshaw/pen/XbxvNj</metadata>
<path stroke="#9a855f" d="M11 19h1M12 20h1M17 26h2M14 38h1M13 39h3" />
<path stroke="#a89168" d="M18 19h2M17 20h1M20 20h1M12 21h1M16 21h1M13 22h2M11 25h1M13 25h2M17 25h1M11 26h1M16 26h1M12 29h1M14 29h1M15 30h2M12 31h1M14 31h2M13 32h1M15 32h1M14 35h1M14 36h1M14 37h2M13 38h1M15 38h1M12 39h1M16 39h1" />
<path stroke="#70664b" d="M10 20h1M10 21h1M10 22h1M18 22h1M18 23h1M18 24h1M18 25h1" />
<path stroke="#c1aa78" d="M11 20h1M11 21h1M18 21h2M12 22h1M15 22h1M17 22h1M19 22h2M13 23h2M19 23h2M11 24h1M19 24h2M12 25h1M15 25h2M19 25h1M12 26h4M12 27h1M15 27h2M12 28h1M15 28h2M16 31h1M12 32h1M14 32h1M16 32h1M13 33h3M13 34h3M13 35h1M15 35h1M13 36h1M15 36h1M13 37h1M12 38h1M16 38h1" />
<path stroke="#d6bf95" d="M18 20h2M17 21h1M20 21h1M11 22h1M16 22h1M11 23h2M15 23h3M12 24h6M13 27h2M13 28h2M12 33h1M16 33h1M12 34h1M16 34h1M12 35h1M16 35h1M12 36h1M16 36h1M12 37h1M16 37h1" />
<path stroke="#999275" d="M10 23h1M10 24h1M18 27h1M18 28h1" />
<path stroke="#ab7d1d" d="M11 27h1M11 29h1M16 29h1M12 30h1M14 40h2" />
<path stroke="#c59738" d="M17 27h1M11 28h1M17 28h1M13 29h1M15 29h1M11 30h1M14 30h1M17 30h1M11 31h1M17 31h1M11 32h1M17 32h1M11 33h1M17 33h1M17 37h1M11 38h1M17 38h1M11 39h1M17 39h1M11 40h1M13 40h1M17 40h1" />
<path stroke="#77550f" d="M17 29h2M13 31h1" />
<path stroke="#e5cb7e" d="M13 30h1M11 35h1M17 35h1M11 36h1M16 40h1" />
<path stroke="#d4bc74" d="M11 34h1M17 34h1M17 36h1M11 37h1M12 40h1" />
</svg>