<svg xmlns="http://www.w3.org/2000/svg" viewBox="0 -0.5 30 45" shape-rendering="crispEdges">
<metadata>Made with Pixels to Svg https://codepen.io/shshaw/pen/XbxvNj</metadata>
<path stroke="#b0ac89" d="M21 26h1M21 27h2" />
<path stroke="#c5bfa7" d="M22 26h1" />
<path stroke="#70664b" d="M23 26h1M19 27h1M23 27h1M19 28h1" />
<path stroke="#999275" d="M20 27h1" />
<path stroke="#1a0e02" d="M20 28h1M19 29h2M19 30h1M19 31h2M20 32h1M22 32h2M20 33h2" />
<path stroke="#2e2013" d="M21 28h1M24 28h1M21 29h1M24 29h1M20 30h1M24 30h1M24 31h1" />
<path stroke="#3d2c1c" d="M22 28h1M22 29h1M21 30h2M21 31h1" />
<path stroke="#4e3b29" d="M23 28h1M23 29h1M23 30h1M22 31h2M21 32h1" />
</svg>