<svg xmlns="http://www.w3.org/2000/svg" viewBox="0 -0.5 30 45" shape-rendering="crispEdges">
<metadata>Made with Pixels to Svg https://codepen.io/shshaw/pen/XbxvNj</metadata>
<path stroke="#a89168" d="M18 19h1" />
<path stroke="#c59738" d="M19 19h1M19 21h1M20 22h1" />
<path stroke="#77550f" d="M20 19h1M21 20h1M22 21h1" />
<path stroke="#d6bf95" d="M18 20h1" />
<path stroke="#e5cb7e" d="M19 20h1M20 21h1" />
<path stroke="#ab7d1d" d="M20 20h1M21 21h1M19 22h1M22 22h1" />
<path stroke="#c1aa78" d="M18 21h1" />
<path stroke="#d4bc74" d="M21 22h1" />
<path stroke="#b0ac89" d="M19 23h2M20 24h1M20 25h2M21 26h1M21 27h2" />
<path stroke="#c5bfa7" d="M21 23h1M21 24h1M22 26h1" />
<path stroke="#70664b" d="M22 23h1M22 24h1M22 25h1M19 26h1M23 26h1M19 27h1M23 27h1" />
<path stroke="#999275" d="M19 24h1M19 25h1M20 26h1M20 27h1" />
</svg>