<svg xmlns="http://www.w3.org/2000/svg" viewBox="0 -0.5 30 45" shape-rendering="crispEdges">
<metadata>Made with Pixels to Svg https://codepen.io/shshaw/pen/XbxvNj</metadata>
<path stroke="#77550f" d="M10 19h1M9 20h1" />
<path stroke="#c59738" d="M11 19h1M10 20h1M9 21h1" />
<path stroke="#e5cb7e" d="M11 20h1" />
<path stroke="#ab7d1d" d="M12 20h1M11 21h1M9 22h2" />
<path stroke="#d4bc74" d="M10 21h1" />
<path stroke="#a89168" d="M12 21h1" />
<path stroke="#999275" d="M11 22h1M10 23h1M10 24h1M9 26h1" />
<path stroke="#70664b" d="M12 22h1M11 23h2M11 24h2M10 25h3M10 26h3M10 27h3" />
</svg>