<svg xmlns="http://www.w3.org/2000/svg" viewBox="0 -0.5 30 45" shape-rendering="crispEdges">
<metadata>Made with Pixels to Svg https://codepen.io/shshaw/pen/XbxvNj</metadata>
<path stroke="#0e1c29" d="M11 21h6M10 22h9M10 23h9M10 24h9M10 25h9M10 26h9M10 27h9M10 28h9M10 29h9M10 30h9M10 31h9M10 32h9M10 33h9M10 34h9M10 35h9M10 36h9M10 37h9M10 38h9M11 39h8" />
<path stroke="#203049" d="M17 21h2M19 22h1M19 23h1M19 24h1M19 25h1M19 26h1M19 27h1M19 28h1M19 29h1M19 30h1M19 31h1M19 32h1M19 33h1M19 34h1M19 35h1M19 36h1M19 37h1M19 38h1M10 39h1M19 39h1M10 40h10" />
</svg>