<svg xmlns="http://www.w3.org/2000/svg" viewBox="0 -0.5 30 45" shape-rendering="crispEdges">
<metadata>Made with Pixels to Svg https://codepen.io/shshaw/pen/XbxvNj</metadata>
<path stroke="#0b1315" d="M18 19h1" />
<path stroke="#0f161c" d="M19 19h1M20 20h1M21 21h1M22 22h1M19 23h1M22 23h1M19 24h1M21 24h2M22 25h1M20 26h1M23 26h1M20 27h1M22 27h2" />
<path stroke="#0e1c29" d="M18 20h1M18 21h2M19 22h2M20 23h1M20 24h1M21 25h1M21 26h1M21 27h1" />
<path stroke="#203049" d="M19 20h1M20 21h1M21 22h1M21 23h1M22 26h1" />
<path stroke="#0f0f0f" d="M19 25h2M19 26h1M19 27h1" />
</svg>