<svg xmlns="http://www.w3.org/2000/svg" viewBox="0 -0.5 30 45" shape-rendering="crispEdges">
<metadata>Made with Pixels to Svg https://codepen.io/shshaw/pen/XbxvNj</metadata>
<path stroke="#292f38" d="M9 32h1M9 33h1M9 34h1M9 35h1M10 36h1M10 37h1" />
<path stroke="#7f92a7" d="M10 32h1M10 33h1M10 34h1M10 35h1M11 36h1M13 36h1M11 37h1" />
<path stroke="#536072" d="M11 32h3M11 33h3M11 34h3M11 35h3M12 36h1M12 37h1" />
<path stroke="#0b1315" d="M14 33h1M14 34h1M14 35h1M14 36h1M14 37h2" />
<path stroke="#b4bcc5" d="M13 37h1" />
</svg>