<svg xmlns="http://www.w3.org/2000/svg" viewBox="0 -0.5 30 45" shape-rendering="crispEdges">
<metadata>Made with Pixels to Svg https://codepen.io/shshaw/pen/XbxvNj</metadata>
<path stroke="#0f161c" d="M11 19h1M19 19h1M10 20h1M12 20h1M17 20h1M20 20h1M10 21h1M17 21h1M10 22h1M18 22h1M11 23h1M17 23h1M19 23h1M11 24h1M19 24h1M16 25h1M13 26h1M16 27h1M11 28h1M15 28h2M16 29h1M11 30h1M15 30h2M12 31h1M14 31h1M13 32h1M16 32h1M18 32h1M11 33h1M15 33h1" />
<path stroke="#0b1315" d="M12 19h1M17 19h2M13 20h4M10 23h1M18 23h1M10 24h1M17 24h1M11 25h1M17 25h2M11 26h2M14 26h5M17 27h2M17 28h2M17 29h2M10 30h1M17 30h2M9 31h1M11 31h1M15 31h4M20 31h1M10 32h1M12 32h1M14 32h1M20 32h2M13 33h1M20 33h1" />
<path stroke="#203049" d="M11 20h1M19 20h1M20 21h1M12 22h1M14 22h2M12 23h4M12 24h4M12 25h1M14 25h1M12 27h3M13 28h1M12 29h3M13 30h1M9 32h1M10 33h1M16 33h1M18 33h1M21 33h1M12 34h1M14 34h1" />
<path stroke="#0e1c29" d="M18 20h1M11 21h6M18 21h2M11 22h1M13 22h1M16 22h2M19 22h2M16 23h1M20 23h1M16 24h1M20 24h1M13 25h1M15 25h1M11 27h1M15 27h1M12 28h1M14 28h1M11 29h1M15 29h1M12 30h1M14 30h1M10 31h1M13 31h1M11 32h1M15 32h1M17 32h1M19 32h1M12 33h1M14 33h1M17 33h1M19 33h1M11 34h1M13 34h1M15 34h1" />
<path stroke="#0f0f0f" d="M18 24h1M19 25h1M19 26h1M19 27h1M19 28h1M19 29h1M19 30h1M19 31h1" />
<path stroke="#2b3f5d" d="M9 33h1M10 34h1M16 34h1M18 34h1M20 34h1M12 35h1M14 35h1" />
<path stroke="#292f38" d="M15 35h1" />
</svg>