<svg xmlns="http://www.w3.org/2000/svg" viewBox="0 -0.5 30 45" shape-rendering="crispEdges">
<metadata>Made with Pixels to Svg https://codepen.io/shshaw/pen/XbxvNj</metadata>
<path stroke="#0e1c29" d="M21 26h1M21 27h1M22 28h1M22 29h1M22 30h1M22 31h1" />
<path stroke="#203049" d="M22 26h1M23 28h1M23 29h1M23 30h1M23 31h1M21 32h1" />
<path stroke="#0f161c" d="M23 26h1M20 27h1M22 27h2M24 28h1M21 29h1M24 29h1M20 30h2M24 30h1M21 31h1M24 31h1M22 32h2M21 33h1" />
<path stroke="#0f0f0f" d="M19 27h1M19 28h3M19 29h2M19 30h1M19 31h2M20 32h1M20 33h1" />
</svg>