<svg xmlns="http://www.w3.org/2000/svg" viewBox="0 -0.5 30 45" shape-rendering="crispEdges">
<metadata>Made with Pixels to Svg https://codepen.io/shshaw/pen/XbxvNj</metadata>
<path stroke="#b4bcc5" d="M17 31h2M17 32h3M17 33h3M17 34h3M18 35h2M18 36h3M19 37h2" />
<path stroke="#2b3f5d" d="M19 31h1M20 32h1M20 33h1M20 34h1" />
<path stroke="#7f92a7" d="M16 32h1M16 33h1M16 34h1M16 35h2M20 35h1M17 36h1M17 37h2" />
<path stroke="#292f38" d="M15 33h1M15 34h1M15 35h1M15 36h1M16 37h1" />
<path stroke="#343d49" d="M21 35h1M21 36h1" />
<path stroke="#536072" d="M16 36h1" />
<path stroke="#0f161c" d="M21 37h1" />
</svg>