<svg xmlns="http://www.w3.org/2000/svg" viewBox="0 -0.5 30 45" shape-rendering="crispEdges">
<metadata>Made with Pixels to Svg https://codepen.io/shshaw/pen/XbxvNj</metadata>
<path stroke="#28051b" d="M11 38h1M15 38h1M11 39h1M15 39h1" />
<path stroke="#514767" d="M12 38h2M13 39h1" />
<path stroke="#7b718a" d="M14 38h1" />
<path stroke="#322a38" d="M12 39h1M14 39h1" />
<path stroke="#210b13" d="M11 40h1M15 40h1M11 41h1M15 41h1M12 42h1M14 42h1" />
<path stroke="#9c6154" d="M12 40h1" />
<path stroke="#6f3a3c" d="M13 40h1M12 41h1" />
<path stroke="#391b26" d="M14 40h1M13 41h2M13 42h1" />
</svg>