<svg xmlns="http://www.w3.org/2000/svg" viewBox="0 -0.5 30 45" shape-rendering="crispEdges">
<metadata>Made with Pixels to Svg https://codepen.io/shshaw/pen/XbxvNj</metadata>
<path stroke="#040c1e" d="M10 18h3M9 19h1M13 19h1M9 20h1M13 20h1M9 21h1M13 21h1M10 22h3" />
<path stroke="#896693" d="M10 19h1" />
<path stroke="#78547c" d="M11 19h2M10 20h2M10 21h1" />
<path stroke="#331742" d="M12 20h1M11 21h2" />
<path stroke="#28051b" d="M10 23h1M10 24h1M12 24h1M10 25h3" />
<path stroke="#7b718a" d="M11 23h1" />
<path stroke="#322a38" d="M12 23h1" />
<path stroke="#514767" d="M11 24h1" />
</svg>