<svg xmlns="http://www.w3.org/2000/svg" viewBox="0 -0.5 30 45" shape-rendering="crispEdges">
<metadata>Made with Pixels to Svg https://codepen.io/shshaw/pen/XbxvNj</metadata>
<path stroke="#2e2e42" d="M11 19h1M10 20h1M10 21h1M10 22h1M10 23h1M10 24h1M18 24h1M11 25h1M11 26h1M19 26h1M11 27h1M19 27h1M11 28h1M19 28h1M11 31h9M11 32h1M13 32h1M17 32h1M11 33h1M17 33h1M11 34h1M17 34h1M11 35h1M17 35h1M11 36h1M17 36h1M11 37h1M17 37h1M11 38h1M17 38h1M11 39h1M17 39h1M11 40h7" />
<path stroke="#45243a" d="M12 19h1M16 19h1M19 19h1M12 20h1M15 20h1M20 20h1M14 21h1M13 22h1" />
<path stroke="#040c1e" d="M17 19h1" />
<path stroke="#78547c" d="M18 19h1M19 20h1" />
<path stroke="#50a0b8" d="M11 20h1M16 20h1M12 21h1M15 21h1M11 23h1M15 23h2M12 24h1M14 24h2M12 26h1M14 26h2M12 27h1M14 27h3M12 28h1M14 28h2M12 33h1M14 33h2M12 34h1M14 34h2M12 35h1M14 35h2M12 36h1M14 36h2M12 37h1M14 37h2M12 38h1M14 38h2M12 39h1M14 39h2" />
<path stroke="#866d86" d="M13 20h2M13 21h1M13 30h2" />
<path stroke="#3a6b8c" d="M17 20h1M17 21h1M17 22h1M13 23h1M17 23h1M11 24h1M13 24h1M16 24h2M12 25h7M13 26h1M16 26h3M13 27h1M17 27h2M13 28h1M16 28h3M12 32h1M14 32h3M13 33h1M16 33h1M13 34h1M16 34h1M13 35h1M16 35h1M13 36h1M16 36h1M13 37h1M16 37h1M13 38h1M16 38h1M13 39h1M16 39h1" />
<path stroke="#28051b" d="M18 20h1M18 21h3M18 22h3M18 23h1M10 29h1M18 29h2M10 30h3M15 30h5M10 31h1" />
<path stroke="#83d6e7" d="M11 21h1M16 21h1M11 22h2M14 22h3M12 23h1M14 23h1" />
<path stroke="#322a38" d="M19 23h1" />
<path stroke="#241f2b" d="M20 23h1M20 24h1" />
<path stroke="#211b2b" d="M19 24h1M19 25h1" />
<path stroke="#4b281d" d="M11 29h2M15 29h3" />
<path stroke="#efe7e7" d="M13 29h1" />
<path stroke="#c2b4d3" d="M14 29h1" />
</svg>