<svg xmlns="http://www.w3.org/2000/svg" viewBox="0 -0.5 30 45" shape-rendering="crispEdges">
<metadata>Made with Pixels to Svg https://codepen.io/shshaw/pen/XbxvNj</metadata>
<path stroke="#040c1e" d="M18 18h3M17 19h1M21 19h1M17 20h1M21 20h1M17 21h1M21 21h1M18 22h3" />
<path stroke="#78547c" d="M18 19h2M19 20h2M20 21h1" />
<path stroke="#896693" d="M20 19h1" />
<path stroke="#331742" d="M18 20h1M18 21h2" />
<path stroke="#28051b" d="M21 22h1M18 23h1M22 23h1M19 24h1M22 24h1M19 25h4" />
<path stroke="#322a38" d="M19 23h1M20 24h1" />
<path stroke="#514767" d="M20 23h1M21 24h1" />
<path stroke="#7b718a" d="M21 23h1" />
</svg>