<svg xmlns="http://www.w3.org/2000/svg" viewBox="0 -0.5 30 45" shape-rendering="crispEdges">
<metadata>Made with Pixels to Svg https://codepen.io/shshaw/pen/XbxvNj</metadata>
<path stroke="#180b30" d="M18 19h2M20 20h1M21 21h1M21 22h1M22 23h1M22 24h1M22 25h1M19 26h1M23 26h1M19 27h1M23 27h1" />
<path stroke="#7a54a5" d="M18 20h2M20 21h1M21 23h1M21 24h1M22 26h1" />
<path stroke="#613d8a" d="M18 21h2M19 22h2M19 23h2M20 24h1M20 25h2M21 26h1M21 27h1" />
<path stroke="#3c2363" d="M19 24h1M19 25h1M20 26h1M20 27h1" />
<path stroke="#ffe498" d="M22 27h1" />
</svg>