<svg xmlns="http://www.w3.org/2000/svg" viewBox="0 -0.5 30 45" shape-rendering="crispEdges">
<metadata>Made with Pixels to Svg https://codepen.io/shshaw/pen/XbxvNj</metadata>
<path stroke="#180b30" d="M11 19h1M18 19h2M10 20h2M17 20h1M10 21h1M12 21h1M15 21h2M10 22h1M13 22h2M10 23h1M10 24h1M11 25h1M11 26h1M19 26h1M11 27h1M19 27h1M11 28h1M19 28h1M11 29h1M19 29h1M11 30h1M19 31h1M19 32h1M11 42h9" />
<path stroke="#7a54a5" d="M18 20h2M11 21h1M17 21h1M20 21h1M12 22h1M15 22h2M13 23h2" />
<path stroke="#613d8a" d="M18 21h2M11 22h1M17 22h4M11 23h2M15 23h6M11 24h7M12 25h5M13 26h2M12 27h5M12 28h4M13 30h2M18 30h1M13 31h2M18 31h1M18 32h1M18 33h2M11 34h1M17 34h2M11 35h1M17 35h2M11 36h1M17 36h2M11 37h1M17 37h3M11 38h2M16 38h4M11 39h2M16 39h4M11 41h2M16 41h4" />
<path stroke="#3c2363" d="M18 24h3M17 25h3M12 26h1M15 26h4M17 27h2M16 28h3M12 30h1M15 30h3M11 31h2M15 31h3M11 32h7M11 33h7M12 34h5M12 35h5M12 36h5M12 37h5M13 38h3M13 39h3M13 41h3" />
<path stroke="#dca465" d="M12 29h1M15 29h3M11 40h2M16 40h4" />
<path stroke="#ffe498" d="M13 29h2" />
<path stroke="#cd975a" d="M18 29h1M13 40h3" />
</svg>