<svg xmlns="http://www.w3.org/2000/svg" viewBox="0 -0.5 30 45" shape-rendering="crispEdges">
<metadata>Made with Pixels to Svg https://codepen.io/shshaw/pen/XbxvNj</metadata>
<path stroke="#3c2363" d="M17 31h1M15 32h3M15 33h3M15 34h2M15 35h2M14 36h3M14 37h3" />
<path stroke="#613d8a" d="M18 31h1M18 32h1M18 33h2M17 34h2M17 35h2M17 36h2M17 37h3M14 38h6M14 39h6M14 41h6" />
<path stroke="#180b30" d="M19 31h1M19 32h1M20 33h1M20 34h1M20 35h1M20 36h1M21 37h1M21 38h1M21 39h1M21 40h1M21 41h1M14 42h8" />
<path stroke="#7a54a5" d="M19 34h1M19 35h1M19 36h1M20 37h1M20 38h1M20 39h1M20 41h1" />
<path stroke="#dca465" d="M14 40h6" />
<path stroke="#ffe498" d="M20 40h1" />
</svg>