<svg xmlns="http://www.w3.org/2000/svg" viewBox="0 -0.5 30 45" shape-rendering="crispEdges">
<metadata>Made with Pixels to Svg https://codepen.io/shshaw/pen/XbxvNj</metadata>
<path stroke="#180b30" d="M10 32h1M10 33h1M10 34h1M10 35h1M10 36h1M10 37h1M10 38h1M10 39h1M10 40h1M10 41h1M10 42h7" />
<path stroke="#3c2363" d="M11 32h4M11 33h5M12 34h4M12 35h5M12 36h5M12 37h5M13 38h4M13 39h4M13 41h4" />
<path stroke="#613d8a" d="M11 34h1M11 35h1M11 36h1M11 37h1M11 38h2M11 39h2M11 41h2" />
<path stroke="#dca465" d="M11 40h2" />
<path stroke="#cd975a" d="M13 40h4" />
</svg>