<svg xmlns="http://www.w3.org/2000/svg" viewBox="0 -0.5 30 45" shape-rendering="crispEdges">
<metadata>Made with Pixels to Svg https://codepen.io/shshaw/pen/XbxvNj</metadata>
<path stroke="#444040" d="M17 31h1" />
<path stroke="#444041" d="M18 31h1M16 32h2M17 33h1M17 34h2M18 35h1M18 36h2M18 37h2" />
<path stroke="#141213" d="M19 31h1M19 32h2M20 33h1M15 36h2" />
<path stroke="#353132" d="M18 32h1M15 33h2M16 34h1M19 34h1M17 35h1M17 36h1M17 37h1" />
<path stroke="#343132" d="M18 33h1" />
<path stroke="#242021" d="M19 33h1M15 34h1M15 35h1M19 35h2M20 36h1M16 37h1" />
<path stroke="#242020" d="M20 34h1M20 37h1" />
<path stroke="#353032" d="M16 35h1" />
</svg>