<svg xmlns="http://www.w3.org/2000/svg" viewBox="0 -0.5 30 45" shape-rendering="crispEdges">
<metadata>Made with Pixels to Svg https://codepen.io/shshaw/pen/XbxvNj</metadata>
<path stroke="#242021" d="M19 18h1M19 23h2M20 24h1M22 24h1M22 25h1M20 26h2M21 27h1M23 27h1" />
<path stroke="#8c7136" d="M18 19h1M21 22h1" />
<path stroke="#a88b47" d="M19 19h1M21 21h1M22 22h1M23 23h1" />
<path stroke="#b59147" d="M20 19h2M21 20h2M23 22h1" />
<path stroke="#655022" d="M18 20h1" />
<path stroke="#8d7136" d="M19 20h1M20 21h1M22 23h1" />
<path stroke="#a88b46" d="M20 20h1" />
<path stroke="#443616" d="M18 21h1" />
<path stroke="#141213" d="M19 21h1M20 22h1M21 23h1M19 25h1M19 26h1M20 27h1" />
<path stroke="#b59047" d="M22 21h1" />
<path stroke="#242121" d="M19 22h1M19 24h1" />
<path stroke="#353132" d="M21 24h1M21 25h1M22 26h1M22 27h1" />
<path stroke="#242020" d="M20 25h1M23 26h1" />
<path stroke="#141313" d="M19 27h1" />
</svg>