<svg xmlns="http://www.w3.org/2000/svg" viewBox="0 -0.5 30 45" shape-rendering="crispEdges">
<metadata>Made with Pixels to Svg https://codepen.io/shshaw/pen/XbxvNj</metadata>
<path stroke="#a88b47" d="M11 19h1M19 19h1M10 20h1M20 20h1M14 22h1M11 23h1M13 23h1M17 23h1M11 24h1M13 24h1M17 24h1M14 25h1M16 25h1M18 29h1M16 30h2M9 31h1M14 31h1M17 31h1M13 32h1M12 33h1" />
<path stroke="#8d7136" d="M18 19h1M17 20h1M10 21h1M12 21h1M15 21h1M20 21h1M11 22h1M13 22h1M17 22h1M18 23h1M18 24h1M11 25h1M13 25h1M17 25h1M15 26h2M10 28h1M16 29h1M15 30h1M16 31h1M18 31h1M11 32h1M14 32h1M11 33h1M13 33h1M12 34h1" />
<path stroke="#8d7137" d="M11 20h1M14 26h1M17 28h1M17 32h1" />
<path stroke="#655022" d="M12 20h1M18 20h1M11 21h1M13 21h2M17 21h1M18 22h1M18 25h1M15 31h1" />
<path stroke="#141213" d="M13 20h4M19 21h1M20 22h1M19 25h1M10 26h1M10 27h1M17 27h2M11 28h1M16 28h1M18 28h2M11 29h1M15 29h1M19 29h1M19 30h1M10 31h1M19 31h1M13 34h1M14 35h1" />
<path stroke="#8d7036" d="M19 20h1M16 21h1M10 30h1" />
<path stroke="#443616" d="M18 21h1" />
<path stroke="#242021" d="M10 22h1M19 22h1M10 23h1M20 23h1M10 24h1M19 24h2M10 25h1M15 27h2M15 28h1M13 29h1M18 32h1M14 33h1" />
<path stroke="#a98b47" d="M12 22h1M12 25h1M9 30h1" />
<path stroke="#b59147" d="M15 22h1M12 23h1M15 23h2M12 24h1M14 24h3M17 29h1M11 30h4M18 30h1M12 31h2M12 32h1" />
<path stroke="#a88a47" d="M16 22h1M10 29h1" />
<path stroke="#b59146" d="M14 23h1" />
<path stroke="#242121" d="M19 23h1" />
<path stroke="#b49147" d="M15 25h1M9 29h1" />
<path stroke="#655023" d="M11 26h1M17 26h1" />
<path stroke="#8c7136" d="M12 26h1" />
<path stroke="#655122" d="M13 26h1" />
<path stroke="#151213" d="M18 26h1" />
<path stroke="#141313" d="M19 26h1M19 27h1" />
<path stroke="#141212" d="M11 27h1" />
<path stroke="#353132" d="M12 27h3M12 28h2M12 29h1M15 33h2" />
<path stroke="#242020" d="M14 28h1M14 29h1M14 34h1" />
<path stroke="#a88b46" d="M11 31h1" />
<path stroke="#343132" d="M15 32h1" />
<path stroke="#444041" d="M16 32h1M17 33h1" />
<path stroke="#252021" d="M15 34h1" />
</svg>