<svg xmlns="http://www.w3.org/2000/svg" viewBox="0 -0.5 30 45" shape-rendering="crispEdges">
<metadata>Made with Pixels to Svg https://codepen.io/shshaw/pen/XbxvNj</metadata>
<path stroke="#b59047" d="M10 19h1" />
<path stroke="#a88b47" d="M11 19h1M10 20h1M9 21h1" />
<path stroke="#8d7137" d="M11 20h1" />
<path stroke="#655022" d="M12 20h1M11 21h1" />
<path stroke="#8d7136" d="M10 21h1M9 22h1M9 23h1" />
<path stroke="#242021" d="M12 21h1M10 22h2M10 23h1M10 25h1M9 26h1M9 27h1" />
<path stroke="#343132" d="M12 22h1M12 25h1" />
<path stroke="#353132" d="M11 23h2M11 24h2M11 25h1M11 26h2M10 27h2" />
<path stroke="#242121" d="M10 24h1" />
<path stroke="#141213" d="M10 26h1M12 27h1M11 28h1" />
</svg>