<svg xmlns="http://www.w3.org/2000/svg" viewBox="0 -0.5 30 45" shape-rendering="crispEdges">
<metadata>Made with Pixels to Svg https://codepen.io/shshaw/pen/XbxvNj</metadata>
<path stroke="#242021" d="M9 26h1M9 27h1M8 28h1M8 29h1M7 30h1M10 30h1M6 31h1M9 31h1M6 32h1M8 32h1" />
<path stroke="#141213" d="M10 26h1M12 27h1M11 28h1M8 30h1M7 33h2" />
<path stroke="#353132" d="M11 26h1M10 27h2M9 28h1M10 29h1M9 30h1M8 31h1M7 32h1" />
<path stroke="#444041" d="M10 28h1M9 29h1M7 31h1" />
<path stroke="#b59147" d="M7 29h1" />
<path stroke="#141212" d="M11 29h1" />
<path stroke="#a88b47" d="M6 30h1" />
<path stroke="#141313" d="M10 31h1" />
<path stroke="#151213" d="M9 32h1" />
</svg>