<svg xmlns="http://www.w3.org/2000/svg" viewBox="0 -0.5 30 45" shape-rendering="crispEdges">
<metadata>Made with Pixels to Svg https://codepen.io/shshaw/pen/XbxvNj</metadata>
<path stroke="#141213" d="M10 31h1M9 32h1M12 32h1M9 33h1M13 33h1M9 34h1M13 34h1M9 35h1M14 35h1M10 36h1" />
<path stroke="#353132" d="M10 32h1M11 33h1M10 34h1M10 35h1M11 36h1M13 36h1" />
<path stroke="#242020" d="M11 32h1" />
<path stroke="#a88b47" d="M13 32h1M14 37h1" />
<path stroke="#353032" d="M10 33h1" />
<path stroke="#242021" d="M12 33h1M14 33h1M11 34h2M14 34h1M11 35h3" />
<path stroke="#725b2b" d="M8 36h1M9 37h2" />
<path stroke="#8d7136" d="M9 36h1M14 36h1M11 37h1" />
<path stroke="#252021" d="M12 36h1" />
<path stroke="#8c7136" d="M12 37h1" />
<path stroke="#b59147" d="M13 37h1" />
</svg>