<svg xmlns="http://www.w3.org/2000/svg" viewBox="0 -0.5 30 45" shape-rendering="crispEdges">
<metadata>Made with Pixels to Svg https://codepen.io/shshaw/pen/XbxvNj</metadata>
<path stroke="#242021" d="M21 26h1M23 26h1M21 27h1M21 28h1M24 28h1M21 29h2M20 30h1M24 30h1M20 31h1M21 32h1M22 33h1" />
<path stroke="#353132" d="M22 26h1M22 27h1M22 28h2M23 29h1M21 30h1M21 31h1M22 32h1" />
<path stroke="#141213" d="M19 27h2M19 28h2M19 29h2M19 30h1M19 31h1M20 33h2" />
<path stroke="#242020" d="M23 27h1" />
<path stroke="#252021" d="M24 29h1" />
<path stroke="#242121" d="M22 30h1" />
<path stroke="#b59147" d="M23 30h1M24 31h1" />
<path stroke="#8d7136" d="M22 31h1M23 32h1" />
<path stroke="#a88b47" d="M23 31h1" />
<path stroke="#141313" d="M19 32h1" />
<path stroke="#141212" d="M20 32h1" />
<path stroke="#a98b47" d="M24 32h1" />
</svg>