<?xml version="1.0" encoding="UTF-8" ?>
<svg version="1.1" width="30" height="45" xmlns="http://www.w3.org/2000/svg" shape-rendering="crispEdges">
<rect x="11" y="38" width="1" height="1" fill="#0F0F0F" />
<rect x="12" y="38" width="1" height="1" fill="#222222" />
<rect x="13" y="38" width="1" height="1" fill="#222222" />
<rect x="14" y="38" width="1" height="1" fill="#464646" />
<rect x="15" y="38" width="1" height="1" fill="#0F0F0F" />
<rect x="11" y="39" width="1" height="1" fill="#0F0F0F" />
<rect x="12" y="39" width="1" height="1" fill="#464646" />
<rect x="13" y="39" width="1" height="1" fill="#222222" />
<rect x="14" y="39" width="1" height="1" fill="#464646" />
<rect x="15" y="39" width="1" height="1" fill="#0F0F0F" />
<rect x="12" y="40" width="1" height="1" fill="#0F0F0F" />
<rect x="13" y="40" width="1" height="1" fill="#464646" />
<rect x="14" y="40" width="1" height="1" fill="#222222" />
<rect x="15" y="40" width="1" height="1" fill="#0F0F0F" />
<rect x="12" y="41" width="1" height="1" fill="#0F0F0F" />
<rect x="13" y="41" width="1" height="1" fill="#464646" />
<rect x="14" y="41" width="1" height="1" fill="#222222" />
<rect x="15" y="41" width="1" height="1" fill="#0F0F0F" />
<rect x="12" y="42" width="1" height="1" fill="#0F0F0F" />
<rect x="13" y="42" width="1" height="1" fill="#464646" />
<rect x="14" y="42" width="1" height="1" fill="#0F0F0F" />
</svg>