<svg xmlns="http://www.w3.org/2000/svg" viewBox="0 -0.5 30 45" shape-rendering="crispEdges">
<metadata>Made with Pixels to Svg https://codepen.io/shshaw/pen/XbxvNj</metadata>
<path stroke="#efefef" d="M11 19h1M19 19h1M20 20h1" />
<path stroke="#d7d7d7" d="M12 19h1M18 19h1M11 20h2M19 20h1M11 21h1M20 21h1M10 22h1" />
<path stroke="#efeeef" d="M10 20h1" />
<path stroke="#211823" d="M13 20h1M15 20h2M17 22h1M17 23h2M18 24h1M17 25h2M11 26h1M17 26h3M11 27h1M18 27h2M11 28h1M18 28h2M11 29h1M17 29h3M10 30h2M16 30h4M10 31h3M15 31h4" />
<path stroke="#211822" d="M14 20h1M17 27h1M14 31h1" />
<path stroke="#a3a397" d="M17 20h1M10 23h1M19 23h1M10 24h1M19 24h1M19 25h1" />
<path stroke="#bfbdc2" d="M18 20h1M18 21h2M19 22h2M20 23h1M20 24h1" />
<path stroke="#d7d6d7" d="M10 21h1" />
<path stroke="#bebdc2" d="M12 21h1" />
<path stroke="#312334" d="M13 21h1M15 21h1M12 22h1M16 22h1M11 23h1M11 24h1M11 25h1M13 26h3M12 27h1M16 27h1M17 28h1M12 29h1M16 29h1M12 30h4" />
<path stroke="#312335" d="M14 21h1" />
<path stroke="#211923" d="M16 21h1M16 26h1M13 31h1M19 31h1" />
<path stroke="#a3a396" d="M17 21h1" />
<path stroke="#bfbdc3" d="M11 22h1" />
<path stroke="#3f2e40" d="M13 22h3M12 23h1M15 23h2M16 24h1M13 25h1M16 25h1M14 27h2M16 28h1M14 29h2" />
<path stroke="#a2a397" d="M18 22h1" />
<path stroke="#685361" d="M13 23h2M13 24h3M13 27h1M13 28h2M13 29h1" />
<path stroke="#695361" d="M12 24h1M12 25h1M15 25h1" />
<path stroke="#3f2e41" d="M17 24h1" />
<path stroke="#685360" d="M14 25h1" />
<path stroke="#302334" d="M12 26h1" />
<path stroke="#3e2e40" d="M12 28h1M15 28h1" />
<path stroke="#0f0f0f" d="M11 32h2M14 32h5M12 33h4M13 34h2" />
<path stroke="#0f0e0f" d="M13 32h1" />
<path stroke="#222222" d="M16 33h2M15 34h1" />
<path stroke="#0f0f0e" d="M14 35h1" />
</svg>