<?xml version="1.0" encoding="UTF-8" ?>
<svg version="1.1" width="30" height="45" xmlns="http://www.w3.org/2000/svg" shape-rendering="crispEdges">
<rect x="10" y="32" width="1" height="1" fill="#0F0F0F" />
<rect x="11" y="32" width="1" height="1" fill="#0F0F0F" />
<rect x="12" y="32" width="1" height="1" fill="#0F0F0F" />
<rect x="13" y="32" width="1" height="1" fill="#0F0F0F" />
<rect x="10" y="33" width="1" height="1" fill="#0F0F0F" />
<rect x="11" y="33" width="1" height="1" fill="#222222" />
<rect x="12" y="33" width="1" height="1" fill="#0F0F0F" />
<rect x="13" y="33" width="1" height="1" fill="#0F0F0F" />
<rect x="14" y="33" width="1" height="1" fill="#0F0F0F" />
<rect x="10" y="34" width="1" height="1" fill="#0F0F0F" />
<rect x="11" y="34" width="1" height="1" fill="#464646" />
<rect x="12" y="34" width="1" height="1" fill="#222222" />
<rect x="13" y="34" width="1" height="1" fill="#0F0F0F" />
<rect x="14" y="34" width="1" height="1" fill="#0F0F0F" />
<rect x="10" y="35" width="1" height="1" fill="#0F0F0F" />
<rect x="11" y="35" width="1" height="1" fill="#464646" />
<rect x="12" y="35" width="1" height="1" fill="#222222" />
<rect x="13" y="35" width="1" height="1" fill="#0F0F0F" />
<rect x="14" y="35" width="1" height="1" fill="#0F0F0F" />
<rect x="10" y="36" width="1" height="1" fill="#0F0F0F" />
<rect x="11" y="36" width="1" height="1" fill="#464646" />
<rect x="12" y="36" width="1" height="1" fill="#464646" />
<rect x="13" y="36" width="1" height="1" fill="#222222" />
<rect x="14" y="36" width="1" height="1" fill="#0F0F0F" />
<rect x="10" y="37" width="1" height="1" fill="#0F0F0F" />
<rect x="11" y="37" width="1" height="1" fill="#222222" />
<rect x="12" y="37" width="1" height="1" fill="#464646" />
<rect x="13" y="37" width="1" height="1" fill="#222222" />
<rect x="14" y="37" width="1" height="1" fill="#0F0F0F" />
</svg>