<svg xmlns="http://www.w3.org/2000/svg" viewBox="0 -0.5 30 45" shape-rendering="crispEdges">
<metadata>Made with Pixels to Svg https://codepen.io/shshaw/pen/XbxvNj</metadata>
<path stroke="#d6d7d7" d="M12 20h1M18 20h1M12 21h1M21 22h1M9 27h1M12 39h1" />
<path stroke="#d7d6d7" d="M13 20h1M22 23h1M10 24h1M22 24h1M22 32h1M22 35h1M10 37h1M22 37h1" />
<path stroke="#d7d7d7" d="M14 20h4M19 20h1M11 21h1M13 21h1M20 21h1M10 22h2M10 23h1M10 25h1M9 26h1M23 26h1M23 27h1M8 28h1M23 28h1M8 29h1M8 30h1M23 30h1M22 31h2M22 33h1M22 34h1M22 36h1M10 38h1M12 38h5M18 38h3M22 38h1M10 39h2M20 39h3M10 40h1M22 40h1" />
<path stroke="#efefef" d="M20 20h1M21 21h1M22 22h1M24 28h1M24 29h1M24 30h1M9 31h1M9 32h1M23 32h1M9 33h1M23 33h1M23 34h1M9 35h1M23 35h1M9 36h1M23 36h1M9 37h1M23 37h1M23 38h1M9 39h1M13 39h1M15 39h3M19 39h1M23 39h1M9 40h1M11 40h2M21 40h1M23 40h1M9 41h2M22 41h1M9 42h1M23 42h1" />
<path stroke="#bfbdc2" d="M14 21h1M19 21h1M12 22h2M19 22h2M11 23h2M20 23h2M11 24h1M21 24h1M22 25h1M22 26h1M9 28h1M22 28h1M9 29h1M22 29h1M9 30h1M21 30h2M10 31h1M21 31h1M10 32h1M21 32h1M10 33h1M21 33h1M10 34h2M21 34h1M10 35h2M21 35h1M10 36h1M12 36h1M20 36h2M11 37h3M15 37h5M21 37h1M11 38h1M21 38h1" />
<path stroke="#a3a397" d="M15 21h4M15 22h4M13 23h1M15 23h3M19 23h1M13 24h2M20 24h1M11 25h3M20 25h1M10 26h3M21 26h1M10 27h2M21 27h1M10 28h1M21 28h1M10 29h2M21 29h1M10 30h2M11 31h1M11 32h1M20 35h1" />
<path stroke="#a3a396" d="M14 22h1M14 23h1M11 28h1" />
<path stroke="#a2a397" d="M18 23h1M12 24h1M21 25h1" />
<path stroke="#797972" d="M15 24h5M14 25h3M13 26h2M12 27h2M20 27h1M12 28h2M13 29h1M12 30h2M12 31h2M12 32h1M12 33h2M13 34h1M12 35h2M13 36h1M15 36h4" />
<path stroke="#797973" d="M17 25h1M20 28h1" />
<path stroke="#5d5d59" d="M18 25h2M16 26h1M18 26h3M16 27h2M19 27h1M14 28h6M14 29h2M17 29h1M19 29h1M14 30h7M14 31h1M16 31h5M14 32h7M14 33h1M16 33h5M14 34h7M14 35h4M19 35h1M14 36h1M19 36h1" />
<path stroke="#5c5d59" d="M15 26h1M15 27h1M18 27h1M18 29h1M15 31h1M15 33h1M18 35h1" />
<path stroke="#5d5d58" d="M17 26h1M14 27h1M20 29h1" />
<path stroke="#bfbcc2" d="M22 27h1" />
<path stroke="#787972" d="M12 29h1M12 34h1" />
<path stroke="#5d5c59" d="M16 29h1" />
<path stroke="#d7d7d6" d="M23 29h1M17 38h1" />
<path stroke="#eeefef" d="M24 31h1M9 34h1M9 38h1M18 39h1" />
<path stroke="#797872" d="M13 32h1" />
<path stroke="#bfbdc3" d="M11 33h1M11 36h1M14 37h1M20 37h1" />
<path stroke="#efefee" d="M14 39h1M20 40h1M23 41h1" />
</svg>