<svg xmlns="http://www.w3.org/2000/svg" viewBox="0 -0.5 30 45" shape-rendering="crispEdges">
<metadata>Made with Pixels to Svg https://codepen.io/shshaw/pen/XbxvNj</metadata>
<path stroke="#efefef" d="M11 19h1M10 20h1" />
<path stroke="#d6d7d7" d="M12 19h1" />
<path stroke="#d7d7d7" d="M11 20h2M10 21h2M10 22h1" />
<path stroke="#bfbdc2" d="M12 21h1M12 22h1M11 23h2M11 24h1M11 25h1M10 26h1" />
<path stroke="#bfbdc3" d="M11 22h1" />
<path stroke="#a3a397" d="M10 23h1M10 25h1M11 26h1" />
<path stroke="#a3a297" d="M10 24h1M10 27h1" />
<path stroke="#a2a397" d="M12 24h1" />
<path stroke="#797972" d="M12 25h1M11 27h1M11 28h1" />
<path stroke="#787972" d="M12 26h1" />
<path stroke="#5d5d59" d="M12 27h1" />
</svg>