<svg xmlns="http://www.w3.org/2000/svg" viewBox="0 -0.5 30 45" shape-rendering="crispEdges">
<metadata>Made with Pixels to Svg https://codepen.io/shshaw/pen/XbxvNj</metadata>
<path stroke="#d7d7d7" d="M18 19h1M19 20h1M20 21h1M21 23h1M21 24h1M22 26h1M22 27h1" />
<path stroke="#efefef" d="M19 19h1M20 20h1M22 22h1M22 24h1M22 25h1" />
<path stroke="#bfbdc2" d="M18 20h1M18 21h2M20 22h1M20 23h1M20 24h1M21 26h1M21 27h1" />
<path stroke="#eeefef" d="M21 21h1" />
<path stroke="#bfbcc2" d="M19 22h1" />
<path stroke="#d6d7d7" d="M21 22h1M21 25h1" />
<path stroke="#a3a397" d="M19 23h1M19 24h1M19 25h1M19 26h2M19 27h2" />
<path stroke="#efeeef" d="M22 23h1" />
<path stroke="#bfbdc3" d="M20 25h1" />
</svg>