<svg xmlns="http://www.w3.org/2000/svg" viewBox="0 -0.5 30 45" shape-rendering="crispEdges">
<metadata>Made with Pixels to Svg https://codepen.io/shshaw/pen/XbxvNj</metadata>
<path stroke="#211823" d="M17 31h2" />
<path stroke="#0f0e0f" d="M19 31h1" />
<path stroke="#0f0f0f" d="M16 32h5M15 33h1M19 33h2M20 34h1M20 35h1M15 36h1M20 36h1M16 37h1" />
<path stroke="#222322" d="M16 33h1M19 34h1" />
<path stroke="#222222" d="M17 33h2M15 34h3M15 35h2M16 36h1" />
<path stroke="#474646" d="M18 34h1" />
<path stroke="#464646" d="M17 35h3M17 36h3M18 37h2" />
<path stroke="#222223" d="M17 37h1" />
<path stroke="#464647" d="M20 37h1" />
<path stroke="#0e0f0f" d="M21 37h1" />
</svg>