<svg xmlns="http://www.w3.org/2000/svg" viewBox="0 -0.5 30 45" shape-rendering="crispEdges">
<metadata>Made with Pixels to Svg https://codepen.io/shshaw/pen/XbxvNj</metadata>
<path stroke="#464647" d="M20 37h1" />
<path stroke="#0e0f0f" d="M21 37h1M21 41h1M21 42h1" />
<path stroke="#0f0f0e" d="M17 38h1" />
<path stroke="#464646" d="M18 38h3M19 39h1M20 40h1M20 41h1M20 42h1" />
<path stroke="#0f0f0f" d="M21 38h1M17 39h1M21 39h1M18 40h1M21 40h1M18 41h1M18 42h1" />
<path stroke="#222222" d="M18 39h1M20 39h1M19 40h1M19 41h1M19 42h1" />
</svg>