<svg xmlns="http://www.w3.org/2000/svg" viewBox="0 -0.5 30 45" shape-rendering="crispEdges">
<metadata>Made with Pixels to Svg https://codepen.io/shshaw/pen/XbxvNj</metadata>
<path stroke="#2d1a18" d="M13 21h1M11 23h2M14 23h3M16 24h1M11 25h1M15 25h1M13 27h1M11 28h1M15 28h1" />
<path stroke="#2d1a19" d="M14 21h1" />
<path stroke="#1e1210" d="M15 21h1M18 21h1M13 22h1M16 22h1M18 22h2M18 23h2M19 24h1" />
<path stroke="#140807" d="M16 21h1M11 22h2M14 22h2M17 22h1M10 23h1M17 23h1M13 24h1M17 24h2M10 25h1M13 25h1M16 25h3M11 26h5M17 26h1M10 27h2M14 27h1M10 28h1M12 28h2M16 28h1M11 29h1M14 29h3M11 30h5M12 31h1M14 31h1" />
<path stroke="#140806" d="M17 21h1" />
<path stroke="#140907" d="M13 23h1M10 26h1M16 26h1M16 27h1M10 29h1M13 31h1" />
<path stroke="#2d1b18" d="M10 24h1M13 29h1" />
<path stroke="#472d2a" d="M11 24h1M14 24h2M12 25h1M14 25h1M12 27h1M14 28h1M12 29h1" />
<path stroke="#462d2a" d="M12 24h1" />
<path stroke="#150807" d="M15 27h1" />
</svg>