<svg xmlns="http://www.w3.org/2000/svg" viewBox="0 -0.5 30 45" shape-rendering="crispEdges">
<metadata>Made with Pixels to Svg https://codepen.io/shshaw/pen/XbxvNj</metadata>
<path stroke="#140807" d="M16 29h2M14 30h3M18 30h1M13 31h3M18 31h1M13 32h2M17 32h2M13 33h1M16 33h1M18 33h1M15 34h1M18 34h2M14 35h1M17 35h1M19 35h1M15 36h2M19 36h1M16 37h1M18 37h1" />
<path stroke="#2d1a18" d="M17 30h1M15 35h1M18 35h1M17 36h1M19 37h1" />
<path stroke="#1e1210" d="M16 31h1M15 32h1" />
<path stroke="#472d2a" d="M17 31h1M16 32h1M15 33h1M14 34h1M17 34h1M18 36h1M17 37h1" />
<path stroke="#1e1211" d="M14 33h1" />
<path stroke="#2d1a19" d="M17 33h1" />
<path stroke="#2d1b18" d="M19 33h1M16 34h1" />
<path stroke="#472c2a" d="M16 35h1" />
</svg>