<svg xmlns="http://www.w3.org/2000/svg" viewBox="0 -0.5 30 45" shape-rendering="crispEdges">
<metadata>Made with Pixels to Svg https://codepen.io/shshaw/pen/XbxvNj</metadata>
<path stroke="#140807" d="M22 27h2M19 28h3M19 29h1M22 29h2M18 30h4M22 31h2M22 32h1M18 33h1M21 33h1M18 34h3" />
<path stroke="#472d2a" d="M22 28h1M21 29h1M21 31h1M20 33h1" />
<path stroke="#2d1a18" d="M20 29h1M20 31h1M20 32h1M19 33h1" />
<path stroke="#140907" d="M22 30h1M19 32h1M22 33h1" />
<path stroke="#150807" d="M18 31h1M18 32h1" />
<path stroke="#1e1210" d="M19 31h1" />
<path stroke="#462d2a" d="M21 32h1" />
</svg>