<svg xmlns="http://www.w3.org/2000/svg" viewBox="0 -0.5 30 45" shape-rendering="crispEdges">
<metadata>Made with Pixels to Svg https://codepen.io/shshaw/pen/XbxvNj</metadata>
<path stroke="#140806" d="M11 19h1M8 21h1" />
<path stroke="#140907" d="M10 20h1M10 27h1" />
<path stroke="#140807" d="M11 20h2M9 21h2M12 21h1M9 22h1M11 22h2M7 23h4M13 23h1M9 24h1M13 24h1M8 25h3M9 26h4M9 27h1M11 27h1M10 28h1" />
<path stroke="#2d1a18" d="M11 21h1M13 21h1M10 22h1M11 23h1" />
<path stroke="#1e1210" d="M13 22h1" />
<path stroke="#2c1a18" d="M12 23h1" />
<path stroke="#2d1b18" d="M10 24h1" />
<path stroke="#472d2a" d="M11 24h2M12 25h1M12 27h1" />
<path stroke="#2d1a19" d="M11 25h1M11 28h1" />
</svg>