<svg xmlns="http://www.w3.org/2000/svg" viewBox="0 -0.5 30 45" shape-rendering="crispEdges">
<metadata>Made with Pixels to Svg https://codepen.io/shshaw/pen/XbxvNj</metadata>
<path stroke="#140807" d="M9 30h4M9 31h2M12 31h1M9 32h1M11 32h1M13 32h1M9 33h1M12 33h2M9 34h2M13 34h1M10 36h1M12 36h1M10 37h1M12 37h1" />
<path stroke="#140907" d="M13 30h1M13 31h1M13 37h1" />
<path stroke="#1e1210" d="M11 31h1M12 32h1M12 34h1M13 35h1" />
<path stroke="#2d1a18" d="M10 32h1M10 35h1M11 36h1" />
<path stroke="#472d2a" d="M10 33h1M11 34h1M12 35h1M13 36h1" />
<path stroke="#1e1211" d="M11 33h1" />
<path stroke="#150807" d="M9 35h1" />
<path stroke="#140806" d="M11 35h1M11 37h1" />
</svg>