<svg xmlns="http://www.w3.org/2000/svg" viewBox="0 -0.5 30 45" shape-rendering="crispEdges">
<metadata>Made with Pixels to Svg https://codepen.io/shshaw/pen/XbxvNj</metadata>
<path stroke="#140807" d="M18 19h1M17 20h1M19 20h2M17 21h1M21 21h3M17 22h1M22 22h1M17 23h1M17 24h1M20 24h3M17 25h3M22 25h2M19 26h3M19 27h1M22 27h1M19 28h3" />
<path stroke="#140806" d="M20 19h1M23 23h1" />
<path stroke="#150807" d="M18 20h1M21 20h1M24 23h1M18 24h1" />
<path stroke="#2c1a18" d="M18 21h1" />
<path stroke="#472d2a" d="M19 21h1M20 22h2M21 25h1M22 26h1M22 28h1" />
<path stroke="#472d2b" d="M20 21h1" />
<path stroke="#2d1a18" d="M18 22h2M19 23h4M20 25h1M20 27h1" />
<path stroke="#1f1210" d="M18 23h1" />
<path stroke="#140907" d="M19 24h1" />
<path stroke="#462d2a" d="M21 27h1" />
</svg>