<svg xmlns="http://www.w3.org/2000/svg" viewBox="0 -0.5 32 8" shape-rendering="crispEdges">
<metadata>Made with Pixels to Svg https://codepen.io/shshaw/pen/XbxvNj</metadata>
<path stroke="#3a2c58" d="M22 0h1M13 2h1M15 2h1M17 2h1M19 2h1M21 2h1M0 3h13M14 3h1M16 3h1M18 3h1M20 3h1" />
<path stroke="#261b3f" d="M22 1h1M13 3h1M15 3h1M17 3h1M19 3h1M21 3h1" />
<path stroke="#0e081c" d="M22 2h1M22 3h1M31 3h1M0 4h23M31 4h1M22 5h1M22 6h1" />
<path stroke="#350b0b" d="M23 3h1M25 3h1M27 3h1M29 3h1" />
<path stroke="#4c1515" d="M24 3h1M26 3h1M28 3h1" />
<path stroke="#050101" d="M30 3h1M24 4h1M26 4h1M28 4h1M30 4h1M13 5h1M15 5h1M17 5h1M19 5h1M21 5h1M22 7h1" />
<path stroke="#140303" d="M23 4h1M25 4h1M27 4h1M29 4h1" />
</svg>