<svg xmlns="http://www.w3.org/2000/svg" viewBox="0 -0.5 5 46" shape-rendering="crispEdges">
<metadata>Made with Pixels to Svg https://codepen.io/shshaw/pen/XbxvNj</metadata>
<path stroke="#e8e8e8" d="M2 0h1M2 1h1M2 2h1M2 3h1M2 4h1M2 5h1M2 6h1M2 7h1M2 8h1M2 9h2" />
<path stroke="#c7c7c7" d="M1 3h1M1 4h1M1 5h1M1 6h1M1 7h1M0 8h1M1 9h1" />
<path stroke="#f5f5f5" d="M3 3h1M3 4h1M3 5h1M3 6h1M3 7h1M4 8h1" />
<path stroke="#d3be93" d="M2 10h1M2 14h1M2 20h1M2 26h1M2 32h1M2 38h1M2 44h1" />
<path stroke="#4e4e4e" d="M2 11h1M2 13h1M2 15h1M2 19h1M2 21h1M2 25h1M2 27h1M2 31h1M2 33h1M2 37h1M2 39h1M2 43h1" />
<path stroke="#5d5d5d" d="M2 12h1M2 16h1M2 17h1M2 18h1M2 22h1M2 23h1M2 24h1M2 28h1M2 29h1M2 30h1M2 34h1M2 35h1M2 36h1M2 40h1M2 41h1M2 42h1M2 45h1" />
</svg>