<svg xmlns="http://www.w3.org/2000/svg" viewBox="0 -0.5 7 7" shape-rendering="crispEdges">
<metadata>Made with Pixels to Svg https://codepen.io/shshaw/pen/XbxvNj</metadata>
<path stroke="#9ec3f0" d="M2 0h1" />
<path stroke="#abd7fe" d="M3 0h1" />
<path stroke="#adecfe" d="M4 0h1" />
<path stroke="#92abee" d="M1 1h1" />
<path stroke="#90c0f0" d="M2 1h1" />
<path stroke="#a6dcfe" d="M3 1h1" />
<path stroke="#cefafd" d="M4 1h1" />
<path stroke="#96e8fd" d="M5 1h1" />
<path stroke="#7373e5" d="M0 2h1" />
<path stroke="#798fe2" d="M1 2h1" />
<path stroke="#7da4e5" d="M2 2h1" />
<path stroke="#87beff" d="M3 2h1" />
<path stroke="#8dddfe" d="M4 2h1" />
<path stroke="#9ee2ff" d="M5 2h1" />
<path stroke="#94b7f9" d="M6 2h1" />
<path stroke="#736ce0" d="M0 3h1" />
<path stroke="#7180d4" d="M1 3h1" />
<path stroke="#7989e1" d="M2 3h1" />
<path stroke="#7ca0ec" d="M3 3h1" />
<path stroke="#7db4ed" d="M4 3h1" />
<path stroke="#86ccff" d="M5 3h1" />
<path stroke="#93aefd" d="M6 3h1" />
<path stroke="#7352c5" d="M0 4h1" />
<path stroke="#7652d0" d="M1 4h1" />
<path stroke="#7c63d8" d="M2 4h1" />
<path stroke="#827ce8" d="M3 4h1" />
<path stroke="#899ff2" d="M4 4h1" />
<path stroke="#94adfd" d="M5 4h1" />
<path stroke="#9e93fc" d="M6 4h1M5 5h1" />
<path stroke="#7740c2" d="M1 5h1M2 6h1" />
<path stroke="#864fd1" d="M2 5h1M3 6h1" />
<path stroke="#8e6be1" d="M3 5h1M4 6h1" />
<path stroke="#9b8bed" d="M4 5h1" />
</svg>