<svg xmlns="http://www.w3.org/2000/svg" viewBox="0 -0.5 13 5" shape-rendering="crispEdges">
<path stroke="#c7c6c3" d="M9 0h1" />
<path stroke="#bdbbb8" d="M10 0h1" />
<path stroke="#b3b0ac" d="M11 0h1M8 1h1" />
<path stroke="#d6d8dc" d="M0 2h6" />
<path stroke="#c2c5ca" d="M6 2h2" />
<path stroke="#77746f" d="M8 2h1" />
<path stroke="#a0bcde" d="M9 2h1M11 2h1" />
<path stroke="#72a1d9" d="M10 2h1M12 2h1" />
<path stroke="#9ea2a7" d="M2 3h2" />
<path stroke="#8f9295" d="M4 3h2" />
<path stroke="#7f8286" d="M6 3h2" />
<path stroke="#58554f" d="M8 3h1" />
<path stroke="#091b30" d="M9 3h1M11 3h1" />
<path stroke="#152a42" d="M10 3h1M12 3h1" />
<path stroke="#2d2c28" d="M8 4h1" />
</svg>