<svg xmlns="http://www.w3.org/2000/svg" viewBox="0 -0.5 30 45" shape-rendering="crispEdges">
<metadata>Made with Pixels to Svg https://codepen.io/shshaw/pen/XbxvNj</metadata>
<path stroke="#140807" d="M19 26h2M24 26h1M19 27h4M19 28h2M23 28h2M19 29h3M23 29h2M19 30h1M24 30h2M20 31h1M24 31h1M20 32h1M24 32h1M20 33h3" />
<path stroke="#2d1a18" d="M21 26h1M21 28h1M22 30h1M21 31h2M21 32h1" />
<path stroke="#472d2a" d="M22 26h1M23 27h1M23 30h1M23 31h1M22 32h1" />
<path stroke="#140806" d="M23 26h1M23 32h1" />
<path stroke="#472c2a" d="M22 28h1" />
<path stroke="#140907" d="M22 29h1M19 31h1" />
<path stroke="#1e1210" d="M20 30h2" />
</svg>