<svg xmlns="http://www.w3.org/2000/svg" viewBox="0 -0.5 30 45" shape-rendering="crispEdges">
<metadata>Made with Pixels to Svg https://codepen.io/shshaw/pen/XbxvNj</metadata>
<path stroke="#140807" d="M18 18h1M20 18h1M19 19h3M21 20h3M22 21h1M23 22h2M19 23h2M22 23h1M19 24h1M22 24h2M19 25h1M19 26h2M19 27h4" />
<path stroke="#150807" d="M18 19h1M21 23h1M21 25h1" />
<path stroke="#2d1a18" d="M18 20h1M18 21h2M19 22h2M22 22h1M20 24h1M21 26h1" />
<path stroke="#472d2a" d="M19 20h2M20 21h1M21 24h1M22 25h1M22 26h1" />
<path stroke="#462d2a" d="M21 21h1" />
<path stroke="#2c1a18" d="M21 22h1" />
<path stroke="#140806" d="M20 25h1" />
</svg>