<svg xmlns="http://www.w3.org/2000/svg" viewBox="0 -0.5 30 45" shape-rendering="crispEdges">
<metadata>Made with Pixels to Svg https://codepen.io/shshaw/pen/XbxvNj</metadata>
<path stroke="#140807" d="M9 26h1M7 27h2M11 27h1M8 28h1M11 28h1M8 29h1M11 29h1M10 30h1M9 31h2M9 32h1M7 33h2" />
<path stroke="#2d1a18" d="M10 26h2M10 27h1M12 27h1M9 28h1M7 29h1M9 29h2M8 30h2M6 32h2" />
<path stroke="#472d2a" d="M9 27h1M10 28h1M7 30h1M7 31h1" />
<path stroke="#2c1a18" d="M6 30h1M6 31h1" />
<path stroke="#1e1210" d="M8 31h1M8 32h1" />
</svg>