<svg xmlns="http://www.w3.org/2000/svg" viewBox="0 -0.5 30 45" shape-rendering="crispEdges">
<metadata>Made with Pixels to Svg https://codepen.io/shshaw/pen/XbxvNj</metadata>
<path stroke="#140807" d="M10 18h1M9 19h4M7 20h3M12 20h1M8 21h1M10 21h1M12 21h1M6 22h2M9 22h1M11 22h2M8 23h3M12 23h1M9 24h1M12 24h1M8 25h1M12 25h1M12 26h1M7 27h1M12 27h1M11 28h1" />
<path stroke="#2d1a18" d="M10 20h2M11 21h1M10 22h1M11 23h1M10 24h1M11 25h1M10 27h2M9 28h2" />
<path stroke="#150807" d="M9 21h1M9 25h1M9 26h1" />
<path stroke="#140806" d="M8 22h1M8 27h1M8 28h1" />
<path stroke="#472d2a" d="M11 24h1M10 25h1M10 26h1M9 27h1" />
<path stroke="#2d1a19" d="M11 26h1" />
</svg>