<svg xmlns="http://www.w3.org/2000/svg" viewBox="0 -0.5 30 45" shape-rendering="crispEdges">
<metadata>Made with Pixels to Svg https://codepen.io/shshaw/pen/XbxvNj</metadata>
<path stroke="#140807" d="M16 37h1M19 37h1M21 37h1M17 38h2M21 38h1M21 39h2M18 40h3M18 41h1M21 41h1M18 42h3" />
<path stroke="#472d2a" d="M17 37h1M20 38h1M18 39h3M20 41h1" />
<path stroke="#462d2a" d="M18 37h1" />
<path stroke="#2d1a19" d="M20 37h1" />
<path stroke="#140907" d="M22 37h1" />
<path stroke="#2d1a18" d="M19 38h1M21 40h1M19 41h1M21 42h1" />
<path stroke="#140806" d="M17 39h1" />
</svg>