<svg xmlns="http://www.w3.org/2000/svg" viewBox="0 -0.5 30 45" shape-rendering="crispEdges">
<metadata>Made with Pixels to Svg https://codepen.io/shshaw/pen/XbxvNj</metadata>
<path stroke="#140807" d="M11 19h2M17 19h1M19 19h1M9 20h1M12 20h2M15 20h3M10 21h1M12 21h1M16 21h2M9 22h1M11 22h2M14 22h2M17 22h1M9 23h2M13 23h1M17 23h4M9 24h1M13 24h1M17 24h3M10 25h1M13 25h1M16 25h2M19 25h1M10 26h4M15 26h2M18 26h2M10 27h2M15 27h2M18 27h2M10 28h1M12 28h2M16 28h1M18 28h2M10 29h2M14 29h6M10 30h2M13 30h4M19 30h1M10 31h1M12 31h4M19 31h1M11 32h1M13 32h2M17 32h2M13 33h1M13 34h1M15 34h1M14 35h1" />
<path stroke="#150807" d="M18 19h1M9 21h1M12 30h1M12 33h1" />
<path stroke="#2d1a18" d="M10 20h2M18 20h1M11 21h1M13 21h2M18 21h2M10 22h1M20 22h1M11 23h2M14 23h1M10 24h1M16 24h1M20 24h1M11 25h1M15 25h1M11 28h1M13 29h1M17 30h1M17 33h1" />
<path stroke="#140806" d="M14 20h1M14 26h1M14 27h1" />
<path stroke="#472d2a" d="M19 20h2M20 21h1M11 24h2M14 24h2M12 25h1M14 25h1M12 27h1M14 28h1M12 29h1M17 31h1M16 32h1M14 34h1" />
<path stroke="#1e1210" d="M15 21h1M13 22h1M18 22h1M17 26h1M17 27h1M17 28h1M18 30h1M11 31h1M16 31h1M18 31h1M12 32h1M15 32h1M14 33h1" />
<path stroke="#1e1310" d="M16 22h1" />
<path stroke="#2d1b18" d="M19 22h1M16 23h1M13 27h1" />
<path stroke="#2c1a18" d="M15 23h1M15 28h1" />
<path stroke="#1f1210" d="M18 25h1" />
<path stroke="#462d2a" d="M15 33h1" />
<path stroke="#140907" d="M16 33h1" />
</svg>