<svg xmlns="http://www.w3.org/2000/svg" viewBox="0 -0.5 30 45" shape-rendering="crispEdges">
<metadata>Made with Pixels to Svg https://codepen.io/shshaw/pen/XbxvNj</metadata>
<path stroke="#2d1a18" d="M10 32h1M10 35h1M11 36h1" />
<path stroke="#140807" d="M11 32h1M13 32h1M9 33h1M12 33h1M9 34h2M9 35h1M11 35h1M14 35h1M10 36h1M12 36h1M14 36h1M10 37h4" />
<path stroke="#1e1210" d="M12 32h1M11 33h1M14 33h1M12 34h1M13 35h1" />
<path stroke="#472d2a" d="M10 33h1M11 34h1M14 34h1M13 36h1" />
<path stroke="#140907" d="M13 33h1M13 34h1" />
<path stroke="#462d2a" d="M12 35h1" />
<path stroke="#140806" d="M14 37h1" />
</svg>