<svg xmlns="http://www.w3.org/2000/svg" viewBox="0 -0.5 30 45" shape-rendering="crispEdges">
<metadata>Made with Pixels to Svg https://codepen.io/shshaw/pen/XbxvNj</metadata>
<path stroke="#472d2b" d="M17 31h1M17 37h1" />
<path stroke="#1e1210" d="M18 31h1" />
<path stroke="#140907" d="M19 31h1M19 34h1" />
<path stroke="#472d2a" d="M16 32h1M17 34h1M19 36h1M18 37h1" />
<path stroke="#140807" d="M17 32h4M16 33h1M19 33h2M15 34h1M20 34h1M17 35h2M20 35h1M15 36h2M20 36h1M16 37h1M19 37h1" />
<path stroke="#462d2a" d="M15 33h1M18 34h1" />
<path stroke="#2d1a18" d="M17 33h2M16 34h1M15 35h1M19 35h1M17 36h2M20 37h1" />
<path stroke="#472c2a" d="M16 35h1" />
</svg>