<svg xmlns="http://www.w3.org/2000/svg" viewBox="0 -0.5 59 45" shape-rendering="crispEdges">
<metadata>Made with Pixels to Svg https://codepen.io/shshaw/pen/XbxvNj</metadata>
<path stroke="rgba(32,28,44,0.9294117647058824)" d="M7 16h9M35 16h11M6 17h1M16 17h3M31 17h4M46 17h2M5 18h1M19 18h1M29 18h2M48 18h1M5 19h1M20 19h1M28 19h1M48 19h1M5 20h1M21 20h1M27 20h1M48 20h1M6 21h1M26 21h1M46 21h2M7 22h1M26 22h1M45 22h1M7 23h2M22 23h1M25 23h1M44 23h2M22 24h1M25 24h1M22 25h1M25 25h1M22 26h1M25 26h1M22 27h1M25 27h1M11 28h1M22 28h1M25 28h1M40 28h1M11 29h1M22 29h1M25 29h1M40 29h1M11 30h1M26 30h1M40 30h1M11 31h1M26 31h1M40 31h1M12 32h1M26 32h1M39 32h1M12 33h1M21 33h1M27 33h1M39 33h1M20 34h1M28 34h1M38 34h1M14 35h1M19 35h1M29 35h2M36 35h2M15 36h4M31 36h5" />
<path stroke="rgba(32,28,45,0.8313725490196079)" d="M7 17h3M42 17h4M6 18h3M44 18h4M6 19h2M45 19h3M6 20h2M45 20h3M7 21h1M45 21h1M44 22h1" />
<path stroke="rgba(31,28,43,0.5764705882352941)" d="M10 17h6M35 17h7M9 18h4M16 18h3M31 18h4M38 18h6M8 19h3M19 19h1M29 19h2M41 19h4M8 20h2M20 20h1M28 20h1M42 20h3M8 21h2M20 21h2M27 21h2M42 21h3M8 22h2M21 22h1M27 22h1M30 22h1M42 22h2M9 23h2M18 23h1M26 23h1M31 23h1M41 23h3M9 24h3M15 24h3M26 24h1M32 24h4M40 24h4M10 25h6M26 25h1M34 25h9M10 26h5M26 26h1M36 26h6M11 27h2M26 27h1M38 27h3M12 28h1M26 28h1M38 28h2M12 29h1M21 29h1M26 29h2M38 29h2M12 30h1M21 30h1M27 30h1M38 30h2M12 31h1M21 31h1M27 31h1M38 31h2M13 32h1M20 32h2M27 32h2M37 32h2M13 33h2M19 33h2M28 33h3M36 33h3M14 34h6M29 34h9M15 35h4M31 35h5" />
<path stroke="rgba(30,26,46,0.43137254901960786)" d="M18 19h1M31 19h1M10 20h1M15 20h5M29 20h7M41 20h1M11 21h4M17 21h1M19 21h1M29 21h1M32 21h1M36 21h5M12 22h1M16 22h1M20 22h1M28 22h1M33 22h1M39 22h1M11 23h1M19 23h1M29 23h1M34 23h1M40 23h1M19 24h1M29 24h1M30 25h1M30 26h1M14 27h1M18 27h1M31 27h1M36 27h1M13 28h1M15 28h1M17 28h1M32 28h1M35 28h1M37 28h1M16 29h1M33 29h2M15 30h1M35 30h1M15 31h1M35 31h1M14 32h1M36 32h1M15 33h1M35 33h1" />
<path stroke="rgba(40,32,65,0.24705882352941178)" d="M21 23h1M27 23h1M21 24h1M27 24h1M20 25h1M28 25h1M20 26h1M28 26h1M20 27h1M28 27h1M19 28h1M29 28h1M19 29h1M29 29h1M16 30h1M19 30h1M30 30h1M33 30h1M16 31h1M18 31h1M30 31h1M33 31h1M16 32h1M18 32h1M31 32h1M33 32h1M16 33h1M18 33h1M31 33h1M33 33h1" />
<path stroke="#15212d" d="M8 24h1M44 24h1" />
<path stroke="#161f26" d="M9 25h1M43 25h1M42 26h1" />
<path stroke="#131b26" d="M10 27h1M41 27h1" />
<path stroke="#271b29" d="M13 34h1" />
</svg>