<svg xmlns="http://www.w3.org/2000/svg" viewBox="0 -0.5 59 45" shape-rendering="crispEdges">
<metadata>Made with Pixels to Svg https://codepen.io/shshaw/pen/XbxvNj</metadata>
<path stroke="#e8e8e8" d="M35 10h2M34 11h2M34 12h3M39 12h2M36 13h1M38 13h5M35 14h6M34 15h1M38 15h2M38 16h1" />
<path stroke="#ffffff" d="M37 10h3M36 11h5M37 12h2M41 12h1M37 13h1" />
<path stroke="rgba(40,32,65,0.24705882352941178)" d="M33 11h1M32 12h2M32 13h1M31 14h1M31 15h1M30 16h1M37 16h1M30 17h2M37 17h2M30 18h2M36 18h2M30 19h1M32 19h1M35 19h1M37 19h1M30 20h3M34 20h1M36 20h2M31 21h2M34 21h4M31 22h3M35 22h1M37 22h2M32 23h4M37 23h2M32 24h6M32 25h6M31 26h6M30 27h6M28 28h6M27 29h5M27 30h3" />
<path stroke="#c7c7c7" d="M41 14h3M40 15h1M39 16h1" />
<path stroke="rgba(31,28,43,0.5764705882352941)" d="M39 17h1M38 18h1M38 19h1M38 20h1M38 21h1M39 22h1M31 23h1M39 23h1M38 24h2M31 25h1M38 25h2M30 26h1M37 26h2M28 27h2M36 27h3M27 28h1M34 28h4M26 29h1M32 29h5M26 30h1M30 30h5M25 31h8" />
</svg>