<svg xmlns="http://www.w3.org/2000/svg" viewBox="0 -0.5 59 45" shape-rendering="crispEdges">
<metadata>Made with Pixels to Svg https://codepen.io/shshaw/pen/XbxvNj</metadata>
<path stroke="rgba(40,32,65,0.24705882352941178)" d="M1 7h1M56 7h1M1 8h2M55 8h2M2 9h1M54 9h2M2 10h2M53 10h3M3 11h2M52 11h2M4 12h1M51 12h2M54 12h1M3 13h1M5 13h1M50 13h2M53 13h1M2 14h1M4 14h3M49 14h2M52 14h1M55 14h1M2 15h1M4 15h1M6 15h2M48 15h2M51 15h2M54 15h2M3 16h1M5 16h1M7 16h1M47 16h2M50 16h2M53 16h2M3 17h3M8 17h1M46 17h2M50 17h1M52 17h2M4 18h3M8 18h2M45 18h2M49 18h4M6 19h2M9 19h2M44 19h2M48 19h2M51 19h1M5 20h2M10 20h1M43 20h2M49 20h2M5 21h3M11 21h1M42 21h1M47 21h4M6 22h3M12 22h1M41 22h1M46 22h4M4 23h1M40 23h1M47 23h1M51 23h2M4 24h1M6 24h4M13 24h2M38 24h2M43 24h1M45 24h2M48 24h2M51 24h2M5 25h2M8 25h2M15 25h1M37 25h1M45 25h3M49 25h3M5 26h3M11 26h1M16 26h1M35 26h1M42 26h1M47 26h4M6 27h1M8 27h3M33 27h1M44 27h4M49 27h1M7 28h2M10 28h3M40 28h5M46 28h3M11 29h1M13 29h3M26 29h4M37 29h3M42 29h2M10 30h6M19 30h3M24 30h8M36 30h9M9 31h4M16 31h1M20 31h11M35 31h2M41 31h2M44 31h2M15 32h1M18 32h2M21 32h9M31 32h2M37 32h1M20 33h1M26 33h5" />
<path stroke="rgba(255,234,184,0.23921568627450981)" d="M6 11h1M49 11h1M7 12h1M48 12h1M47 13h1M9 14h1M43 14h1M45 14h1M10 15h1M44 15h1M12 16h1M41 16h1M43 16h1M11 17h1M13 17h1M39 17h1M42 17h1M15 18h1M37 18h1M40 18h1M13 19h2M33 19h1M36 19h1M38 19h3M13 20h1M15 20h2M18 20h1M32 20h1M35 20h3M39 20h1M15 21h2M18 21h2M31 21h3M35 21h3M16 22h4M31 22h6M16 23h1M18 23h2M31 23h3M35 23h1M18 24h15M19 25h13M20 26h11M21 27h9M21 28h5" />
<path stroke="rgba(31,28,43,0.5764705882352941)" d="M54 11h1M3 12h1M53 12h1M4 13h1M52 13h1M51 14h1M5 15h1M50 15h1M6 16h1M49 16h1M6 17h2M48 17h2M7 18h1M47 18h2M5 19h1M8 19h1M46 19h2M50 19h1M7 20h3M45 20h4M8 21h3M43 21h4M9 22h3M42 22h4M8 23h5M41 23h6M5 24h1M10 24h3M40 24h3M44 24h1M50 24h1M7 25h1M10 25h5M38 25h7M48 25h1M8 26h3M12 26h4M36 26h6M43 26h4M7 27h1M11 27h7M34 27h10M48 27h1M9 28h1M13 28h8M30 28h10M45 28h1M12 29h1M16 29h5M30 29h7M40 29h2M16 30h3M32 30h4M17 31h3M31 31h4M33 32h1M16 33h1M35 33h2" />
<path stroke="rgba(255,246,212,0.4470588235294118)" d="M8 12h1M46 12h1M9 13h1M45 13h1M10 14h1M40 14h1M44 14h1M11 15h4M17 15h1M34 15h1M38 15h2M41 15h3M11 16h1M13 16h3M18 16h1M32 16h2M36 16h5M42 16h1M14 17h7M30 17h9M40 17h1M13 18h2M16 18h21M38 18h2M15 19h18M34 19h2M37 19h1M17 20h1M19 20h13M33 20h2M17 21h1M20 21h11M34 21h1M20 22h11M20 23h11" />
</svg>