<svg xmlns="http://www.w3.org/2000/svg" viewBox="0 -0.5 59 45" shape-rendering="crispEdges">
<path stroke="current" d="M8 4h1M40 4h1M7 5h3M39 5h3M7 6h4M38 6h4M8 7h4M37 7h4M9 8h4M36 8h4M9 9h5M35 9h6M8 10h7M34 10h8M8 11h8M33 11h9M9 12h8M32 12h9M10 13h7M31 13h9M10 14h7M31 14h9M11 15h6M31 15h8M11 16h7M30 16h9M10 17h8M30 17h9M10 18h9M29 18h10M11 19h8M29 19h9M11 20h9M27 20h11M11 21h10M26 21h12M11 22h11M24 22h14M11 23h11M24 23h14M11 24h11M24 24h14M11 25h11M24 25h14M12 26h10M24 26h13M12 27h10M24 27h13M13 28h9M25 28h11M14 29h7M26 29h9M15 30h5M27 30h7M15 31h5M27 31h6M18 32h1M28 32h2" />
</svg>