<svg xmlns="http://www.w3.org/2000/svg" viewBox="0 -0.5 59 45" shape-rendering="crispEdges">
<metadata>Made with Pixels to Svg https://codepen.io/shshaw/pen/XbxvNj</metadata>
<path stroke="rgba(40,32,65,0.24705882352941178)" d="M36 19h2M35 20h2M35 21h1M35 22h1M35 23h1M35 24h1M35 25h1M35 26h1M35 27h1M26 28h1M34 28h2M27 29h2M34 29h1M29 30h2M33 30h2M31 31h3" />
<path stroke="rgba(31,28,43,0.5764705882352941)" d="M37 20h1M36 21h1M36 22h1M36 23h1M36 24h1M36 25h1M36 26h1M36 27h1M36 28h1M35 29h1M35 30h1M34 31h1M32 32h2" />
</svg>