<svg xmlns="http://www.w3.org/2000/svg" viewBox="0 -0.5 59 45" shape-rendering="crispEdges">
<metadata>Made with Pixels to Svg https://codepen.io/shshaw/pen/XbxvNj</metadata>
<path stroke="rgba(31,28,43,0.5764705882352941)" d="M15 7h1M34 7h1M14 8h1M35 8h1M14 9h1M35 9h1M14 10h1M35 10h2M14 11h1M35 11h2M13 12h1M15 12h1M34 12h1M36 12h2M13 13h1M15 13h1M34 13h1M37 13h1M13 14h1M33 14h1M37 14h2M33 15h1M38 15h1M16 16h1M32 16h1M38 16h1M12 17h1M16 17h1M32 17h1M39 17h1M12 18h1M16 18h2M31 18h2M39 18h1M12 19h1M17 19h1M31 19h1M39 19h1M11 20h1M17 20h1M30 20h2M40 20h1M11 21h1M18 21h1M29 21h2M40 21h1M11 22h1M18 22h1M28 22h2M40 22h1M19 23h1M27 23h2M41 23h1M20 24h1M25 24h2M41 24h1M16 25h1M21 25h1M24 25h1M32 25h1M41 25h1M14 26h1M16 26h1M19 26h3M24 26h4M32 26h1M35 26h1M41 26h1M13 27h1M15 27h2M18 27h1M28 27h2M32 27h1M34 27h1M36 27h2M41 27h1M13 28h1M16 28h1M30 28h1M32 28h2M38 28h1M12 29h1M16 29h2M31 29h2M39 29h1M11 30h1M16 30h1M32 30h2M40 30h1M11 31h1M40 31h1M41 32h1M41 33h1M41 34h1M10 35h1M41 35h2M10 36h1M42 36h1" />
<path stroke="rgba(40,32,65,0.24705882352941178)" d="M36 9h1M13 10h1M37 10h1M13 11h1M15 11h1M34 11h1M37 11h1M38 12h1M33 13h1M38 13h1M15 14h1M12 15h1M16 15h1M32 15h1M39 15h1M12 16h1M39 16h1M11 17h1M17 17h1M31 17h1M40 17h1M11 18h1M40 18h1M11 19h1M16 19h1M30 19h1M32 19h1M40 19h1M16 20h1M18 20h1M29 20h1M32 20h1M41 20h1M16 21h1M28 21h1M32 21h1M41 21h1M16 22h1M19 22h1M27 22h1M32 22h1M41 22h1M10 23h1M16 23h1M20 23h1M26 23h1M32 23h1M42 23h1M10 24h1M16 24h1M21 24h1M24 24h1M32 24h1M42 24h1M10 25h1M23 25h1M42 25h1M10 26h1M23 26h1M42 26h1M10 27h1M42 27h1M10 28h1M42 28h1M10 29h1M42 29h1M10 30h1M42 30h1M10 31h1M42 31h1M10 32h1M42 32h1M10 33h1M42 33h1M10 34h1M42 34h1" />
<path stroke="rgba(255,234,184,0.23921568627450981)" d="M14 12h1M35 12h1M14 13h1M35 13h2M14 14h1M34 14h3M13 15h1M15 15h1M34 15h1M36 15h2M13 16h1M15 16h1M33 16h2M36 16h2M13 17h1M15 17h1M33 17h2M37 17h2M13 18h1M15 18h1M33 18h2M37 18h2M13 19h1M33 19h1M37 19h2M12 20h1M33 20h1M38 20h2M12 21h1M17 21h1M31 21h1M33 21h1M38 21h2M12 22h1M17 22h1M30 22h2M33 22h1M39 22h1M11 23h2M17 23h2M29 23h3M33 23h1M39 23h2M11 24h2M17 24h1M19 24h1M27 24h2M31 24h1M33 24h1M39 24h2M11 25h2M17 25h1M19 25h2M25 25h3M31 25h1M33 25h1M39 25h2M11 26h2M17 26h1M31 26h1M33 26h1M39 26h2M11 27h1M17 27h1M31 27h1M33 27h1M40 27h1M11 28h1M17 28h1M31 28h1M40 28h2M11 29h1M40 29h2M41 30h1M41 31h1" />
<path stroke="rgba(255,246,212,0.4470588235294118)" d="M14 15h1M35 15h1M14 16h1M35 16h1M14 17h1M35 17h2M14 18h1M35 18h2M14 19h2M34 19h3M13 20h3M34 20h4M13 21h3M34 21h4M13 22h3M34 22h5M13 23h3M34 23h5M13 24h3M18 24h1M29 24h2M34 24h5M13 25h3M18 25h1M28 25h3M34 25h5M13 26h1M15 26h1M18 26h1M28 26h3M34 26h1M36 26h3M12 27h1M30 27h1M38 27h2M12 28h1M39 28h1" />
<path stroke="#6b6b6b" d="M16 31h1M32 31h1" />
</svg>