<svg xmlns="http://www.w3.org/2000/svg" viewBox="0 -0.5 59 45" shape-rendering="crispEdges">
<metadata>Made with Pixels to Svg https://codepen.io/shshaw/pen/XbxvNj</metadata>
<path stroke="rgba(31,28,43,0.5764705882352941)" d="M8 4h1M9 5h1M39 5h1M10 6h1M38 6h1M11 7h1M37 7h1M12 8h1M36 8h1M9 9h1M13 9h1M35 9h1M39 9h1M10 10h1M14 10h1M34 10h1M39 10h1M15 11h1M33 11h1M38 11h1M11 12h1M15 12h2M32 12h1M37 12h1M12 13h1M16 13h1M31 13h1M36 13h1M10 14h1M13 14h1M16 14h1M31 14h1M35 14h1M39 14h1M16 15h1M31 15h1M38 15h1M11 16h1M17 16h1M30 16h1M37 16h1M12 17h2M17 17h1M30 17h1M35 17h2M18 18h1M29 18h1M38 18h1M11 19h1M18 19h1M37 19h1M11 20h1M19 20h1M27 20h1M37 20h1M12 21h2M20 21h1M26 21h1M33 21h1M35 21h2M11 22h1M14 22h1M21 22h1M24 22h2M34 22h1M37 22h1M11 23h2M36 23h2M13 24h1M15 24h1M32 24h1M35 24h1M11 25h1M14 25h1M29 25h1M33 25h2M37 25h1M12 26h1M17 26h1M24 26h1M30 26h1M36 26h1M12 27h1M17 27h1M24 27h1M30 27h1M36 27h1M13 28h2M16 28h1M18 28h1M21 28h1M25 28h1M28 28h1M31 28h1M34 28h2M14 29h2M18 29h1M20 29h1M26 29h1M28 29h1M32 29h3M29 30h1M33 30h1M15 31h3M19 31h1M27 31h1M29 31h4M18 32h1M28 32h2" />
<path stroke="rgba(40,32,65,0.24705882352941178)" d="M40 4h1M7 5h1M41 5h1M7 6h1M41 6h1M8 7h1M40 7h1M9 8h1M39 8h1M10 9h1M38 9h1M40 9h1M8 10h1M38 10h1M41 10h1M8 11h1M11 11h1M37 11h1M41 11h1M9 12h1M12 12h1M36 12h1M40 12h1M10 13h1M13 13h1M35 13h1M39 13h1M14 14h1M34 14h1M38 14h1M11 15h1M15 15h1M32 15h1M37 15h1M12 16h1M16 16h1M31 16h1M33 16h1M36 16h1M38 16h1M10 17h1M33 17h1M38 17h1M10 18h1M14 18h2M17 18h1M30 18h1M32 18h1M34 18h1M15 19h1M29 19h1M32 19h1M12 20h2M15 20h1M17 20h2M28 20h1M30 20h1M32 20h2M35 20h2M11 21h1M14 21h1M16 21h1M19 21h1M27 21h1M31 21h1M34 21h1M37 21h1M16 22h2M20 22h1M26 22h1M30 22h2M13 23h1M15 23h1M17 23h1M21 23h1M24 23h2M29 23h2M32 23h1M35 23h1M11 24h1M14 24h1M19 24h1M24 24h1M27 24h1M29 24h1M33 24h2M37 24h1M12 25h1M17 25h2M20 25h1M26 25h1M28 25h1M30 25h1M36 25h1M13 26h1M16 26h1M19 26h1M21 26h1M25 26h1M27 26h1M31 26h1M35 26h1M13 27h2M16 27h1M18 27h2M21 27h1M25 27h1M27 27h2M31 27h1M34 27h2M15 28h1M20 28h1M26 28h1M32 28h2M15 30h3M19 30h1M27 30h1M30 30h3M18 31h1M28 31h1" />
<path stroke="rgba(255,234,184,0.23921568627450981)" d="M8 5h1M40 5h1M8 6h2M39 6h2M9 7h2M38 7h2M10 8h2M37 8h2M11 9h2M36 9h2M9 10h1M11 10h3M35 10h3M40 10h1M9 11h2M12 11h3M34 11h3M39 11h2M10 12h1M13 12h2M33 12h3M38 12h2M11 13h1M14 13h2M32 13h3M37 13h2M11 14h2M15 14h1M32 14h2M36 14h2M12 15h3M33 15h4M13 16h3M32 16h1M34 16h2M11 17h1M14 17h3M31 17h2M34 17h1M37 17h1M11 18h3M16 18h1M31 18h1M33 18h1M35 18h3M12 19h3M16 19h2M30 19h2M33 19h4M14 20h1M16 20h1M29 20h1M31 20h1M34 20h1M15 21h1M17 21h2M28 21h3M32 21h1M12 22h2M15 22h1M18 22h2M27 22h3M32 22h2M35 22h2M14 23h1M16 23h1M18 23h3M26 23h3M31 23h1M33 23h2M12 24h1M16 24h3M20 24h2M25 24h2M28 24h1M30 24h2M36 24h1M13 25h1M15 25h2M19 25h1M21 25h1M24 25h2M27 25h1M31 25h2M35 25h1M14 26h2M18 26h1M20 26h1M26 26h1M28 26h2M32 26h3M15 27h1M20 27h1M26 27h1M29 27h1M32 27h2M17 28h1M19 28h1M27 28h1M29 28h2M16 29h2M19 29h1M27 29h1M29 29h3M18 30h1M28 30h1" />
</svg>