<svg xmlns="http://www.w3.org/2000/svg" viewBox="0 -0.5 59 45" shape-rendering="crispEdges">
<metadata>Made with Pixels to Svg https://codepen.io/shshaw/pen/XbxvNj</metadata>
<path stroke="#830f0b" d="M14 7h2M34 7h2M14 8h1M35 8h2M13 9h2M35 9h3M13 10h3M34 10h4M13 11h3M34 11h5M13 12h3M33 12h6M12 13h4M33 13h7M12 14h5M32 14h8M12 15h5M32 15h8M11 16h7M31 16h10M11 17h7M31 17h10M11 18h7M30 18h11M11 19h8M29 19h13M11 20h8M28 20h14M11 21h9M27 21h15M10 22h11M26 22h17M10 23h12M24 23h19M10 24h12M23 24h20M10 25h12M23 25h21M10 26h12M23 26h21M10 27h4M15 27h4M28 27h7M36 27h8M10 28h4M16 28h2M30 28h4M38 28h6M10 29h3M16 29h2M31 29h2M39 29h5M10 30h2M16 30h1M32 30h2M40 30h4M10 31h2M40 31h4M10 32h1M41 32h3M10 33h1M41 33h3M10 34h1M41 34h2M10 35h1M41 35h2M10 36h1M42 36h1" />
</svg>