<svg xmlns="http://www.w3.org/2000/svg" viewBox="0 -0.5 59 45" shape-rendering="crispEdges">
<path stroke="current" d="M9 2h9M30 2h2M9 3h11M30 3h4M12 4h9M31 4h4M16 5h6M31 5h5M16 6h7M32 6h5M17 7h6M32 7h5M18 8h5M32 8h6M45 8h1M9 9h2M18 9h6M32 9h6M44 9h3M7 10h2M18 10h6M31 10h7M44 10h4M6 11h2M19 11h5M31 11h7M44 11h5M5 12h2M19 12h5M30 12h7M45 12h5M4 13h3M19 13h6M29 13h7M45 13h5M4 14h3M19 14h6M26 14h9M45 14h5M4 15h3M20 15h14M45 15h5M4 16h3M21 16h11M45 16h5M4 17h3M21 17h12M44 17h6M4 18h4M14 18h6M22 18h12M43 18h6M4 19h5M13 19h8M22 19h14M41 19h8M5 20h5M12 20h37M5 21h43M6 22h41M7 23h39M8 24h11M20 24h11M35 24h10M1 25h1M10 25h5M21 25h8M39 25h5M0 26h3M21 26h12M0 27h3M21 27h13M0 28h4M15 28h5M21 28h14M0 29h5M14 29h22M44 29h1M0 30h7M13 30h23M43 30h3M1 31h7M11 31h25M43 31h4M2 32h35M43 32h4M3 33h35M43 33h4M4 34h13M19 34h11M31 34h8M42 34h5M5 35h10M18 35h13M32 35h14M6 36h7M17 36h15M33 36h13M7 37h5M16 37h6M26 37h7M34 37h11M15 38h6M27 38h7M35 38h9M13 39h7M28 39h7M36 39h7M44 39h2M5 40h14M29 40h7M38 40h4M43 40h3M6 41h12M30 41h16M8 42h8M31 42h14M10 43h4M33 43h11M34 44h9" />
</svg>