<svg xmlns="http://www.w3.org/2000/svg" viewBox="0 -0.5 59 45" shape-rendering="crispEdges">
<path stroke="current" d="M58 2h1M58 3h1M0 4h1M57 4h1M0 5h2M54 5h1M56 5h2M1 6h2M54 6h3M1 7h2M54 7h3M0 8h4M53 8h5M0 9h1M2 9h4M50 9h1M52 9h4M57 9h1M1 10h5M50 10h7M2 11h5M49 11h7M3 12h6M46 12h1M48 12h7M2 13h8M45 13h9M55 13h1M2 14h1M4 14h7M40 14h1M43 14h10M54 14h2M2 15h13M17 15h1M34 15h1M38 15h2M41 15h15M3 16h13M18 16h1M32 16h2M36 16h19M3 17h18M30 17h24M4 18h49M3 19h1M5 19h47M53 19h1M3 20h48M52 20h2M4 21h49M5 22h47M4 23h49M4 24h49M5 25h47M5 26h46M6 27h44M7 28h42M10 29h35M8 30h40M9 31h34M44 31h2M11 32h2M15 32h23M41 32h2M14 33h3M18 33h3M26 33h8M35 33h4M18 34h1M32 34h1" />
</svg>