<svg xmlns="http://www.w3.org/2000/svg" viewBox="0 -0.5 59 45" shape-rendering="crispEdges">
<metadata>Made with Pixels to Svg https://codepen.io/shshaw/pen/XbxvNj</metadata>
<path stroke="rgba(40,32,65,0.24705882352941178)" d="M28 28h4M26 29h2M31 29h3M25 30h1M33 30h2M34 31h1M34 32h2M35 33h1M35 34h1M36 35h1M36 36h1M36 37h1M37 38h1M37 39h2M38 40h2M42 40h1M39 41h3" />
<path stroke="rgba(31,28,43,0.5764705882352941)" d="M28 29h3M26 30h2M31 30h2M25 31h1M33 31h1M33 32h1M34 33h1M34 34h1M35 35h1M35 36h1M35 37h1M36 38h1M36 39h1M37 40h1M38 41h1M42 41h1M39 42h3" />
</svg>