<svg xmlns="http://www.w3.org/2000/svg" viewBox="0 -0.5 59 45" shape-rendering="crispEdges">
<metadata>Made with Pixels to Svg https://codepen.io/shshaw/pen/XbxvNj</metadata>
<path stroke="rgba(40,32,65,0.24705882352941178)" d="M15 16h1M35 16h1M15 17h2M34 17h2M16 18h2M33 18h2M17 19h1M19 19h1M31 19h1M33 19h1M18 20h1M32 20h1" />
<path stroke="rgba(31,28,43,0.5764705882352941)" d="M14 17h1M36 17h1M15 18h1M35 18h1M16 19h1M18 19h1M32 19h1M34 19h1M17 20h1M33 20h1M17 21h1M33 21h1" />
<path stroke="#d7d7d7" d="M19 20h1M31 20h1M20 21h1M30 21h1M21 22h1M29 22h1M22 23h1M28 23h1M23 24h1M27 24h1M24 25h1M26 25h1M25 26h1M24 27h1M23 28h1M27 28h1M22 29h1M28 29h1M21 30h1M29 30h1M20 31h1M30 31h1M19 32h1M31 32h1M18 33h1M32 33h1" />
<path stroke="#f5f5f5" d="M18 21h2M31 21h2M19 22h2M30 22h2M20 23h2M29 23h2M21 24h2M28 24h2M22 25h2M27 25h2M23 26h2M26 26h2M25 27h2M24 28h3M23 29h2M26 29h2M22 30h2M27 30h2M21 31h2M28 31h2M20 32h2M29 32h2M19 33h2M30 33h2M17 34h3M31 34h3" />
</svg>