<svg xmlns="http://www.w3.org/2000/svg" viewBox="0 -0.5 59 45" shape-rendering="crispEdges">
<metadata>Made with Pixels to Svg https://codepen.io/shshaw/pen/XbxvNj</metadata>
<path stroke="rgba(32,28,45,0.8313725490196079)" d="M9 2h9M30 2h2M9 3h3M18 3h2M30 3h1M32 3h2M12 4h4M20 4h1M31 4h1M34 4h1M16 5h1M21 5h1M31 5h1M35 5h1M16 6h1M22 6h1M32 6h1M36 6h1M17 7h1M22 7h1M32 7h1M36 7h1M18 8h1M22 8h1M32 8h1M37 8h1M45 8h1M9 9h2M18 9h1M23 9h1M32 9h1M37 9h1M44 9h1M46 9h1M7 10h2M18 10h1M23 10h1M31 10h1M37 10h1M44 10h1M47 10h1M6 11h2M19 11h1M23 11h1M31 11h1M37 11h1M44 11h1M48 11h1M5 12h2M19 12h1M23 12h1M30 12h1M36 12h1M45 12h1M49 12h1M4 13h1M6 13h1M19 13h1M24 13h1M29 13h1M35 13h1M45 13h1M49 13h1M4 14h1M6 14h1M19 14h1M24 14h1M26 14h3M34 14h1M45 14h1M49 14h1M4 15h1M6 15h1M20 15h1M25 15h1M32 15h2M45 15h1M49 15h1M4 16h1M6 16h1M21 16h1M30 16h2M45 16h1M49 16h1M4 17h1M6 17h1M21 17h2M30 17h3M44 17h2M49 17h1M4 18h1M7 18h1M14 18h6M22 18h2M33 18h1M43 18h2M48 18h1M4 19h1M8 19h1M13 19h1M20 19h1M22 19h1M34 19h2M41 19h3M48 19h1M5 20h1M9 20h1M12 20h1M21 20h2M36 20h6M48 20h1M5 21h1M10 21h2M47 21h1M6 22h1M46 22h1M7 23h1M19 23h1M31 23h4M45 23h1M8 24h2M15 24h4M20 24h1M29 24h2M35 24h4M44 24h1M1 25h1M10 25h5M21 25h1M28 25h1M39 25h5M0 26h1M2 26h1M21 26h1M27 26h6M0 27h1M2 27h1M21 27h2M33 27h1M0 28h1M3 28h1M15 28h5M21 28h1M34 28h1M0 29h1M4 29h1M14 29h1M20 29h1M35 29h1M44 29h1M0 30h1M5 30h2M13 30h1M35 30h1M43 30h1M45 30h1M1 31h1M7 31h1M11 31h2M35 31h1M43 31h1M46 31h1M2 32h1M8 32h3M36 32h1M43 32h1M46 32h1M3 33h1M16 33h6M28 33h3M37 33h1M43 33h1M46 33h1M4 34h1M15 34h2M19 34h1M29 34h1M31 34h1M38 34h1M42 34h1M46 34h1M5 35h1M13 35h2M18 35h1M30 35h1M32 35h1M39 35h3M45 35h1M6 36h1M12 36h1M17 36h1M22 36h4M31 36h1M33 36h1M45 36h1M7 37h5M16 37h1M21 37h1M26 37h1M32 37h1M34 37h2M44 37h1M15 38h1M20 38h1M27 38h1M33 38h1M35 38h2M43 38h1M13 39h2M19 39h1M28 39h1M34 39h1M36 39h2M41 39h2M44 39h2M5 40h8M18 40h1M29 40h1M35 40h1M38 40h4M43 40h1M45 40h1M6 41h2M16 41h2M30 41h1M36 41h7M45 41h1M8 42h2M14 42h2M31 42h2M44 42h1M10 43h4M33 43h1M43 43h1M34 44h9" />
<path stroke="rgba(31,28,43,0.5764705882352941)" d="M12 3h6M31 3h1M18 4h2M32 4h2M20 5h1M34 5h1M21 6h1M35 6h1M21 7h1M35 7h1M21 8h1M36 8h1M22 9h1M36 9h1M45 9h1M22 10h1M36 10h1M46 10h1M22 11h1M36 11h1M47 11h1M22 12h1M35 12h1M48 12h1M5 13h1M23 13h1M34 13h1M48 13h1M5 14h1M23 14h1M32 14h2M48 14h1M5 15h1M24 15h1M26 15h3M30 15h2M48 15h1M25 16h1M29 16h1M48 16h1M25 17h2M29 17h1M48 17h1M6 18h1M24 18h4M47 18h1M7 19h1M14 19h6M24 19h4M47 19h1M8 20h1M13 20h1M20 20h1M24 20h4M47 20h1M9 21h1M12 21h1M21 21h2M24 21h3M46 21h1M10 22h2M23 22h4M31 22h5M45 22h1M23 23h3M29 23h2M35 23h5M44 23h1M23 24h6M39 24h5M23 25h5M1 26h1M23 26h4M1 27h1M24 27h9M2 28h1M23 28h4M33 28h1M3 29h1M15 29h5M21 29h1M23 29h3M34 29h1M4 30h1M14 30h1M20 30h1M23 30h4M34 30h1M44 30h1M5 31h2M13 31h1M23 31h3M34 31h1M44 31h1M7 32h1M11 32h2M24 32h2M35 32h1M44 32h1M8 33h3M36 33h1M44 33h1M20 34h1M28 34h1M37 34h1M43 34h1M19 35h1M29 35h1M38 35h1M42 35h1M18 36h1M30 36h1M39 36h3M17 37h1M31 37h1M16 38h1M32 38h1M15 39h1M33 39h1M13 40h2M34 40h1M44 40h1M8 41h5M35 41h1M43 41h1M36 42h7" />
<path stroke="rgba(255,245,213,0.7215686274509804)" d="M16 4h1M17 6h1M19 8h1M34 10h1M34 11h1M33 12h1M20 14h1M22 16h1M23 17h1M29 18h1M31 19h2M33 20h1M35 21h1M43 21h1M15 22h4M37 22h6M8 23h1M14 23h1M16 23h1M18 23h1M20 23h1M10 24h1M12 24h2M21 24h1M2 31h1M28 31h1M30 31h2M3 32h1M15 32h3M19 32h1M28 32h2M31 32h2M4 33h1M15 33h1M31 33h1M33 33h1M13 34h2M32 34h1M34 34h1M6 35h1M12 35h1M23 35h1M25 35h1M33 35h1M35 35h1M7 36h1M9 36h3M26 36h2M34 36h2M44 36h1M28 37h1M36 37h1M28 38h1M37 38h1M29 39h2M38 39h2M17 40h1M31 40h1M15 41h1M31 41h1M10 42h2M13 42h1M37 43h2M40 43h1" />
<path stroke="rgba(255,234,184,0.23921568627450981)" d="M17 5h1M33 8h1M19 9h1M33 11h1M20 12h1M30 13h1M46 13h1M21 14h1M23 16h1M46 17h1M32 18h1M35 20h1M43 20h1M6 21h1M17 21h1M38 21h1M13 23h1M16 31h1M4 32h1M32 33h1M7 34h1M12 34h1M45 34h1M24 35h1M34 35h1M20 37h1M37 37h1M43 37h1M29 38h1M18 39h1M40 39h1M14 41h1M32 41h1M44 41h1M34 43h1M39 43h1" />
<path stroke="rgba(249,242,197,0.30980392156862746)" d="M32 5h1M18 6h1M19 7h1M33 7h1M34 8h1M20 9h1M34 9h1M20 10h1M32 10h2M20 11h1M32 11h1M45 11h1M32 12h1M21 13h1M31 13h1M30 14h1M46 14h1M22 15h1M5 16h1M46 16h1M5 17h1M5 18h1M31 18h1M45 18h1M30 19h1M45 19h1M6 20h1M32 20h1M34 20h1M42 20h1M44 20h2M7 21h1M15 21h2M18 21h2M34 21h1M37 21h1M39 21h1M41 21h1M44 21h1M8 22h1M14 22h1M20 22h1M43 22h1M9 23h1M12 23h1M21 23h1M1 29h1M2 30h1M28 30h4M3 31h1M15 31h1M17 31h3M32 31h1M45 31h1M14 32h1M20 32h2M33 32h1M5 33h2M13 33h1M34 33h1M45 33h1M6 34h1M11 34h1M23 34h3M35 34h1M44 34h1M8 35h3M21 35h2M26 35h2M36 35h1M20 36h1M28 36h1M37 36h1M43 36h1M19 37h1M29 37h1M38 37h1M42 37h1M18 38h1M30 38h1M39 38h3M17 39h1M31 39h1M15 40h1M32 40h1M13 41h1M33 41h1M34 42h1M43 42h1M35 43h1M42 43h1" />
<path stroke="rgba(255,246,212,0.4470588235294118)" d="M33 6h1M18 7h1M33 9h1M19 10h1M31 12h1M46 12h1M20 13h1M29 14h1M21 15h1M46 15h1M30 18h1M5 19h1M33 19h1M44 19h1M36 21h1M40 21h1M7 22h1M19 22h1M15 23h1M11 24h1M1 30h1M18 32h1M30 32h1M45 32h1M14 33h1M5 34h1M33 34h1M11 35h1M44 35h1M8 36h1M21 36h1M36 36h1M27 37h1M19 38h1M38 38h1M42 38h1M16 40h1M30 40h1M12 42h1M33 42h1M36 43h1M41 43h1" />
</svg>