<svg xmlns="http://www.w3.org/2000/svg" viewBox="0 -0.5 59 45" shape-rendering="crispEdges">
<metadata>Made with Pixels to Svg https://codepen.io/shshaw/pen/XbxvNj</metadata>
<path stroke="rgba(255,246,212,0.4470588235294118)" d="M21 9h8M19 10h2M29 10h2M18 11h1M31 11h1M17 12h1M32 12h1M16 13h1M33 13h1M15 14h1M34 14h1M15 15h1M34 15h1M14 16h1M35 16h1M14 17h1M35 17h1M14 18h1M35 18h1M14 19h1M35 19h1M14 20h1M35 20h1M14 21h1M35 21h1M14 22h1M35 22h1M14 23h1M35 23h1M14 24h1M35 24h1M14 25h1M35 25h1M14 26h1M35 26h1M14 27h1M35 27h1M14 28h1M35 28h1M14 29h1M35 29h1M14 30h1M35 30h1M14 31h1M35 31h1M14 32h1M35 32h1M14 33h1M35 33h1M14 34h1M35 34h1M14 35h1M35 35h1M14 36h1M35 36h1M14 37h1M35 37h1M15 38h1M34 38h1M15 39h1M34 39h1M16 40h1M33 40h1M17 41h1M32 41h1M18 42h1M31 42h1M19 43h2M29 43h2M21 44h8" />
<path stroke="rgba(255,234,184,0.23921568627450981)" d="M21 10h8M19 11h12M18 12h3M29 12h3M17 13h2M31 13h2M16 14h2M32 14h2M16 15h1M33 15h1M15 16h2M33 16h2M15 17h1M34 17h1M15 18h1M34 18h1M15 19h1M34 19h1M15 20h1M34 20h1M15 21h1M34 21h1M15 22h1M34 22h1M15 23h1M34 23h1M15 24h1M34 24h1M15 25h1M34 25h1M15 26h1M34 26h1M15 27h1M34 27h1M15 28h1M34 28h1M15 29h1M34 29h1M15 30h1M34 30h1M15 31h1M34 31h1M15 32h1M34 32h1M15 33h1M34 33h1M15 34h1M34 34h1M15 35h1M34 35h1M15 36h1M34 36h1M15 37h2M33 37h2M16 38h1M33 38h1M16 39h2M32 39h2M17 40h2M31 40h2M18 41h3M29 41h3M19 42h12M21 43h8" />
<path stroke="rgba(40,32,65,0.24705882352941178)" d="M21 14h8M19 15h12M19 16h3M28 16h3M18 17h3M29 17h3M18 18h2M30 18h2M18 19h2M30 19h2M18 20h2M30 20h2M18 21h2M30 21h2M18 22h2M30 22h2M18 23h2M30 23h2M18 24h2M30 24h2M18 25h2M30 25h2M18 26h2M30 26h2M18 27h2M30 27h2M18 28h2M30 28h2M18 29h2M30 29h2M18 30h2M30 30h2M18 31h2M30 31h2M18 32h2M30 32h2M18 33h2M30 33h2M18 34h2M30 34h2M18 35h2M30 35h2M18 36h3M29 36h3M19 37h3M28 37h3M19 38h12M21 39h8" />
<path stroke="rgba(31,28,43,0.5764705882352941)" d="M22 16h6M21 17h8M20 18h10M20 19h10M20 20h10M20 21h10M20 22h10M20 23h10M20 24h10M20 25h10M20 26h10M20 27h10M20 28h10M20 29h10M20 30h10M20 31h10M20 32h10M20 33h10M20 34h10M20 35h10M21 36h8M22 37h6" />
</svg>