<svg xmlns="http://www.w3.org/2000/svg" viewBox="0 -0.5 59 45" shape-rendering="crispEdges">
<metadata>Made with Pixels to Svg https://codepen.io/shshaw/pen/XbxvNj</metadata>
<path stroke="#141213" d="M38 19h1M37 20h1M36 21h1M36 22h1M35 23h1M35 24h1M35 25h2M39 25h1M36 26h3" />
<path stroke="#242021" d="M37 21h2M37 22h2M36 23h1M38 23h2M36 24h2M39 24h1M37 25h2" />
<path stroke="#353132" d="M37 23h1M38 24h1" />
<path stroke="rgba(40,32,65,0.24705882352941178)" d="M38 27h1M39 28h1M24 30h1M25 31h1M39 31h1M26 32h1M38 32h1M27 33h3M37 33h1M30 34h6" />
<path stroke="rgba(31,28,43,0.5764705882352941)" d="M39 27h1M40 28h1M40 29h1M40 30h1M24 31h1M40 31h1M25 32h1M39 32h1M26 33h1M38 33h1M27 34h3M36 34h2M30 35h6" />
</svg>