<svg xmlns="http://www.w3.org/2000/svg" viewBox="0 -0.5 59 45" shape-rendering="crispEdges">
<metadata>Made with Pixels to Svg https://codepen.io/shshaw/pen/XbxvNj</metadata>
<path stroke="rgba(255,246,212,0.4470588235294118)" d="M19 3h3M17 4h2M22 4h2M16 5h1M24 5h1M15 6h1M25 6h1M14 7h1M26 7h1M14 8h1M26 8h1M13 9h1M27 9h1M13 10h1M27 10h1M13 11h1M27 11h1M14 12h1M26 12h1M14 13h1M26 13h1M15 14h1M25 14h1M16 15h1M24 15h1M17 16h2M22 16h2M19 17h3M34 17h4M33 18h1M38 18h1M9 19h4M32 19h1M39 19h1M8 20h1M13 20h1M31 20h1M40 20h1M7 21h1M14 21h1M31 21h1M40 21h1M6 22h1M15 22h1M31 22h1M40 22h1M5 23h1M16 23h1M31 23h1M40 23h1M5 24h1M16 24h1M32 24h1M39 24h1M5 25h1M16 25h1M33 25h1M38 25h1M5 26h1M16 26h1M34 26h4M6 27h1M15 27h1M7 28h1M14 28h1M28 28h3M8 29h1M13 29h1M26 29h2M31 29h2M9 30h4M25 30h1M33 30h1M24 31h1M34 31h1M23 32h1M35 32h1M12 33h4M23 33h1M35 33h1M11 34h1M16 34h1M22 34h1M36 34h1M10 35h1M17 35h1M22 35h1M36 35h1M9 36h1M18 36h1M22 36h1M36 36h1M9 37h1M18 37h1M23 37h1M35 37h1M9 38h1M18 38h1M23 38h1M35 38h1M9 39h1M18 39h1M24 39h1M34 39h1M10 40h1M17 40h1M25 40h1M33 40h1M11 41h1M16 41h1M26 41h2M31 41h2M12 42h4M28 42h3" />
<path stroke="rgba(255,234,184,0.23921568627450981)" d="M19 4h3M17 5h2M22 5h2M16 6h1M24 6h1M15 7h1M25 7h1M15 8h1M25 8h1M14 9h1M26 9h1M14 10h1M26 10h1M14 11h1M26 11h1M15 12h1M25 12h1M15 13h1M25 13h1M16 14h1M24 14h1M17 15h2M22 15h2M19 16h3M34 18h4M33 19h1M38 19h1M9 20h4M32 20h1M39 20h1M8 21h1M13 21h1M32 21h1M39 21h1M7 22h1M14 22h1M32 22h1M39 22h1M6 23h1M15 23h1M32 23h1M39 23h1M6 24h1M15 24h1M33 24h1M38 24h1M6 25h1M15 25h1M34 25h4M6 26h1M15 26h1M7 27h1M14 27h1M8 28h1M13 28h1M9 29h4M28 29h3M26 30h2M31 30h2M25 31h1M33 31h1M24 32h1M34 32h1M24 33h1M34 33h1M12 34h4M23 34h1M35 34h1M11 35h1M16 35h1M23 35h1M35 35h1M10 36h1M17 36h1M23 36h1M35 36h1M10 37h1M17 37h1M24 37h1M34 37h1M10 38h1M17 38h1M24 38h1M34 38h1M10 39h1M17 39h1M25 39h1M33 39h1M11 40h1M16 40h1M26 40h2M31 40h2M12 41h4M28 41h3" />
<path stroke="rgba(31,28,43,0.5764705882352941)" d="M18 7h5M17 8h2M22 8h2M17 9h1M23 9h1M17 10h1M23 10h1M17 11h1M23 11h1M17 12h2M22 12h2M18 13h5M34 20h4M34 21h1M37 21h1M10 22h2M34 22h1M37 22h1M9 23h1M12 23h1M34 23h4M8 24h1M13 24h1M8 25h1M13 25h1M9 26h1M12 26h1M10 27h2M27 32h5M26 33h2M31 33h2M26 34h1M32 34h1M26 35h1M32 35h1M12 36h4M26 36h1M32 36h1M12 37h1M15 37h1M26 37h2M31 37h2M12 38h1M15 38h1M27 38h5M12 39h4" />
<path stroke="rgba(32,28,45,0.8313725490196079)" d="M19 8h3M18 9h5M18 10h5M18 11h5M19 12h3M35 21h2M35 22h2M10 23h2M9 24h4M9 25h4M10 26h2M28 33h3M27 34h5M27 35h5M27 36h5M13 37h2M28 37h3M13 38h2" />
</svg>