<svg xmlns="http://www.w3.org/2000/svg" viewBox="0 -0.5 59 45" shape-rendering="crispEdges">
<metadata>Made with Pixels to Svg https://codepen.io/shshaw/pen/XbxvNj</metadata>
<path stroke="rgba(40,32,65,0.24705882352941178)" d="M39 11h2M38 12h1M37 13h1M36 14h1M31 15h1M35 15h1M31 16h2M34 16h1M31 17h1M33 17h1M31 18h2M31 19h1M30 20h1" />
<path stroke="rgba(31,28,43,0.5764705882352941)" d="M39 12h2M38 13h2M37 14h2M36 15h2M35 16h2M34 17h2M33 18h2M32 19h2M35 19h1M31 20h6M30 21h2" />
<path stroke="rgba(255,234,184,0.23921568627450981)" d="M32 17h1" />
<path stroke="#f5f5f5" d="M30 18h1M29 19h2M28 20h2M27 21h2M26 22h2M29 22h1M25 23h2M28 23h1M24 24h2M27 24h1M23 25h2M26 25h1M22 26h2M25 26h1M21 27h2M24 27h1M20 28h2M23 28h1M19 29h2M22 29h1M18 30h2M21 30h1M17 31h2M20 31h1M16 32h2M19 32h1M15 33h2M18 33h1M14 34h2M17 34h1M13 35h2M16 35h1M13 36h1M15 36h1M14 37h1M13 38h1" />
<path stroke="#c1c1c1" d="M29 21h1M32 21h2M28 22h1M30 22h3M27 23h1M29 23h3M26 24h1M28 24h3M25 25h1M27 25h3M24 26h1M26 26h3M23 27h1M25 27h3M22 28h1M24 28h3M21 29h1M23 29h3M20 30h1M22 30h3M19 31h1M21 31h3M18 32h1M20 32h3M17 33h1M19 33h3M16 34h1M18 34h3M15 35h1M17 35h3M14 36h1M16 36h3M13 37h1M15 37h3M14 38h3" />
</svg>