<svg xmlns="http://www.w3.org/2000/svg" viewBox="0 -0.5 30 45" shape-rendering="crispEdges">

<path stroke="rgba(31,28,43,0.5764705882352941)" d="M17 5h1M16 6h1M18 6h2M16 7h2M14 9h3M13 10h5M12 11h1M14 11h2M18 11h1M11 12h1M15 12h2M19 12h1M10 13h1M12 13h1M17 13h1M10 14h1M13 14h1M19 14h1M11 15h1M14 15h1M17 15h1M18 16h2M18 17h1" />
<path stroke="rgba(32,28,45,0.8313725490196079)" d="M15 8h2M13 9h1M17 9h2M12 10h1M18 10h2M11 11h1M20 11h1M20 12h1M20 13h1M12 14h1M20 14h1M20 15h1M12 16h1M20 16h1M20 17h1M19 18h1M18 19h1" />
<path stroke="rgba(30,26,43,0.23137254901960785)" d="M19 11h1M12 12h1M14 12h1M16 13h1M18 14h1M13 15h1M15 15h1M18 18h1" />
</svg>