<svg xmlns="http://www.w3.org/2000/svg" viewBox="0 -0.5 30 45" shape-rendering="crispEdges">

<path stroke="rgba(32,28,45,0.8313725490196079)" d="M11 9h3M16 9h3M12 10h1M19 10h1M10 11h1M20 11h1M10 12h1M20 12h1M9 13h1M21 13h1M8 14h1M14 14h1M22 14h1M9 15h1M12 15h1M14 15h2M21 15h1M8 16h1M10 16h2M16 16h1M19 16h1M9 17h1M19 17h1M9 18h2M18 18h2M9 19h1M19 19h1M10 20h1M12 20h1M16 20h1M18 20h1M10 21h1M12 21h1M16 21h1M18 21h1M10 22h1M12 22h1M16 22h1M18 22h1M9 23h1M15 23h1M14 24h1" />
<path stroke="rgba(31,28,43,0.5764705882352941)" d="M14 9h2M10 10h2M18 10h1M13 11h1M19 11h1M14 12h1M16 12h1M17 13h1M20 13h1M9 14h1M12 14h1M15 14h1M18 14h1M21 14h1M11 15h1M16 15h1M18 15h1M20 15h1M17 16h1M10 17h1M18 17h1M11 19h1M17 19h1M11 23h1M17 23h1M10 24h1M16 24h1" />
<path stroke="rgba(30,26,43,0.23137254901960785)" d="M13 10h1M16 10h2M12 11h1M15 11h1M18 11h1M11 12h1M13 12h1M17 12h1M19 12h1M10 13h1M12 13h1M14 13h1M11 14h1M20 14h1M9 16h1M13 16h1M18 16h1M11 17h1M17 17h1M11 21h1M17 21h1M9 24h1M15 24h1" />
</svg>