<svg xmlns="http://www.w3.org/2000/svg" viewBox="0 -0.5 30 45" shape-rendering="crispEdges">

<path stroke="rgba(32,28,45,0.8313725490196079)" d="M17 4h4M16 5h1M21 5h1M15 6h1M22 6h1M14 7h2M22 7h1M12 8h2M16 8h3M23 8h1M11 9h1M19 9h1M23 9h1M10 10h1M20 10h1M24 10h1M9 11h1M20 11h1M24 11h1M8 12h1M21 12h1M24 12h1M8 13h1M21 13h1M24 13h1M8 14h1M12 14h1M14 14h1M21 14h1M24 14h1M8 15h1M10 15h3M14 15h2M22 15h2" />
<path stroke="rgba(30,26,43,0.23137254901960785)" d="M17 6h2M16 7h1M19 7h1M20 8h1M13 9h1M16 9h2M12 10h1M15 10h1M18 10h1M21 10h1M11 11h1M13 11h1M19 11h1M10 12h1M12 12h1M14 12h1M22 12h1M11 13h1M15 13h1M22 13h1M9 14h1M16 14h1M20 14h1M9 15h1M13 15h1M18 15h1M20 15h1M9 16h1M17 16h1M19 16h1M10 17h1M19 18h1M19 19h1" />
<path stroke="rgba(31,28,43,0.5764705882352941)" d="M17 7h2M14 8h2M19 8h1M12 9h1M18 9h1M20 9h1M13 10h1M19 10h1M10 11h1M14 11h1M16 11h1M21 11h1M9 12h1M17 12h1M20 12h1M9 13h1M12 13h1M14 13h1M18 13h1M11 14h1M15 14h1M18 14h1M22 14h1M16 15h2M19 15h1M10 16h1M17 17h1M18 19h1M18 20h1" />
<path stroke="#362f32" d="M21 15h1M21 16h1M21 17h1M20 18h1M20 19h1M19 20h1" />
</svg>