<svg xmlns="http://www.w3.org/2000/svg" viewBox="0 -0.5 30 45" shape-rendering="crispEdges">

<path stroke="rgba(30,26,43,0.23137254901960785)" d="M12 11h1M14 11h2M17 11h1M12 12h2M18 12h1M19 13h1M18 14h1M20 14h1M11 15h1M13 15h3M20 16h1M18 19h1M20 19h1M11 20h1M16 20h1M19 20h1" />
<path stroke="rgba(31,28,43,0.5764705882352941)" d="M11 13h1M15 13h1M12 14h1M14 14h1M16 14h1M10 15h1M12 15h1M17 15h1M19 15h1M11 16h1M18 16h1M20 17h1M19 18h1M10 19h2M17 19h1M12 20h1M18 20h1" />
<path stroke="rgba(32,28,45,0.8313725490196079)" d="M19 14h1M19 16h1M11 17h1" />
</svg>