<svg xmlns="http://www.w3.org/2000/svg" viewBox="0 -0.5 30 45" shape-rendering="crispEdges">

<path stroke="rgba(31,28,43,0.5764705882352941)" d="M13 9h1M11 11h1M18 11h1M15 12h1M20 12h1M13 13h1M17 13h1M19 13h1M21 13h1M12 14h1M16 14h1M18 14h1M10 15h1M19 15h1M17 16h1M20 16h1M11 17h1M18 17h1M21 17h1M10 18h1M19 18h1M18 19h1" />
<path stroke="rgba(32,28,45,0.8313725490196079)" d="M14 9h4M12 10h1M14 10h1M18 10h1M13 11h1M17 11h1M19 11h1M11 12h1M13 12h1M16 12h1M18 12h2M11 13h1M20 13h1M10 14h1M13 14h3M19 14h2M16 15h1M20 15h1M9 16h1M21 16h1M17 17h1M11 18h2M18 18h1" />
<path stroke="rgba(30,26,43,0.23137254901960785)" d="M15 10h3M14 11h1M17 12h1M18 13h1M12 15h4M17 15h1M11 16h1M16 16h1M18 16h1M10 17h1M19 17h1M17 18h1M20 18h1" />
</svg>