<svg xmlns="http://www.w3.org/2000/svg" viewBox="0 -0.5 30 45" shape-rendering="crispEdges">
<metadata>Made with Pixels to Svg https://codepen.io/shshaw/pen/XbxvNj</metadata>
<path stroke="rgba(31,28,43,0.5764705882352941)" d="M17 3h1M16 4h1M15 5h1M21 5h1M15 6h1M20 6h3M15 7h1M19 7h1M21 7h1M23 7h1M12 8h6M20 8h1M24 8h1M11 9h1M18 9h1M20 9h1M24 9h1M10 10h1M19 10h1M21 10h1M25 10h1M9 11h1M20 11h1M25 11h1M9 12h1M12 12h1M16 12h1M19 12h1M25 12h1M8 13h1M11 13h1M19 13h1M22 13h1M25 13h1M10 14h1M25 14h1M9 15h1M14 15h1M22 15h2M25 15h1M9 16h1M13 16h1M17 16h1M23 16h3M9 17h1M13 17h1M18 17h1M24 17h1M9 18h1M12 18h1M19 18h3M24 18h1M10 19h1M12 19h1M22 19h2M12 20h1M22 21h1M21 22h1M19 23h2" />
<path stroke="rgba(32,28,45,0.8313725490196079)" d="M18 3h3M21 4h1M22 5h1M23 6h1M16 7h3M20 7h1M24 7h1M18 8h2M19 9h1M20 10h1M21 11h1M21 12h1M16 13h1M20 13h2M8 14h1M15 14h1M17 14h1M21 14h2M8 15h1M17 15h1M20 15h2M8 16h1M22 16h1M8 17h1M23 17h1M25 17h1M8 18h1M18 18h1M22 18h2M18 19h3M24 19h1M10 20h1M18 20h1M20 20h1M23 20h1M11 21h2M20 21h1M19 22h1" />
<path stroke="rgba(30,26,43,0.23137254901960785)" d="M17 4h1M16 5h1M20 5h1M16 6h1M19 6h1M22 7h1M21 8h3M14 9h4M21 9h1M23 9h1M18 10h1M22 10h1M24 10h1M11 11h2M16 11h1M19 11h1M22 11h1M24 11h1M10 12h2M17 12h1M20 12h1M22 12h1M24 12h1M10 13h1M17 13h1M24 13h1M9 14h1M23 14h2M24 15h1M18 16h1M19 17h3M9 19h1M21 19h1M11 20h1M22 20h1M20 22h1" />
</svg>