<svg xmlns="http://www.w3.org/2000/svg" viewBox="0 -0.5 30 45" shape-rendering="crispEdges">
<metadata>Made with Pixels to Svg https://codepen.io/shshaw/pen/XbxvNj</metadata>
<path stroke="rgba(31,28,43,0.5764705882352941)" d="M10 7h3M18 7h3M9 8h1M12 8h2M17 8h2M21 8h1M8 9h1M11 9h2M17 9h1M19 9h2M22 9h1M8 10h1M10 10h2M13 10h5M20 10h1M22 10h1M9 11h2M12 11h1M21 11h1M17 12h1M20 12h1M9 13h1M18 13h1M21 13h2M7 14h3M12 14h2M20 14h1M23 14h2M8 15h1M11 15h1M14 15h2M20 15h1M25 15h1M11 16h1M16 16h1M20 16h2M24 16h1M6 17h1M9 17h1M11 17h1M17 17h1M21 17h1M24 17h1M5 18h1M9 18h1M11 18h1M17 18h1M19 18h1M21 18h1M25 18h1M4 19h1M7 19h1M9 19h1M23 19h1M26 19h1M4 20h1M7 20h1M9 20h1M18 20h1M20 20h1M23 20h1M26 20h1M5 21h1M8 21h1M10 21h1M20 21h1M22 21h1M25 21h1M9 22h1M21 22h1M6 23h2M23 23h2M4 24h1M7 24h2M22 24h2M3 25h1M5 25h1M27 25h1M3 26h1M6 26h1M27 26h1M4 27h2M25 27h2M6 28h1M8 28h1M22 28h1M24 28h1M7 29h1M9 29h1M21 29h1M23 29h1M7 30h1M9 30h1M21 30h1M23 30h1M6 31h3M22 31h3" />
<path stroke="rgba(30,26,43,0.23137254901960785)" d="M11 8h1M19 8h1M10 9h1M18 9h1M13 11h1M15 11h2M18 11h1M20 11h1M11 12h2M14 12h1M16 12h1M19 12h1M12 13h1M14 13h1M17 13h1M15 14h1M18 14h1M21 14h2M6 15h1M9 15h1M16 15h1M21 15h2M24 15h1M7 16h1M9 16h1M17 16h1M23 16h1M8 17h1M18 17h2M22 17h1M7 18h2M18 18h1M22 18h2M10 19h1M8 20h1M10 20h1M22 20h1M6 21h2M9 21h1M21 21h1M23 21h2M7 22h2M22 22h2M8 23h2M21 23h2M5 24h1M25 24h1M5 26h1M25 26h1M6 27h1M24 27h1M7 28h1M23 28h1M8 29h1M22 29h1M8 30h1M22 30h1" />
<path stroke="rgba(32,28,45,0.8313725490196079)" d="M13 9h4M12 10h1M8 11h1M11 11h1M17 11h1M22 11h1M9 12h2M18 12h1M21 12h1M8 13h1M10 13h1M19 13h2M19 14h1M19 15h1M19 16h1M20 17h1M20 18h1M11 19h1M17 19h1M19 19h1M21 19h1M11 20h1M17 20h1M19 20h1M18 21h1M6 22h1M24 22h1M5 23h1M10 23h1M20 23h1M25 23h1M6 24h1M11 24h1M19 24h1M24 24h1M26 24h1M7 25h1M10 25h1M20 25h1M23 25h1M25 25h1M9 26h1M21 26h1M24 26h1M8 27h1M22 27h1" />
</svg>