<svg xmlns="http://www.w3.org/2000/svg" viewBox="0 -0.5 30 45" shape-rendering="crispEdges">
<metadata>Made with Pixels to Svg https://codepen.io/shshaw/pen/XbxvNj</metadata>
<path stroke="rgba(31,28,43,0.5764705882352941)" d="M13 8h4M12 9h1M17 9h1M11 10h1M10 11h1M9 12h1M9 13h1M8 14h1M15 14h1M8 15h1M11 15h1M16 15h1M10 16h1M20 16h1M10 17h1M17 17h1M20 17h1M10 18h1M17 18h1M11 19h1M17 19h1M12 20h1M17 20h1M19 20h1M11 21h1M16 21h1M20 21h1M10 22h1" />
<path stroke="rgba(32,28,45,0.8313725490196079)" d="M18 10h1M19 11h1M20 13h1M20 15h1" />
<path stroke="rgba(30,26,43,0.23137254901960785)" d="M11 13h1M14 13h2M11 14h4M16 14h1M10 15h1M15 15h1M9 16h1M17 16h1M10 19h1M11 20h1M10 21h1" />
</svg>