<svg xmlns="http://www.w3.org/2000/svg" viewBox="0 -0.5 30 45" shape-rendering="crispEdges">
<metadata>Made with Pixels to Svg https://codepen.io/shshaw/pen/XbxvNj</metadata>
<path stroke="rgba(32,28,45,0.8313725490196079)" d="M10 19h1M10 20h1M10 21h1M10 22h1M10 23h1M10 24h1M10 25h1M11 26h1M11 27h1M11 28h1M12 29h1M13 30h1M14 31h1M17 31h1M15 32h2" />
<path stroke="rgba(31,28,43,0.5764705882352941)" d="M11 19h11M11 20h11M11 21h5M21 21h1M11 22h4M21 22h1M11 23h3M21 23h1M11 24h2M21 24h1M11 25h2M21 25h1M12 26h1M20 26h1M12 27h1M20 27h1M12 28h1M19 28h1M13 29h1M19 29h1M14 30h1M18 30h1M15 31h2" />
<path stroke="rgba(30,26,43,0.23137254901960785)" d="M16 21h5M15 22h6M14 23h6M13 24h7M13 25h6M20 25h1M13 26h5M19 26h1M13 27h5M19 27h1M13 28h4M18 28h1M14 29h3M18 29h1M15 30h1M17 30h1" />
</svg>