<svg xmlns="http://www.w3.org/2000/svg" viewBox="0 -0.5 30 45" shape-rendering="crispEdges">

<path stroke="rgba(32,28,45,0.8313725490196079)" d="M12 8h2M16 8h3M11 9h1M19 9h1M10 10h1M20 10h1M9 11h1M20 11h1M8 12h1M21 12h1M8 13h1M21 13h1M8 14h1M12 14h1M14 14h1M21 14h1M8 15h1M10 15h3M14 15h2M19 15h1M9 16h1M19 16h1M9 17h1M19 17h1M9 18h1M19 18h1M9 19h1M11 19h1M17 19h1M19 19h1M9 20h1M11 20h2M16 20h1M18 20h1M9 21h1M11 21h1M16 21h1M18 21h1M8 22h1M10 22h1M15 22h1M17 22h1M8 23h1M10 23h1M15 23h1M17 23h1M9 24h2M16 24h1" />
<path stroke="rgba(31,28,43,0.5764705882352941)" d="M14 8h2M12 9h1M18 9h1M13 10h1M19 10h1M10 11h1M14 11h1M16 11h1M9 12h1M17 12h1M20 12h1M9 13h1M12 13h1M14 13h1M18 13h1M11 14h1M15 14h1M18 14h1M16 15h2M10 16h1M11 18h1M17 18h1M10 21h1" />
<path stroke="rgba(30,26,43,0.23137254901960785)" d="M13 9h1M16 9h2M12 10h1M15 10h1M18 10h1M11 11h1M13 11h1M19 11h1M10 12h1M12 12h1M14 12h1M11 13h1M15 13h1M9 14h1M16 14h1M20 14h1M9 15h1M13 15h1M18 15h1M20 15h1M11 16h1M17 16h1M10 17h1M10 20h1M17 20h1M17 21h1M9 23h1M16 23h1" />
</svg>