<svg xmlns="http://www.w3.org/2000/svg" viewBox="0 -0.5 30 45" shape-rendering="crispEdges">

<path stroke="rgba(30,26,43,0.23137254901960785)" d="M12 6h2M15 6h2M18 6h2M12 7h1M19 7h1M11 8h1M20 8h2M14 9h1M21 9h1M15 10h1M12 12h1M14 12h1M10 13h1M16 13h1M10 14h1M13 15h1M17 16h1M21 16h1M18 19h1" />
<path stroke="rgba(31,28,43,0.5764705882352941)" d="M14 7h4M13 8h1M18 8h1M12 9h1M19 9h1M13 10h2M16 10h2M20 10h1M12 11h1M14 11h2M18 11h1M11 12h1M15 12h2M19 12h1M12 13h1M17 13h1M13 14h1M20 14h1M10 15h3M14 15h2M17 15h1M19 15h1M21 15h1M18 16h1M20 16h1M19 17h1M18 18h1" />
<path stroke="rgba(32,28,45,0.8313725490196079)" d="M14 8h4M13 9h1M18 9h1M12 10h1M19 10h1M11 11h1M20 11h1M10 12h1M20 12h1M21 13h1M12 14h1M21 14h1M10 16h1M12 16h1M16 16h1M18 17h1" />
</svg>