<svg xmlns="http://www.w3.org/2000/svg" viewBox="0 -0.5 30 45" shape-rendering="crispEdges">

<path stroke="rgba(31,28,43,0.5764705882352941)" d="M21 15h1M22 19h1M19 20h1M20 21h1M21 22h1M22 24h1M21 25h1M18 26h1M21 26h1M17 27h1M21 27h1M19 28h3" />
<path stroke="rgba(32,28,45,0.8313725490196079)" d="M22 15h1M22 16h1M22 17h1M22 18h1M23 19h1M23 20h1M23 21h1M23 22h1M23 23h1M23 24h1M23 25h1M23 26h1M23 27h1M23 28h1M23 29h1M15 30h9" />
<path stroke="rgba(30,26,43,0.23137254901960785)" d="M21 16h1M20 20h1M22 20h1M21 21h1M19 23h1M22 23h1M18 27h1M17 28h1M18 29h1" />
</svg>