<svg xmlns="http://www.w3.org/2000/svg" viewBox="0 -0.5 30 45" shape-rendering="crispEdges">
<metadata>Made with Pixels to Svg https://codepen.io/shshaw/pen/XbxvNj</metadata>
<path stroke="rgba(31,28,43,0.5764705882352941)" d="M13 8h2M12 9h5M18 9h1M11 10h1M15 10h3M19 10h1M10 11h1M15 11h1M18 11h1M20 11h1M9 12h1M16 12h1M19 12h2M8 13h1M12 13h1M17 13h1M20 13h2M8 14h1M13 14h1M19 14h2M11 15h1M14 15h1M20 15h1M15 16h1M20 16h2M9 17h1M21 17h1M18 18h1M20 18h1M19 19h1" />
<path stroke="rgba(32,28,45,0.8313725490196079)" d="M15 8h2M17 9h1M18 10h1M12 14h1M12 15h2M11 16h2M16 16h1M10 17h1M17 17h4M19 18h1M11 19h1M18 19h1M12 20h1M18 20h1" />
<path stroke="rgba(30,26,43,0.23137254901960785)" d="M12 10h1M14 10h1M11 11h1M14 11h1M16 11h1M19 11h1M10 12h1M15 12h1M17 12h1M21 12h1M9 13h1M16 13h1M18 13h1M9 14h1M8 15h1M8 16h1M10 16h1M8 17h1M20 19h1M19 20h1" />
</svg>