<svg xmlns="http://www.w3.org/2000/svg" viewBox="0 -0.5 30 45" shape-rendering="crispEdges">
<metadata>Made with Pixels to Svg https://codepen.io/shshaw/pen/XbxvNj</metadata>
<path stroke="rgba(31,28,43,0.5764705882352941)" d="M13 9h1M15 10h3M14 11h1M18 11h1M15 12h1M12 13h1M14 13h1M17 13h1M19 13h1M16 14h1M12 15h1M19 15h1M19 16h1M19 17h1M20 18h1M10 19h1M18 19h1M11 20h1M19 20h2" />
<path stroke="rgba(32,28,45,0.8313725490196079)" d="M14 9h4M12 10h1M14 10h1M18 10h1M13 11h1M17 11h1M19 11h1M11 12h1M13 12h1M16 12h1M18 12h3M11 13h1M20 13h2M10 14h1M12 14h4M18 14h3M10 15h1M16 15h1M18 15h1M20 15h1M10 16h1M17 16h1M20 16h1M10 17h1M18 17h1M20 17h1M10 18h1M18 18h1M21 18h1M9 19h1M17 19h1M21 19h1M12 20h1M17 20h2" />
<path stroke="rgba(30,26,43,0.23137254901960785)" d="M13 15h3M19 19h1" />
</svg>