<svg xmlns="http://www.w3.org/2000/svg" viewBox="0 -0.5 30 45" shape-rendering="crispEdges">

<path stroke="rgba(30,26,43,0.23137254901960785)" d="M18 21h1M21 21h1M22 22h1M18 23h3M22 23h1M20 24h1M19 25h2M18 26h1M20 26h1M22 26h2M23 27h1M21 28h2" />
<path stroke="rgba(31,28,43,0.5764705882352941)" d="M20 21h1M21 22h1M22 24h1M17 27h2M23 28h1" />
<path stroke="rgba(32,28,45,0.8313725490196079)" d="M23 21h1M23 22h1M24 23h1M24 24h1M24 25h1M25 26h1M25 27h1M17 28h3M24 28h1M26 28h1M20 29h1M22 29h2M25 29h2" />
<path stroke="rgba(32,28,44,0.9725490196078431)" d="M21 29h1" />
</svg>