<svg xmlns="http://www.w3.org/2000/svg" viewBox="0 -0.5 30 45" shape-rendering="crispEdges">

<path stroke="rgba(30,26,43,0.23137254901960785)" d="M13 8h2M17 8h1M15 9h1M12 10h1M14 10h1M16 10h1M11 11h1M15 11h1M17 11h1M10 12h1M16 12h1M18 12h1M21 12h1M9 13h1M17 13h1M19 13h1M9 14h1M18 14h1M20 14h1M8 15h1M19 15h1M21 15h1M8 16h1M8 17h1M8 18h1M8 19h1M20 19h1M8 20h2M21 20h1M9 21h2" />
<path stroke="rgba(31,28,43,0.5764705882352941)" d="M15 8h2M12 9h3M17 9h1M11 10h1M15 10h1M18 10h1M10 11h1M16 11h1M19 11h1M9 12h1M17 12h1M20 12h1M8 13h1M12 13h1M18 13h1M21 13h1M8 14h1M13 14h1M19 14h1M11 15h1M14 15h1M20 15h1M15 16h1M20 16h2M10 17h1M17 17h1M21 17h1M10 18h1M17 18h1M20 18h1M10 19h1M17 19h1M11 20h1M16 20h1M8 21h1M11 21h1M16 21h1M20 21h2M9 22h2M17 22h3" />
<path stroke="rgba(32,28,45,0.8313725490196079)" d="M12 14h1M12 15h2M11 16h2M16 16h1M20 17h1M11 19h1M12 20h1" />
</svg>