<svg xmlns="http://www.w3.org/2000/svg" viewBox="0 -0.5 30 45" shape-rendering="crispEdges">
<metadata>Made with Pixels to Svg https://codepen.io/shshaw/pen/XbxvNj</metadata>
<path stroke="rgba(31,28,43,0.5764705882352941)" d="M12 8h6M11 9h1M18 9h1M10 10h1M19 10h1M9 11h1M20 11h1M9 12h1M12 12h1M16 12h1M19 12h1M8 13h1M11 13h1M17 13h1M20 13h1M10 14h1M21 14h1M9 15h1M14 15h1M17 15h1M20 15h1M9 16h1M13 16h1M17 16h1M9 17h1M13 17h1M17 17h1M9 18h1M12 18h1M17 18h2M10 19h1M12 19h1M17 19h3M12 20h1M17 20h1M19 20h1M10 21h1M17 21h1M11 22h1M17 22h1M9 23h1M11 23h1M17 23h1M10 24h2M17 24h2" />
<path stroke="rgba(30,26,43,0.23137254901960785)" d="M14 9h4M18 10h1M11 11h2M16 11h1M19 11h1M10 12h2M17 12h1M20 12h1M10 13h1M9 14h1M18 16h1M19 17h3M9 19h1M11 20h1M18 20h1M18 21h2M10 22h1M19 22h1M10 23h1" />
<path stroke="rgba(32,28,45,0.8313725490196079)" d="M19 9h1M20 10h1M21 11h1M21 12h1M16 13h1M21 13h1M8 14h1M15 14h1M17 14h1M22 14h1M8 15h1M21 15h1M8 16h1M22 16h1M8 17h1M18 17h1M23 17h1M8 18h1M19 18h4M8 19h1M20 19h1M9 20h2M20 20h1M9 21h1M11 21h2M20 21h1M9 22h1M20 22h1M19 23h1" />
</svg>