<svg xmlns="http://www.w3.org/2000/svg" viewBox="0 -0.5 30 45" shape-rendering="crispEdges">

<path stroke="rgba(32,28,45,0.8313725490196079)" d="M21 16h1M21 17h1M21 18h1M22 19h1M23 20h1M22 21h1M18 22h1M22 22h1M18 23h1M21 23h1M23 23h1M18 24h1M21 24h1M23 24h1M18 25h1M21 25h1M23 25h1M17 26h1M21 26h1M24 26h1M21 27h1M25 27h1M19 28h2M24 28h1M25 29h1M25 30h1M24 31h1M17 32h7" />
<path stroke="rgba(30,26,43,0.23137254901960785)" d="M20 19h1M19 20h1M21 20h1M20 21h1M21 22h1M19 23h1M22 24h1M19 25h2M18 26h1M20 26h1M17 27h1M23 27h1M17 28h1M18 29h1M23 29h1M24 30h1" />
<path stroke="rgba(31,28,43,0.5764705882352941)" d="M22 20h1M24 27h1M23 31h1" />
</svg>