<svg xmlns="http://www.w3.org/2000/svg" viewBox="0 -0.5 30 45" shape-rendering="crispEdges">

<path stroke="rgba(31,28,43,0.5764705882352941)" d="M15 6h4M14 7h1M19 7h1M14 8h1M19 8h1M12 9h6M20 9h1M11 10h1M13 10h1M18 10h1M20 10h1M10 11h1M14 11h1M16 11h1M19 11h2M9 12h1M17 12h1M20 12h1M9 13h1M18 13h1M20 13h1M12 14h1M14 14h1M18 14h1M12 15h1M15 15h1M19 15h1M16 16h1M17 17h1M20 18h1M18 19h1M20 19h1M18 20h2" />
<path stroke="rgba(30,26,43,0.23137254901960785)" d="M15 8h3M18 9h1M12 10h1M15 10h1M19 10h1M11 11h1M13 11h1M10 12h1M12 13h1M14 13h1M9 14h1M15 14h1M20 14h1M9 15h1M11 15h1M14 15h1M16 15h1M20 15h1M9 16h1M11 16h2M15 16h1M17 16h1M19 16h1M9 17h1M19 18h1M19 19h1" />
</svg>