<svg xmlns="http://www.w3.org/2000/svg" viewBox="0 -0.5 30 45" shape-rendering="crispEdges">
<metadata>Made with Pixels to Svg https://codepen.io/shshaw/pen/XbxvNj</metadata>
<path stroke="rgba(32,28,45,0.8313725490196079)" d="M12 10h2M16 10h3M11 11h1M10 12h1M20 12h1M9 13h1M21 13h1M9 14h1M21 14h1M9 15h1M21 15h1M9 16h1M11 16h1M19 16h1M9 17h1M11 17h1M19 17h1M9 18h1M11 18h1M19 18h1M9 19h1M11 19h1M19 19h1M9 20h1M11 20h1M17 20h1M19 20h1M9 21h1M11 21h2M17 21h1M9 22h1M11 22h1M17 22h1M9 23h1M17 23h1M9 24h1M17 24h1M10 25h1M18 25h1" />
<path stroke="rgba(31,28,43,0.5764705882352941)" d="M14 10h2M20 13h1M17 15h1M17 16h1M10 17h1M17 18h1M17 19h1M19 22h1M11 23h1M19 23h1M11 24h1M19 24h1" />
<path stroke="rgba(30,26,43,0.23137254901960785)" d="M12 11h2M15 11h3M19 12h1M18 14h1M10 15h1M12 15h1M15 15h1M19 15h2M10 16h1M13 16h4M18 16h1M20 16h1M15 17h3M10 18h1M18 18h1M10 20h1M10 23h1M18 23h1" />
<path stroke="rgba(33,28,44,0.6745098039215687)" d="M18 11h1" />
<path stroke="rgba(32,28,44,0.9294117647058824)" d="M19 11h1" />
</svg>