<svg xmlns="http://www.w3.org/2000/svg" viewBox="0 -0.5 30 45" shape-rendering="crispEdges">
<metadata>Made with Pixels to Svg https://codepen.io/shshaw/pen/XbxvNj</metadata>
<path stroke="rgba(32,28,45,0.8313725490196079)" d="M9 9h3M15 9h4M8 10h1M12 10h1M19 10h1M7 11h1M11 11h1M18 11h1M7 12h1M10 12h1M18 12h1M7 13h1M10 13h1M18 13h1M8 14h2M19 14h1M9 15h1M19 15h2M17 16h1M19 16h1M21 16h1M11 17h1M19 17h1M21 17h1M9 18h1M11 18h1M19 18h1M21 18h1M9 19h1M11 19h1M19 19h2M9 20h1M17 20h1M19 20h1M9 21h1M12 21h1M16 21h1M19 21h1M10 22h1M12 22h1M16 22h1M10 23h1M12 23h1M16 23h1M18 23h1M11 24h1M17 24h1" />
<path stroke="rgba(31,28,43,0.5764705882352941)" d="M14 9h1M20 9h3M11 10h1M13 10h1M16 10h3M23 10h1M10 11h1M12 11h1M19 11h1M21 11h1M24 11h1M8 12h1M11 12h1M20 12h1M22 12h1M24 12h1M9 13h1M19 13h1M21 13h1M24 13h1M10 14h1M20 14h1M23 14h1M11 15h1M13 15h1M16 15h2M21 15h2M9 16h1M11 16h1M9 17h1M17 17h1M17 18h1M20 18h1M17 19h1M11 20h1M18 22h1" />
<path stroke="rgba(30,26,43,0.23137254901960785)" d="M14 10h2M21 10h1M9 11h1M13 11h1M16 11h2M20 11h1M22 11h1M19 12h1M8 13h1M22 13h1M20 17h1" />
</svg>