<svg xmlns="http://www.w3.org/2000/svg" viewBox="0 -0.5 30 45" shape-rendering="crispEdges">

<path stroke="rgba(32,28,45,0.8313725490196079)" d="M12 9h5M11 10h1M17 10h1M10 11h1M18 11h1M9 12h1M19 12h1M9 13h1M20 13h1M8 14h1M8 15h1M11 15h6M18 15h1M20 15h1M9 16h2M17 16h1M19 16h1M10 17h1M18 17h1M20 17h1M10 18h1M18 18h2M11 19h1M17 19h2M12 20h1M16 20h2" />
<path stroke="rgba(30,26,43,0.23137254901960785)" d="M17 9h1M16 10h1M19 10h1M11 11h1M15 11h1M17 11h1M20 11h1M12 12h1M14 12h1M13 13h1M21 13h1M10 14h2M15 14h3M9 15h1M17 15h1M11 16h6M9 18h1M10 19h1" />
<path stroke="rgba(31,28,43,0.5764705882352941)" d="M18 10h1M19 11h1M18 12h1M20 12h1M19 13h1M20 14h1M10 15h1M19 15h1M21 15h1M20 16h1M19 17h1M20 18h1M19 19h1M11 20h1M18 20h1" />
</svg>