<svg xmlns="http://www.w3.org/2000/svg" viewBox="0 -0.5 30 45" shape-rendering="crispEdges">

<path stroke="#827348" d="M14 10h1M17 11h1M20 13h1M20 15h1M21 16h1" />
<path stroke="rgba(30,26,43,0.23137254901960785)" d="M15 11h2M13 12h2M18 12h1M12 13h1M15 13h1M19 13h1M13 14h1M17 14h1M12 15h2M19 15h1M9 16h1M11 16h2M14 16h3M20 16h1M10 17h1M19 18h1M18 19h1M12 20h1" />
<path stroke="rgba(31,28,43,0.5764705882352941)" d="M15 12h2M14 13h1M10 15h1M17 15h2M10 16h1M19 16h1M19 17h1" />
<path stroke="rgba(32,28,45,0.8313725490196079)" d="M14 14h1M18 18h1" />
</svg>