<svg xmlns="http://www.w3.org/2000/svg" viewBox="0 -0.5 30 45" shape-rendering="crispEdges">
<metadata>Made with Pixels to Svg https://codepen.io/shshaw/pen/XbxvNj</metadata>
<path stroke="rgba(249,242,197,0.30980392156862746)" d="M9 9h1M18 10h1M21 10h1M19 11h1M11 14h1M14 14h1M16 14h1M10 15h1M10 16h1M7 17h1M23 17h1M10 18h1M5 19h2M24 19h2M5 20h1M21 20h1M25 20h1M4 25h1M9 25h1M21 25h1M26 25h1M7 26h1M23 26h1" />
<path stroke="rgba(247,241,197,0.48627450980392156)" d="M19 10h1M13 13h1M17 15h1M10 17h1M6 18h1M24 18h1M8 26h1M22 26h1M7 27h1M23 27h1" />
</svg>