<svg xmlns="http://www.w3.org/2000/svg" viewBox="0 -0.5 30 45" shape-rendering="crispEdges">

<path stroke="rgba(32,28,45,0.8313725490196079)" d="M21 15h1M21 16h1M21 17h1M21 18h1M21 19h1M21 20h1M21 21h1M21 22h1M21 23h1M21 24h1M21 25h1M21 26h1M21 27h1M17 28h2M20 28h2" />
<path stroke="rgba(31,28,43,0.5764705882352941)" d="M19 20h1M18 26h1" />
<path stroke="rgba(30,26,43,0.23137254901960785)" d="M20 20h1M20 21h1M20 22h1M19 23h1M20 25h1M17 27h1" />
<path stroke="rgba(32,28,44,0.9725490196078431)" d="M19 28h1" />
</svg>