<svg xmlns="http://www.w3.org/2000/svg" viewBox="0 -0.5 30 45" shape-rendering="crispEdges">

<path stroke="rgba(32,28,45,0.8313725490196079)" d="M15 8h3M14 9h1M18 9h1M13 10h1M17 10h1M19 10h1M12 11h1M16 11h1M18 11h3M20 12h1M15 13h1M19 13h2M16 14h1M18 14h1M20 14h1M17 15h1M19 15h1M18 16h1M18 17h1" />
<path stroke="rgba(31,28,43,0.5764705882352941)" d="M15 9h3M14 10h1M18 10h1M13 11h1M15 11h1M11 12h1M17 12h1M19 12h1M14 13h1M16 13h1M18 13h1M12 14h1M19 14h1M19 16h1" />
<path stroke="rgba(30,26,43,0.23137254901960785)" d="M12 12h1M14 12h1M11 13h1M13 13h1M13 14h3" />
</svg>