<svg xmlns="http://www.w3.org/2000/svg" viewBox="0 -0.5 30 45" shape-rendering="crispEdges">

<path stroke="rgba(31,28,43,0.5764705882352941)" d="M13 7h2M12 8h5M18 8h1M11 9h1M15 9h3M19 9h1M10 10h1M15 10h1M18 10h1M20 10h1M9 11h1M16 11h1M19 11h2M8 12h1M12 12h1M17 12h1M20 12h2M8 13h1M13 13h1M19 13h2M11 14h1M14 14h1M20 14h1M15 15h1M20 15h2M9 16h1M21 16h1M18 17h1M20 17h1M19 18h1" />
<path stroke="rgba(32,28,45,0.8313725490196079)" d="M15 7h2M17 8h1M18 9h1M12 13h1M12 14h2M11 15h2M16 15h1M10 16h1M17 16h4M19 17h1M11 18h1M18 18h1M12 19h1M18 19h1" />
<path stroke="rgba(30,26,43,0.23137254901960785)" d="M12 9h1M14 9h1M11 10h1M14 10h1M16 10h1M19 10h1M10 11h1M15 11h1M17 11h1M21 11h1M9 12h1M16 12h1M18 12h1M9 13h1M8 14h1M8 15h1M10 15h1M8 16h1M20 18h1M19 19h1" />
</svg>