<svg xmlns="http://www.w3.org/2000/svg" viewBox="0 -0.5 30 45" shape-rendering="crispEdges">

<path stroke="rgba(32,28,45,0.8313725490196079)" d="M14 9h1M16 9h4M13 10h1M20 10h1M12 11h1M21 11h1M11 12h1M21 12h1M11 13h1M22 13h1M22 14h1M20 18h1M20 19h1M20 20h1" />
<path stroke="rgba(30,26,43,0.23137254901960785)" d="M15 9h1M19 10h1M20 11h1M16 12h3M12 13h1M15 13h2M19 13h1M18 14h1M20 14h1M18 15h1M20 15h1M18 16h1M20 16h1M11 18h1M19 22h1" />
<path stroke="rgba(31,28,43,0.5764705882352941)" d="M15 10h1M14 11h1M13 12h1M17 13h1M20 17h1M20 21h1" />
</svg>