<svg xmlns="http://www.w3.org/2000/svg" viewBox="0 -0.5 30 45" shape-rendering="crispEdges">
<metadata>Made with Pixels to Svg https://codepen.io/shshaw/pen/XbxvNj</metadata>
<path stroke="rgba(31,28,43,0.5764705882352941)" d="M13 8h1M15 9h3M14 10h1M18 10h1M15 11h1M12 12h1M14 12h1M17 12h1M19 12h1M16 13h1M12 14h1M19 14h1M19 15h1M19 16h1M20 17h1M10 18h1M18 18h1M11 19h1M19 19h2" />
<path stroke="rgba(32,28,45,0.8313725490196079)" d="M14 8h4M12 9h1M14 9h1M18 9h1M13 10h1M17 10h1M19 10h1M11 11h1M13 11h1M16 11h1M18 11h3M11 12h1M20 12h2M10 13h1M12 13h4M18 13h3M10 14h1M16 14h1M18 14h1M20 14h1M10 15h1M17 15h1M20 15h1M10 16h1M18 16h1M20 16h1M10 17h1M18 17h1M21 17h1M9 18h1M17 18h1M21 18h1M12 19h1M17 19h2" />
<path stroke="rgba(30,26,43,0.23137254901960785)" d="M13 14h3M19 18h1" />
</svg>