<svg xmlns="http://www.w3.org/2000/svg" viewBox="0 -0.5 30 45" shape-rendering="crispEdges">

<path stroke="rgba(32,28,45,0.8313725490196079)" d="M12 9h5M11 10h1M14 10h1M17 10h1M10 11h1M13 11h1M16 11h1M18 11h1M9 12h1M13 12h1M19 12h1M9 13h1M12 13h3M20 13h1M8 14h1M11 14h2M15 14h1M8 15h1M11 15h1M16 15h1M18 15h1M20 15h1M9 16h2M17 16h1M19 16h1M10 17h1M18 17h1M20 17h1M11 18h1M18 18h2M17 19h2M12 20h1M16 20h2" />
<path stroke="rgba(30,26,43,0.23137254901960785)" d="M12 10h2M15 10h1M11 11h1M14 11h1M10 12h1M10 14h1M13 14h2M17 14h1M19 14h1M9 15h1M12 15h1M15 15h1M17 15h1M9 18h1M10 19h1M11 20h1" />
<path stroke="rgba(31,28,43,0.5764705882352941)" d="M12 12h1M15 12h2M18 12h1M11 13h1M15 13h1M17 13h1M19 13h1M20 14h1M10 15h1M19 15h1M21 15h1M20 16h1M19 17h1M10 18h1M20 18h1M11 19h1M19 19h1M18 20h1" />
</svg>