<svg xmlns="http://www.w3.org/2000/svg" viewBox="0 -0.5 30 45" shape-rendering="crispEdges">

<path stroke="rgba(32,28,45,0.8313725490196079)" d="M14 7h4M13 8h1M18 8h1M12 9h1M19 9h1M11 10h1M20 10h1M20 11h1M12 13h1M12 15h1" />
<path stroke="rgba(31,28,43,0.5764705882352941)" d="M14 8h1M16 8h2M13 9h1M15 9h4M12 10h1M14 10h2M18 10h1M11 11h1M15 11h2M19 11h1M10 12h1M12 12h1M17 12h1M10 13h1M13 13h1M19 13h1M11 14h1M14 14h1M17 14h1M18 15h2M18 16h1" />
<path stroke="rgba(30,26,43,0.23137254901960785)" d="M15 8h1M14 9h1M19 10h1M12 11h1M14 11h1M16 12h1M18 13h1M13 14h1M15 14h1M18 17h1" />
</svg>