<svg xmlns="http://www.w3.org/2000/svg" viewBox="0 -0.5 30 45" shape-rendering="crispEdges">
<metadata>Made with Pixels to Svg https://codepen.io/shshaw/pen/XbxvNj</metadata>
<path stroke="rgba(31,28,43,0.5764705882352941)" d="M12 5h1M12 6h1M14 6h1M17 6h1M11 7h1M16 7h1M18 7h1M20 7h1M11 8h1M17 8h1M19 8h1M8 9h1M12 9h1M16 9h1M20 9h1M9 10h1M12 10h1M16 10h1M22 10h1M8 11h1M13 11h1M18 11h1M21 11h1M7 12h1M9 12h1M14 12h1M17 12h1M21 12h2M8 13h2M12 13h1M14 13h1M16 13h1M20 13h1M10 14h2M15 14h1M19 14h1M16 15h1M18 15h1" />
<path stroke="rgba(30,26,43,0.23137254901960785)" d="M13 6h1M15 7h1M17 7h1M10 8h1M16 8h1M20 8h1M9 9h1M11 9h1M13 9h1M17 9h1M19 9h1M11 10h1M13 10h1M17 10h2M20 10h2M12 11h1M14 11h1M16 11h2M8 12h1M13 12h1M16 12h1M20 12h1M10 13h2M15 13h1M17 13h1M19 13h1M18 14h1" />
<path stroke="rgba(32,28,45,0.8313725490196079)" d="M23 12h1M21 13h2M9 14h1M17 14h1M20 14h2M9 15h3M19 15h3M10 16h2M18 16h3M11 17h1M19 17h1M18 18h1" />
</svg>