<svg xmlns="http://www.w3.org/2000/svg" viewBox="0 -0.5 30 45" shape-rendering="crispEdges">
<metadata>Made with Pixels to Svg https://codepen.io/shshaw/pen/XbxvNj</metadata>
<path stroke="rgba(30,26,43,0.23137254901960785)" d="M13 7h2M12 8h1M16 8h2M11 9h1M18 9h3M14 10h1M12 11h1M14 11h1M17 11h1M21 11h1M11 12h1M13 12h1M16 12h1M20 12h1M11 13h1M15 13h1M17 13h1M19 13h1M10 14h1M17 14h1M17 15h1M18 20h1M15 23h1" />
<path stroke="rgba(31,28,43,0.5764705882352941)" d="M15 7h3M18 8h2M21 9h1M9 10h2M20 10h1M10 11h1M13 11h1M9 12h1M12 12h1M17 12h1M22 12h1M9 13h1M12 13h1M16 13h1M20 13h2M8 14h1M12 14h1M14 14h2M19 14h2M11 15h3M18 15h1M17 16h1M18 19h1M17 20h1M19 20h1M16 21h1M18 21h1M18 22h1M15 24h2" />
<path stroke="rgba(32,28,45,0.8313725490196079)" d="M11 14h1M21 14h2M9 15h2M20 15h2M10 16h2M19 16h2M11 17h1M18 17h2M18 18h2M17 19h1M19 19h1M16 22h1M17 23h1" />
</svg>