<svg xmlns="http://www.w3.org/2000/svg" viewBox="0 -0.5 30 45" shape-rendering="crispEdges">

<path stroke="rgba(32,28,45,0.8313725490196079)" d="M11 8h3M17 8h3M12 9h1M20 9h1M10 10h1M21 10h1M10 11h1M21 11h1M9 12h1M22 12h1M8 13h1M15 13h1M23 13h1M9 14h1M12 14h1M14 14h3M22 14h1M8 15h1M10 15h2M17 15h1M20 15h1M9 16h1M20 16h1M9 17h2M19 17h2M9 18h1M20 18h1M10 19h1M12 19h1M17 19h1M19 19h1M10 20h1M12 20h1M17 20h1M19 20h1M10 21h1M12 21h1M17 21h1M19 21h1M9 22h1M16 22h1M15 23h1" />
<path stroke="rgba(31,28,43,0.5764705882352941)" d="M14 8h3M10 9h2M19 9h1M13 10h1M20 10h1M15 11h1M17 11h1M18 12h1M21 12h1M9 13h1M12 13h1M14 13h1M16 13h1M19 13h1M22 13h1M11 14h1M13 14h1M17 14h1M19 14h1M21 14h1M18 15h1M10 16h1M19 16h1M11 18h1M18 18h1M11 22h1M18 22h1M10 23h1M17 23h1" />
<path stroke="rgba(30,26,43,0.23137254901960785)" d="M13 9h2M17 9h2M12 10h1M15 10h2M19 10h1M11 11h1M13 11h2M18 11h1M20 11h1M10 12h1M12 12h1M11 13h1M21 13h1M9 15h1M13 15h1M19 15h1M11 16h1M18 16h1M11 20h1M18 20h1M9 23h1M16 23h1" />
</svg>