<svg xmlns="http://www.w3.org/2000/svg" viewBox="0 -0.5 30 45" shape-rendering="crispEdges">
<metadata>Made with Pixels to Svg https://codepen.io/shshaw/pen/XbxvNj</metadata>
<path stroke="rgba(31,28,43,0.5764705882352941)" d="M12 8h7M11 9h1M13 9h1M19 9h1M10 10h1M20 10h1M10 11h1M21 11h1M9 12h1M13 12h1M21 12h1M12 13h1M14 13h3M21 13h1M11 14h1M21 14h1M10 15h1M19 15h1M22 15h1M10 16h1M19 16h1M21 16h1M10 17h1M17 17h1M19 17h1M17 21h1M16 22h1M10 23h1M15 23h1M11 24h4" />
<path stroke="rgba(30,26,43,0.23137254901960785)" d="M12 9h1M14 9h5M13 10h1M19 10h1M20 11h1M12 12h1M14 12h3M20 12h1M11 13h1M17 13h1M20 13h1M18 14h1M21 15h1M11 17h1M18 17h1M11 18h2M15 18h4M11 19h1M15 19h1M18 19h1M11 20h2M17 20h1M11 21h1M16 21h1M11 22h1M15 22h1M13 23h2" />
<path stroke="rgba(32,28,45,0.8313725490196079)" d="M9 13h1M9 14h1M9 15h1M9 16h1M18 16h1M9 17h1M10 18h1M19 18h1M10 19h1M19 19h1M10 20h1M18 20h1" />
</svg>