<svg xmlns="http://www.w3.org/2000/svg" viewBox="0 -0.5 30 45" shape-rendering="crispEdges">

<path stroke="rgba(31,28,43,0.5764705882352941)" d="M15 5h4M14 6h1M19 6h1M14 7h1M19 7h1M12 8h6M20 8h1M11 9h1M13 9h1M18 9h1M20 9h1M10 10h1M14 10h1M16 10h1M19 10h2M9 11h1M17 11h1M20 11h1M9 12h1M18 12h1M20 12h1M12 13h1M14 13h1M18 13h1M12 14h1M15 14h1M19 14h1M16 15h1M17 16h1M20 17h1M18 18h1M20 18h1M18 19h2" />
<path stroke="rgba(30,26,43,0.23137254901960785)" d="M15 7h3M18 8h1M12 9h1M15 9h1M19 9h1M11 10h1M13 10h1M10 11h1M12 12h1M14 12h1M9 13h1M15 13h1M20 13h1M9 14h1M11 14h1M14 14h1M16 14h1M20 14h1M9 15h1M11 15h2M15 15h1M17 15h1M19 15h1M9 16h1M19 17h1M19 18h1" />
</svg>