<svg xmlns="http://www.w3.org/2000/svg" viewBox="0 -0.5 30 45" shape-rendering="crispEdges">
<metadata>Made with Pixels to Svg https://codepen.io/shshaw/pen/XbxvNj</metadata>
<path stroke="rgba(30,26,43,0.23137254901960785)" d="M11 17h10M11 18h10M11 19h9M11 20h9M12 21h7M12 22h6M13 23h4M14 24h1" />
<path stroke="rgba(31,28,43,0.5764705882352941)" d="M21 17h1M20 19h1M20 20h1M11 21h1M19 21h2M11 22h1M18 22h3M11 23h2M17 23h4M11 24h3M15 24h5M12 25h8M13 26h6M14 27h3" />
<path stroke="rgba(32,28,45,0.8313725490196079)" d="M21 18h1M21 19h1M21 20h1M21 21h1M21 22h1M21 23h1M20 24h1M20 25h1M12 26h1M19 26h1M13 27h1M17 27h2M14 28h3" />
</svg>