<svg xmlns="http://www.w3.org/2000/svg" viewBox="0 -0.5 30 45" shape-rendering="crispEdges">

<path stroke="rgba(32,28,45,0.8313725490196079)" d="M22 15h1M22 16h1M22 17h1M23 18h1M24 19h1M23 20h1M19 21h1M23 21h1M19 22h1M22 22h1M24 22h1M19 23h1M22 23h1M24 23h1M19 24h1M22 24h1M24 24h1M18 25h1M22 25h1M25 25h1M22 26h1M26 26h1M20 27h2M25 27h1M26 28h1M26 29h1M25 30h1M24 31h1" />
<path stroke="rgba(30,26,43,0.23137254901960785)" d="M21 18h1M20 19h1M22 19h1M21 20h1M22 21h1M20 22h1M23 23h1M20 24h2M19 25h1M21 25h1M18 26h1M24 26h1M18 27h1M19 28h1M24 28h1M25 29h1" />
<path stroke="rgba(31,28,43,0.5764705882352941)" d="M23 19h1M25 26h1M24 30h1" />
</svg>