<svg xmlns="http://www.w3.org/2000/svg" viewBox="0 -0.5 30 45" shape-rendering="crispEdges">

<path stroke="#827348" d="M14 9h1M17 10h1M20 12h1M20 14h1M21 15h1" />
<path stroke="rgba(30,26,43,0.23137254901960785)" d="M15 10h2M13 11h2M18 11h1M12 12h1M15 12h1M19 12h1M13 13h1M17 13h1M12 14h2M19 14h1M9 15h1M11 15h2M14 15h3M20 15h1M10 16h1M19 17h1M18 18h1" />
<path stroke="rgba(31,28,43,0.5764705882352941)" d="M15 11h2M14 12h1M10 14h1M17 14h2M10 15h1M19 15h1M19 16h1" />
<path stroke="rgba(32,28,45,0.8313725490196079)" d="M14 13h1M18 17h1" />
</svg>