<svg xmlns="http://www.w3.org/2000/svg" viewBox="0 -0.5 30 45" shape-rendering="crispEdges">
<metadata>Made with Pixels to Svg https://codepen.io/shshaw/pen/XbxvNj</metadata>
<path stroke="rgba(31,28,43,0.5764705882352941)" d="M15 7h2M13 8h2M17 8h1M20 8h1M12 9h1M16 9h1M19 9h1M12 10h1M21 10h1M12 11h1M16 11h2M20 11h1M12 12h1M14 12h5M21 12h1M13 13h1M18 13h2M22 13h1M20 14h2M20 15h1M18 16h1M12 18h1" />
<path stroke="rgba(30,26,43,0.23137254901960785)" d="M15 8h1M18 8h2M13 9h1M18 10h1M20 10h1M14 11h2M18 11h2M13 12h1M19 12h1M20 13h2M18 17h1M15 19h2" />
<path stroke="rgba(32,28,45,0.8313725490196079)" d="M11 11h1M11 12h1M12 13h1M14 13h1M17 13h1M13 14h1M18 14h1M21 15h1M20 16h1M19 17h1" />
</svg>