<svg xmlns="http://www.w3.org/2000/svg" viewBox="0 -0.5 30 45" shape-rendering="crispEdges">

<path stroke="rgba(32,28,45,0.8313725490196079)" d="M14 7h4M13 8h1M18 8h1M12 9h1M19 9h1M11 10h1M20 10h1M10 11h1M20 11h1M21 12h1M12 13h1M21 13h1M10 15h1M12 15h1M16 15h1M18 16h1" />
<path stroke="rgba(30,26,43,0.23137254901960785)" d="M14 8h1M15 9h1M12 11h1M14 11h1M10 12h1M16 12h1M10 13h1M13 14h1M17 15h1M21 15h1M18 18h1" />
<path stroke="rgba(31,28,43,0.5764705882352941)" d="M13 9h2M16 9h2M12 10h1M14 10h2M18 10h1M11 11h1M15 11h2M19 11h1M12 12h1M17 12h1M13 13h1M20 13h1M10 14h3M14 14h2M17 14h1M19 14h1M21 14h1M18 15h1M20 15h1M19 16h1M18 17h1" />
</svg>