<svg xmlns="http://www.w3.org/2000/svg" viewBox="0 -0.5 30 45" shape-rendering="crispEdges">

<path stroke="rgba(32,28,45,0.8313725490196079)" d="M21 12h1M21 15h1M22 16h1M19 17h1M19 18h1M20 19h1M21 20h1M22 21h1M22 22h1M23 23h1M23 25h1" />
<path stroke="rgba(31,28,43,0.5764705882352941)" d="M22 13h1M23 14h1M24 15h1M23 17h1M20 18h1M21 19h1M22 20h1M24 24h1" />
<path stroke="rgba(30,26,43,0.23137254901960785)" d="M24 16h1M20 17h1M11 18h1M24 18h1M10 19h1M9 22h1M23 22h1M9 24h1M23 24h1M24 26h1" />
</svg>