<svg xmlns="http://www.w3.org/2000/svg" viewBox="0 -0.5 30 45" shape-rendering="crispEdges">

<path stroke="rgba(32,28,45,0.8313725490196079)" d="M13 9h7M12 10h1M20 10h1M11 11h1M21 11h1M10 12h1M21 12h1M9 13h1M22 13h1M9 14h1M22 14h1M9 15h1M12 15h1M10 16h1M12 16h1M10 17h1M12 17h1M10 18h1M12 18h1M20 18h1M10 19h1M12 19h1M18 19h1M20 19h1M10 20h1M12 20h2M18 20h1M20 20h1M10 21h1M12 21h1M18 21h1M10 22h1M18 22h1M10 23h1M18 23h1M11 24h1M19 24h1" />
<path stroke="rgba(31,28,43,0.5764705882352941)" d="M15 10h1M14 11h1M13 12h1M11 16h1M18 17h1M20 17h1M18 18h1M20 21h1M12 22h1M20 22h1M12 23h1M20 23h1" />
<path stroke="rgba(30,26,43,0.23137254901960785)" d="M19 10h1M20 11h1M16 12h3M15 13h1M19 13h1M13 14h1M20 14h1M14 15h3M20 15h1M16 16h2M20 16h1M11 17h1M11 22h1M19 22h1M11 23h1M19 23h1" />
<path stroke="rgba(33,28,44,0.6745098039215687)" d="M12 13h1" />
</svg>