<svg xmlns="http://www.w3.org/2000/svg" viewBox="0 -0.5 30 45" shape-rendering="crispEdges">

<path stroke="rgba(30,26,43,0.23137254901960785)" d="M12 10h1M14 10h2M17 10h1M12 11h2M18 11h1M19 12h1M18 13h1M20 13h1M11 14h1M13 14h3M20 15h1M18 18h1M20 18h1M11 19h1M16 19h1M19 19h1" />
<path stroke="rgba(31,28,43,0.5764705882352941)" d="M11 12h1M15 12h1M12 13h1M14 13h1M16 13h1M10 14h1M12 14h1M17 14h1M19 14h1M11 15h1M18 15h1M20 16h1M19 17h1M10 18h2M17 18h1M12 19h1M18 19h1" />
<path stroke="rgba(32,28,45,0.8313725490196079)" d="M19 13h1M19 15h1M11 16h1" />
</svg>