<svg xmlns="http://www.w3.org/2000/svg" viewBox="0 -0.5 59 45" shape-rendering="crispEdges">
<metadata>Made with Pixels to Svg https://codepen.io/shshaw/pen/XbxvNj</metadata>
<path stroke="rgba(31,28,43,0.5764705882352941)" d="M18 10h2M28 10h2M18 11h1M20 11h1M27 11h1M29 11h1M18 12h1M21 12h1M26 12h1M29 12h1M18 13h1M20 13h1M27 13h1M29 13h1M19 14h1M28 14h1" />
<path stroke="rgba(255,246,212,0.4470588235294118)" d="M19 11h1M28 11h1M19 12h1M28 12h1" />
<path stroke="rgba(255,234,184,0.23921568627450981)" d="M20 12h1M27 12h1M19 13h1M28 13h1" />
</svg>