<svg xmlns="http://www.w3.org/2000/svg" viewBox="0 -0.5 59 45" shape-rendering="crispEdges">
<metadata>Made with Pixels to Svg https://codepen.io/shshaw/pen/XbxvNj</metadata>
<path stroke="rgba(255,234,184,0.23921568627450981)" d="M17 11h2M27 11h3M16 12h1M19 12h1M26 12h1M30 12h1M16 13h1M25 13h1M31 13h1M16 14h1M31 14h1M16 15h1M31 15h1M16 16h1M30 16h1M17 17h1M29 17h1" />
<path stroke="rgba(31,28,43,0.5764705882352941)" d="M28 12h1M18 13h1M27 13h1M29 13h1M17 14h1M19 14h1M26 14h1M30 14h1M17 15h1" />
</svg>