<svg xmlns="http://www.w3.org/2000/svg" viewBox="0 -0.5 59 45" shape-rendering="crispEdges">
<metadata>Made with Pixels to Svg https://codepen.io/shshaw/pen/XbxvNj</metadata>
<path stroke="rgba(255,234,184,0.23921568627450981)" d="M19 4h1M26 4h1M19 5h1M26 5h1M19 6h1M26 6h1M20 7h1M25 7h1M17 8h1M20 8h1M25 8h1M29 8h1M20 9h1M25 9h1M18 10h1M28 10h1M27 12h1" />
<path stroke="rgba(31,28,43,0.5764705882352941)" d="M17 10h1M19 10h1M26 10h1M29 10h1M17 11h1M19 11h1M26 11h1M29 11h1M18 12h2M26 12h1M28 12h1M18 13h2M26 13h1M28 13h1M19 14h2M25 14h1M27 14h1" />
</svg>