<svg xmlns="http://www.w3.org/2000/svg" viewBox="0 -0.5 59 45" shape-rendering="crispEdges">
<metadata>Made with Pixels to Svg https://codepen.io/shshaw/pen/XbxvNj</metadata>
<path stroke="rgba(255,234,184,0.23921568627450981)" d="M32 9h1M14 10h1M17 10h2M26 10h3M33 10h1M14 11h1M16 11h1M19 11h1M25 11h1M29 11h1M33 11h1M15 12h1M20 12h1M24 12h1M30 12h3" />
<path stroke="rgba(31,28,43,0.5764705882352941)" d="M27 11h1M32 11h1M17 12h2M26 12h3M16 13h1M18 13h2M25 13h2M29 13h2M32 13h1M19 14h2M25 14h1" />
</svg>