<svg xmlns="http://www.w3.org/2000/svg" viewBox="0 -0.5 30 45" shape-rendering="crispEdges">
<metadata>Made with Pixels to Svg https://codepen.io/shshaw/pen/XbxvNj</metadata>
<path stroke="#0d081c" d="M11 19h1M11 20h2" />
<path stroke="#0e081c" d="M18 19h2M10 20h1M17 20h4M10 21h1M16 21h5M16 22h5M17 23h4M18 24h3M18 25h2M17 26h3M13 27h1M18 27h2M19 28h1" />
<path stroke="#190f32" d="M11 21h2M14 21h2M10 22h1M12 22h1M14 22h1M11 23h1M15 23h1M10 24h1M12 24h1M14 24h1M16 24h1M11 25h1M15 25h1M17 25h1M12 26h1M14 26h1M16 26h1M17 27h1" />
<path stroke="#352a51" d="M13 21h1M11 22h1M13 22h1M15 22h1M10 23h1M12 23h1M14 23h1M16 23h1M11 24h1M15 24h1M17 24h1M12 25h1M14 25h1M16 25h1M11 26h1M15 26h1" />
<path stroke="#5b4c7e" d="M13 23h1M13 24h1M13 25h1M13 26h1M11 27h2M14 27h3" />
<path stroke="#140303" d="M11 28h1M17 28h2M11 29h3M18 29h2" />
<path stroke="#350b0b" d="M12 28h5M14 29h4" />
<path stroke="#535353" d="M11 30h1M14 31h1M16 31h1M11 32h1M17 32h1M19 32h1M10 33h1M14 33h1M18 33h1" />
<path stroke="#322d2d" d="M12 30h1M16 30h1M10 31h1M15 31h1M20 32h1M11 33h1M13 33h1M19 33h1M10 34h1" />
<path stroke="#424242" d="M13 30h1M15 30h1M19 30h1M18 31h1M13 32h1M15 32h1M13 34h1M15 34h1M17 34h1M19 34h1M14 35h1" />
<path stroke="#282828" d="M14 30h1M18 30h1M11 31h1M13 31h1M17 31h1M19 31h1M10 32h1M12 32h1M14 32h1M16 32h1M18 32h1M9 33h1M15 33h1M17 33h1M14 34h1M16 34h1M15 35h1" />
<path stroke="#604e4e" d="M17 30h1M12 31h1M20 31h1M9 32h1M12 33h1M16 33h1" />
</svg>