<svg xmlns="http://www.w3.org/2000/svg" viewBox="0 -0.5 30 45" shape-rendering="crispEdges">
<metadata>Made with Pixels to Svg https://codepen.io/shshaw/pen/XbxvNj</metadata>
<path stroke="#350b0b" d="M12 30h8M11 31h1M20 31h1M11 32h1M20 32h1M11 33h1M11 34h1M10 35h1M22 36h1M22 37h1M22 38h1M12 39h1M22 39h1M10 40h1M13 40h1M10 41h1M16 41h1M20 41h1M17 42h1M19 42h1M18 43h1" />
<path stroke="#140303" d="M12 31h8M12 32h8M12 33h9M12 34h10M11 35h11M10 36h12M10 37h12M10 38h12M10 39h2M13 39h9M11 40h1M14 40h9M14 41h2M17 41h3M22 41h1M15 42h1M18 42h1" />
</svg>