<svg xmlns="http://www.w3.org/2000/svg" viewBox="0 -0.5 30 45" shape-rendering="crispEdges">
<metadata>Made with Pixels to Svg https://codepen.io/shshaw/pen/XbxvNj</metadata>
<path stroke="#5b4c7e" d="M22 18h1M21 19h2M22 20h1" />
<path stroke="#190f32" d="M18 19h2M18 20h1M23 20h1M18 21h2M23 21h1M19 22h2M20 23h3" />
<path stroke="#352a51" d="M20 19h1M19 20h3M20 21h3M21 22h2" />
<path stroke="#0e081c" d="M23 22h1M19 23h1M23 23h1M20 24h3" />
<path stroke="#282828" d="M19 24h1M20 25h1M22 25h1M19 26h1M21 26h1" />
<path stroke="#424242" d="M19 25h1" />
<path stroke="#604e4e" d="M21 25h1M23 26h1" />
<path stroke="#535353" d="M20 26h1M22 26h1" />
</svg>