<svg xmlns="http://www.w3.org/2000/svg" viewBox="0 -0.5 30 45" shape-rendering="crispEdges">
<metadata>Made with Pixels to Svg https://codepen.io/shshaw/pen/XbxvNj</metadata>
<path stroke="#5b4c7e" d="M8 18h1M8 19h1M9 20h1" />
<path stroke="#352a51" d="M9 19h2M10 20h1M9 21h2M9 22h1" />
<path stroke="#0e081c" d="M11 19h2M12 20h1M12 21h1M11 22h2M10 23h3M9 24h3" />
<path stroke="#190f32" d="M11 20h1M11 21h1M10 22h1M9 23h1" />
<path stroke="#424242" d="M12 24h1M12 26h1" />
<path stroke="#322d2d" d="M10 25h1M12 25h1M11 26h1" />
<path stroke="#535353" d="M11 25h1M9 26h1" />
<path stroke="#604e4e" d="M10 26h1" />
</svg>