<svg xmlns="http://www.w3.org/2000/svg" viewBox="0 -0.5 30 45" shape-rendering="crispEdges">
<metadata>Made with Pixels to Svg https://codepen.io/shshaw/pen/XbxvNj</metadata>
<path stroke="#443d58" d="M20 37h1M18 38h1M20 39h1M20 40h1M19 41h1" />
<path stroke="#242030" d="M21 37h1M21 39h1M21 40h1M21 42h1" />
<path stroke="#1e1a28" d="M17 38h1M18 40h1M18 41h1" />
<path stroke="#580202" d="M19 38h1M17 39h2M18 42h2" />
<path stroke="#7e0803" d="M20 38h1M21 41h1M20 42h1" />
<path stroke="#9d0700" d="M21 38h1" />
<path stroke="#504665" d="M19 39h1M19 40h1M20 41h1" />
</svg>