<svg xmlns="http://www.w3.org/2000/svg" viewBox="0 -0.5 30 45" shape-rendering="crispEdges">
<metadata>Made with Pixels to Svg https://codepen.io/shshaw/pen/XbxvNj</metadata>
<path stroke="#1e1a28" d="M10 31h1M10 32h1M15 32h1M10 33h1M15 33h1M10 34h1M15 34h1M14 35h2M10 36h1M15 36h1M10 37h1" />
<path stroke="#443d58" d="M11 31h1M11 34h1M13 35h1M11 37h1M13 37h1" />
<path stroke="#242030" d="M12 31h3M12 32h3M12 33h3M12 34h3M12 35h1M12 37h1M14 37h1" />
<path stroke="#504665" d="M11 32h1M11 33h1" />
<path stroke="#7e0803" d="M10 35h1M14 36h1" />
<path stroke="#580202" d="M11 35h1M11 36h3" />
</svg>