<svg xmlns="http://www.w3.org/2000/svg" viewBox="0 -0.5 30 45" shape-rendering="crispEdges">
<metadata>Made with Pixels to Svg https://codepen.io/shshaw/pen/XbxvNj</metadata>
<path stroke="#443d58" d="M16 31h4M16 32h1M19 32h1M16 33h2M19 33h2M16 34h1M19 34h1M16 35h1M17 36h1M17 37h2M20 37h1" />
<path stroke="#242030" d="M15 32h1M20 32h1M15 33h1M15 34h1M20 34h1M15 35h1M20 36h1M21 37h1" />
<path stroke="#504665" d="M17 32h2M18 33h1M17 34h2M18 36h2M19 37h1" />
<path stroke="#580202" d="M17 35h1M16 36h1" />
<path stroke="#7e0803" d="M18 35h2" />
<path stroke="#9d0700" d="M20 35h1" />
<path stroke="#1e1a28" d="M15 36h1M16 37h1" />
</svg>