<svg xmlns="http://www.w3.org/2000/svg" viewBox="0 -0.5 30 45" shape-rendering="crispEdges">
<metadata>Made with Pixels to Svg https://codepen.io/shshaw/pen/XbxvNj</metadata>
<path stroke="#1e1a28" d="M18 18h1M17 19h1M13 20h3M18 23h2M18 24h2M18 25h2M18 26h2M18 27h2M11 28h1M16 28h1M18 28h2M15 29h1M17 29h3M19 30h1M14 34h1M14 35h1" />
<path stroke="#242030" d="M11 19h1M18 19h1M10 20h1M12 20h1M16 20h1M10 21h1M13 21h2M10 22h1M18 22h1M10 23h1M20 23h1M10 24h1M20 24h1M11 25h1M13 25h1M17 25h1M11 26h7M12 27h1M14 27h1M15 28h1M12 29h1M14 29h1M11 32h4M12 33h3M13 34h1M15 34h1" />
<path stroke="#504665" d="M19 19h1M11 20h1M17 20h4M19 21h2M11 22h2M14 22h3M11 23h2M14 23h4M12 24h1M14 24h3M16 32h2M17 33h1" />
<path stroke="#443d58" d="M11 21h2M15 21h4M13 22h1M17 22h1M19 22h1M21 22h1M13 23h1M11 24h1M13 24h1M17 24h1M12 25h1M14 25h3M13 27h1M13 29h1M15 32h1M18 32h1M15 33h2" />
<path stroke="#9d0700" d="M21 21h1M14 30h1" />
<path stroke="#7e0803" d="M20 22h1M11 27h1M16 27h1M13 28h1M17 28h1M11 29h1M11 30h1M13 30h1M15 30h1M17 30h1M10 31h1M12 31h1M14 31h1M16 31h1M18 31h1" />
<path stroke="#580202" d="M15 27h1M17 27h1M12 28h1M14 28h1M16 29h1M12 30h1M16 30h1M18 30h1M11 31h1M13 31h1M15 31h1M17 31h1M19 31h1" />
</svg>