<svg xmlns="http://www.w3.org/2000/svg" viewBox="0 -0.5 30 45" shape-rendering="crispEdges">
<metadata>Made with Pixels to Svg https://codepen.io/shshaw/pen/XbxvNj</metadata>
<path stroke="#e1cd8a" d="M9 18h1M8 19h1M10 19h2M8 20h1M12 20h1" />
<path stroke="#715f2f" d="M9 19h1M9 20h1M11 20h1M9 21h1M12 21h1M8 22h1M10 22h2M9 23h1M9 24h1" />
<path stroke="#b5a87c" d="M12 19h1M10 20h1M8 21h1M10 21h2M9 22h1M10 23h1" />
<path stroke="#575546" d="M12 22h1M11 23h1M10 24h1M10 25h1M10 26h1M10 27h1" />
<path stroke="#979381" d="M12 23h1M11 24h2M11 25h2M11 26h2M11 27h2M11 28h1" />
</svg>