<svg xmlns="http://www.w3.org/2000/svg" viewBox="0 -0.5 30 45" shape-rendering="crispEdges">
<metadata>Made with Pixels to Svg https://codepen.io/shshaw/pen/XbxvNj</metadata>
<path stroke="#575546" d="M19 18h1M18 19h1M18 20h1M19 23h1M20 24h1M24 24h1M20 25h1M23 25h1M20 26h1M23 26h1M20 27h1" />
<path stroke="#e1cd8a" d="M21 18h1M20 19h2M20 20h1M23 20h1M20 21h1M24 22h1M23 27h1" />
<path stroke="#3f3e34" d="M19 19h1M19 24h1M19 25h1M19 26h1M19 27h1" />
<path stroke="#715f2f" d="M22 19h1M22 20h1M22 21h1M24 21h1M21 22h1M23 22h1M20 23h1M22 23h2M21 24h1" />
<path stroke="#979381" d="M19 20h1M18 21h2M19 22h1" />
<path stroke="#b5a87c" d="M21 20h1M21 21h1M23 21h1M20 22h1M22 22h1M21 23h1M24 23h1M22 24h2" />
<path stroke="#a8a592" d="M21 25h2M21 26h2M21 27h2" />
</svg>