<svg xmlns="http://www.w3.org/2000/svg" viewBox="0 -0.5 30 45" shape-rendering="crispEdges">
<metadata>Made with Pixels to Svg https://codepen.io/shshaw/pen/XbxvNj</metadata>
<path stroke="#575546" d="M10 32h4M12 33h2M12 34h2M10 35h1M13 35h1M12 36h1" />
<path stroke="#3f3e34" d="M9 33h1M14 33h1M9 34h1M14 34h1M9 35h1M14 35h1" />
<path stroke="#979381" d="M10 33h2M10 34h2M11 35h2M13 36h1" />
<path stroke="#5b4c24" d="M9 36h1M14 36h1M9 37h1M13 37h2" />
<path stroke="#715f2f" d="M10 36h2M10 37h1M12 37h1" />
<path stroke="#b5a87c" d="M11 37h1" />
</svg>