<svg xmlns="http://www.w3.org/2000/svg" viewBox="0 -0.5 30 45" shape-rendering="crispEdges">
<metadata>Made with Pixels to Svg https://codepen.io/shshaw/pen/XbxvNj</metadata>
<path stroke="#3f3e34" d="M20 26h1M19 27h2M19 28h1M19 29h2M19 30h1M19 31h2M20 32h1M20 33h1" />
<path stroke="#575546" d="M21 26h1M23 26h1M21 27h1M24 28h1M21 29h1M24 29h1M20 30h2M24 30h1M24 31h1M23 32h1M21 33h2" />
<path stroke="#a8a592" d="M22 26h1M22 27h1M23 28h1M23 29h1M23 30h1M23 31h1M22 32h1" />
<path stroke="#e1cd8a" d="M23 27h1" />
<path stroke="#715f2f" d="M20 28h1" />
<path stroke="#b5a87c" d="M21 28h2" />
<path stroke="#979381" d="M22 29h1M22 30h1M21 31h2M21 32h1" />
</svg>