<svg xmlns="http://www.w3.org/2000/svg" viewBox="0 -0.5 30 45" shape-rendering="crispEdges">
<metadata>Made with Pixels to Svg https://codepen.io/shshaw/pen/XbxvNj</metadata>
<path stroke="#575546" d="M15 31h1M15 34h1M20 34h1M15 35h1M19 35h1M16 36h1" />
<path stroke="#979381" d="M16 31h3M15 32h3M15 33h2M16 34h1M16 35h2M17 36h1" />
<path stroke="#3f3e34" d="M19 31h1M14 32h1M20 32h1M14 33h1M20 33h1M14 34h1M14 35h1M15 36h1M16 37h1" />
<path stroke="#a8a592" d="M18 32h2M17 33h3M17 34h3M18 35h1" />
<path stroke="#715f2f" d="M20 35h1M18 36h2M21 36h1M17 37h1M21 37h1" />
<path stroke="#e1cd8a" d="M20 36h1M18 37h3" />
</svg>