<svg xmlns="http://www.w3.org/2000/svg" viewBox="0 -0.5 30 45" shape-rendering="crispEdges">
<metadata>Made with Pixels to Svg https://codepen.io/shshaw/pen/XbxvNj</metadata>
<path stroke="#575546" d="M19 18h1M17 20h2M14 21h2M13 22h1M13 23h1M19 23h1M10 24h1M13 24h1M18 24h1M20 24h1M12 25h3M17 25h2M17 26h2M17 27h1M17 28h1M17 29h1" />
<path stroke="#3f3e34" d="M10 19h1M19 19h2M11 20h1M16 20h1M12 21h2M19 24h1M11 25h1M15 25h2M19 25h2M19 26h2M18 27h2M18 28h2M18 29h2" />
<path stroke="#979381" d="M10 20h1M19 20h2M10 21h2M16 21h5M10 22h1M12 22h1M14 22h1M19 22h2M10 23h1M18 23h1M20 23h1M11 24h1M16 24h2M12 26h2M16 26h1M15 27h2M12 28h2M15 28h2M15 29h2M12 30h2M15 30h1" />
<path stroke="#a8a592" d="M11 22h1M15 22h4M11 23h2M14 23h4M12 24h1M14 24h2M11 26h1M14 26h2M11 27h4M11 28h1M14 28h1M11 29h4M11 30h1M14 30h1" />
<path stroke="#5b4c24" d="M10 30h1M16 30h4M11 31h5M20 31h1M20 32h1M16 33h1M20 33h1M11 34h1M15 34h1M20 34h1M12 35h3" />
<path stroke="#e1cd8a" d="M10 31h1M18 31h2M10 32h1M12 32h3M19 32h1M12 33h2M12 34h2" />
<path stroke="#715f2f" d="M16 31h1M16 32h1M11 33h1M15 33h1M17 33h1M18 34h1M10 35h1M19 35h2" />
<path stroke="#b5a87c" d="M17 31h1M11 32h1M15 32h1M17 32h2M10 33h1M14 33h1M18 33h2M10 34h1M14 34h1M19 34h1" />
</svg>