<svg xmlns="http://www.w3.org/2000/svg" viewBox="0 -0.5 30 45" shape-rendering="crispEdges">
<metadata>Made with Pixels to Svg https://codepen.io/shshaw/pen/XbxvNj</metadata>
<path stroke="#6a7b9f" d="M11 19h1M10 20h1M18 20h2M10 21h1M17 21h1M10 22h1M16 22h1M10 23h1M15 23h1M11 24h1M14 24h1M12 25h2M12 26h1M13 27h1M13 28h1M13 29h1M13 30h1" />
<path stroke="#17151e" d="M12 19h1M19 19h1M20 20h1M11 22h1M19 22h1M11 23h1M18 23h1M20 23h1M17 24h1M18 26h1M18 27h1M18 28h1M17 29h1M16 30h1M12 33h3M14 34h2" />
<path stroke="#1a1823" d="M18 19h1M11 20h1M17 20h1M11 21h1M16 21h1M19 21h1M15 22h1M18 22h1M20 22h1M14 23h1M12 24h2M11 25h1M14 25h2M13 26h1M16 26h2M16 27h2M16 28h2M15 29h2M15 30h1M15 33h2M16 34h1" />
<path stroke="#242130" d="M18 21h1M20 21h1M17 22h1M16 23h2M15 24h2M14 26h2M12 27h1M14 27h2M12 28h1M14 28h2M12 29h1M14 29h1M12 30h1M14 30h1M17 33h1" />
<path stroke="#0c0b0f" d="M19 23h1M10 24h1M18 24h3M16 25h4M11 26h1M19 26h1M11 27h1M19 27h1M11 28h1M19 28h1M11 29h1M18 29h2M11 30h1M17 30h3M13 34h1M14 35h1" />
<path stroke="#2b1a07" d="M10 31h2M16 31h1M19 31h1" />
<path stroke="#4c2f0e" d="M12 31h4" />
<path stroke="#231606" d="M17 31h2M10 32h10" />
</svg>