<svg xmlns="http://www.w3.org/2000/svg" viewBox="0 -0.5 30 45" shape-rendering="crispEdges">
<metadata>Made with Pixels to Svg https://codepen.io/shshaw/pen/XbxvNj</metadata>
<path stroke="#0c0b0f" d="M11 19h1M10 20h1M10 21h1M10 22h1M10 23h1M19 23h1M10 24h1M19 24h2M10 25h1M19 25h2M19 26h2M19 27h2M19 28h2" />
<path stroke="#17151e" d="M12 19h1M19 19h1M20 20h1M21 21h1M19 22h1M22 22h1M20 23h1M22 23h1M23 24h1M21 25h1M23 25h1M9 26h2M21 26h1M23 26h1M9 27h2M21 27h1M23 27h1M21 28h1M23 28h2" />
<path stroke="#1a1823" d="M11 20h2M11 21h2M19 21h1M11 22h2M20 22h1M11 23h1M11 24h1M21 24h1M11 25h1M11 26h1M11 27h1M11 28h1" />
<path stroke="#6a7b9f" d="M19 20h1M19 29h6" />
<path stroke="#242130" d="M20 21h1M21 22h1M12 23h1M21 23h1M12 24h1M22 24h1M12 25h1M22 25h1M12 26h1M22 26h1M12 27h1M22 27h1M22 28h1" />
</svg>