<svg xmlns="http://www.w3.org/2000/svg" viewBox="0 -0.5 30 45" shape-rendering="crispEdges">
<metadata>Made with Pixels to Svg https://codepen.io/shshaw/pen/XbxvNj</metadata>
<path stroke="#231606" d="M10 32h5M13 36h1M14 37h1" />
<path stroke="#0c0b0f" d="M10 33h1M14 33h1M10 34h1M14 34h1M10 35h1" />
<path stroke="#1a1823" d="M11 33h1M11 34h1M11 35h1" />
<path stroke="#17151e" d="M12 33h2M12 34h2M12 35h1" />
<path stroke="#191004" d="M13 35h1M14 36h1M11 37h1M15 37h1" />
<path stroke="#0f0a02" d="M14 35h1" />
<path stroke="#5d3910" d="M10 36h2M12 37h1" />
<path stroke="#2b1a07" d="M12 36h1M13 37h1" />
<path stroke="#4c2f0e" d="M10 37h1" />
</svg>