<svg xmlns="http://www.w3.org/2000/svg" viewBox="0 -0.5 30 45" shape-rendering="crispEdges">
<metadata>Made with Pixels to Svg https://codepen.io/shshaw/pen/XbxvNj</metadata>
<path stroke="#1a1823" d="M18 19h1M19 21h1M18 22h1M20 22h1M21 24h1" />
<path stroke="#17151e" d="M19 19h1M20 20h1M21 21h1M19 22h1M22 22h1M20 23h1M22 23h1M23 24h1M21 25h1M23 25h1M21 26h1M23 26h1M21 27h1M23 27h1" />
<path stroke="#6a7b9f" d="M18 20h2" />
<path stroke="#242130" d="M18 21h1M20 21h1M21 22h1M21 23h1M22 24h1M22 25h1M22 26h1M22 27h1" />
<path stroke="#0c0b0f" d="M19 23h1M19 24h2M19 25h2M19 26h2M19 27h2" />
</svg>