<svg xmlns="http://www.w3.org/2000/svg" viewBox="0 -0.5 30 45" shape-rendering="crispEdges">
<metadata>Made with Pixels to Svg https://codepen.io/shshaw/pen/XbxvNj</metadata>
<path stroke="#1a1823" d="M15 31h4M14 32h4M16 33h1M18 33h1M18 34h2" />
<path stroke="#17151e" d="M19 31h1M18 32h3M15 33h1M19 33h2M15 34h2M20 34h1" />
<path stroke="#0c0b0f" d="M14 33h1M14 34h1" />
<path stroke="#242130" d="M17 33h1M17 34h1" />
<path stroke="#0f0a02" d="M14 35h1M15 36h1" />
<path stroke="#191004" d="M15 35h1M16 36h1M19 36h2M16 37h1M19 37h2" />
<path stroke="#231606" d="M16 35h1M18 36h1M18 37h1" />
<path stroke="#2b1a07" d="M17 35h1" />
<path stroke="#4c2f0e" d="M18 35h2M17 36h1M17 37h1" />
<path stroke="#5d3910" d="M20 35h1M21 36h1M21 37h1" />
</svg>