<svg xmlns="http://www.w3.org/2000/svg" viewBox="0 -0.5 30 45" shape-rendering="crispEdges">
<metadata>Made with Pixels to Svg https://codepen.io/shshaw/pen/XbxvNj</metadata>
<path stroke="rgba(31,28,43,0.5764705882352941)" d="M18 18h1M11 19h9M10 20h1M13 20h3M20 20h1M10 21h1M10 22h1M10 23h1M10 24h1M13 24h1M11 25h1M19 25h1M11 26h1M18 26h1M11 27h1M11 28h1M13 28h1M18 28h1M11 29h1M17 29h1M11 30h1M16 30h3M10 31h1M16 31h3" />
<path stroke="rgba(30,26,43,0.23137254901960785)" d="M12 20h1M16 20h2M13 21h1M13 22h1M18 22h1M13 23h1M18 23h1M11 24h2M14 24h6M12 25h3M17 25h2M12 26h2M17 26h1M13 27h1M17 27h2M12 28h1M16 28h2M13 29h1M16 29h1M13 30h1M15 30h1M11 31h1M13 31h1M15 31h1" />
<path stroke="rgba(32,28,45,0.8313725490196079)" d="M19 26h1M19 27h1M19 28h1M18 29h2M19 30h1M19 31h1" />
</svg>