<svg xmlns="http://www.w3.org/2000/svg" viewBox="0 -0.5 30 45" shape-rendering="crispEdges">
<metadata>Made with Pixels to Svg https://codepen.io/shshaw/pen/XbxvNj</metadata>
<path stroke="rgba(31,28,43,0.5764705882352941)" d="M21 37h1M15 38h1M17 38h1M21 38h1M15 39h1M17 39h1M21 39h1M12 40h1M15 40h1M18 40h1M21 40h1M12 41h1M15 41h1M18 41h1M21 41h1M12 42h1M14 42h1M18 42h1M21 42h1M11 43h1M14 43h1M19 43h1M22 43h1M10 44h1M14 44h1M19 44h1M23 44h1" />
<path stroke="rgba(30,26,43,0.23137254901960785)" d="M18 39h1M20 39h1M14 40h1M19 40h1M14 41h1M19 41h1M19 42h1M12 43h1M11 44h2M20 44h1" />
</svg>