<svg xmlns="http://www.w3.org/2000/svg" viewBox="0 -0.5 30 45" shape-rendering="crispEdges">
<metadata>Made with Pixels to Svg https://codepen.io/shshaw/pen/XbxvNj</metadata>
<path stroke="rgba(30,26,43,0.23137254901960785)" d="M13 10h5M12 11h1M18 11h1M11 12h1M19 12h1M11 13h1M18 13h2M17 14h2M17 15h2M17 16h2M17 17h1M16 18h1" />
<path stroke="rgba(31,28,43,0.5764705882352941)" d="M11 14h1M19 14h1M11 15h1M11 16h1M19 16h1M11 17h1M12 18h1M13 19h2" />
<path stroke="rgba(32,28,45,0.8313725490196079)" d="M18 17h1M17 18h1M15 19h2" />
</svg>