<svg xmlns="http://www.w3.org/2000/svg" viewBox="0 -0.5 30 45" shape-rendering="crispEdges">
<metadata>Made with Pixels to Svg https://codepen.io/shshaw/pen/XbxvNj</metadata>
<path stroke="#3f651a" d="M10 22h1M21 22h1M10 23h1M21 23h1M10 24h1M21 24h1M10 25h1M21 25h1M10 26h1M21 26h1M10 27h1M21 27h1M10 28h1M21 28h1M10 29h1M21 29h1M10 30h1M21 30h1M10 31h1M21 31h1M10 32h1M21 32h1M10 33h1M21 33h1M10 34h1M21 34h1M10 35h1M10 36h1M10 37h1M20 37h1M10 38h1M20 38h1M20 39h1M20 40h1M11 41h10" />
<path stroke="#273f0f" d="M11 22h10M11 23h10M11 24h10M11 25h10M11 26h10M11 27h10M11 28h9M11 29h9M11 30h9M11 31h9M11 32h9M11 33h9M11 34h9M11 35h9M11 36h9M11 37h8M11 38h8M11 39h8" />
<path stroke="#325115" d="M20 28h1M20 29h1M20 30h1M20 31h1M20 32h1M20 33h1M20 34h1M20 35h1M20 36h1M19 37h1M19 38h1M19 39h1M11 40h9" />
<path stroke="#6f9533" d="M21 35h1M21 36h1M21 37h1M21 38h1M10 39h1M21 39h1M10 40h1M21 40h1M10 41h1M21 41h1M10 42h12" />
</svg>