<svg xmlns="http://www.w3.org/2000/svg" viewBox="0 -0.5 30 45" shape-rendering="crispEdges">
<metadata>Made with Pixels to Svg https://codepen.io/shshaw/pen/XbxvNj</metadata>
<path stroke="#6f9533" d="M12 20h2M18 20h2M11 21h1M14 21h1M17 21h1M20 21h1M10 22h1M12 22h1M19 22h1M13 23h6M10 29h1M16 29h1M11 30h1M14 30h2M11 31h1M14 31h1M11 32h1M14 32h1M12 33h2M12 34h2M12 35h2" />
<path stroke="#3f651a" d="M14 20h4M12 21h1M15 21h2M19 21h1M11 22h1M13 22h1M18 22h1M20 22h2M12 23h1M19 23h1M17 29h1M10 30h1M16 30h1M15 31h1M15 32h1M14 33h1M14 34h1M14 35h1" />
<path stroke="#a5c573" d="M13 21h1M18 21h1M14 22h2M12 30h2" />
<path stroke="#8db155" d="M16 22h2M12 31h2M12 32h2" />
<path stroke="#472a12" d="M11 24h1M16 24h1M12 25h1M14 25h3" />
<path stroke="#321c0a" d="M17 24h1M11 25h1M13 25h1M17 25h1M12 26h1M14 26h2" />
<path stroke="#1e1106" d="M18 25h1M11 26h1M13 26h1M16 26h2" />
<path stroke="#16707b" d="M11 27h1M15 27h1M11 28h1M15 28h1M11 29h1M14 29h1" />
<path stroke="#2494a2" d="M12 27h3M12 28h3M12 29h2" />
<path stroke="#115a62" d="M16 27h1M16 28h1M15 29h1" />
</svg>