<svg xmlns="http://www.w3.org/2000/svg" viewBox="0 -0.5 30 45" shape-rendering="crispEdges">
<metadata>Made with Pixels to Svg https://codepen.io/shshaw/pen/XbxvNj</metadata>
<path stroke="#16707b" d="M16 29h2M14 30h4M13 31h3M14 32h2M15 33h2M16 34h1M16 35h2M16 36h2M17 37h1" />
<path stroke="#002432" d="M18 29h1M18 30h1M18 31h1M18 32h1M19 33h1M19 34h1M19 35h1M19 36h1M19 37h1" />
<path stroke="#2494a2" d="M16 31h2M16 32h2M17 33h2M17 34h2M18 35h1M18 36h1M18 37h1" />
<path stroke="#115a62" d="M13 32h1M14 33h1M15 34h1M15 35h1" />
<path stroke="#001219" d="M13 33h1M14 34h1M15 36h1M16 37h1" />
</svg>