<svg xmlns="http://www.w3.org/2000/svg" viewBox="0 -0.5 30 45" shape-rendering="crispEdges">
<metadata>Made with Pixels to Svg https://codepen.io/shshaw/pen/XbxvNj</metadata>
<path stroke="#001219" d="M10 30h1M9 31h2M9 32h1M9 33h1M9 34h1M9 35h1M10 36h1M10 37h1" />
<path stroke="#115a62" d="M11 30h3M11 31h3M11 32h3M11 33h3M11 34h2M11 35h2M12 36h1M11 37h2" />
<path stroke="#16707b" d="M10 32h1M10 33h1M10 34h1M13 34h1M10 35h1M13 35h1M11 36h1M13 36h1" />
<path stroke="#2494a2" d="M13 37h1" />
</svg>