<svg xmlns="http://www.w3.org/2000/svg" viewBox="0 -0.5 30 45" shape-rendering="crispEdges">
<metadata>Made with Pixels to Svg https://codepen.io/shshaw/pen/XbxvNj</metadata>
<path stroke="#896d5f" d="M10 19h1M9 20h1" />
<path stroke="#614e48" d="M11 19h1M10 20h1M12 20h1M8 21h1M13 21h1M8 22h1M13 22h1M9 23h1M13 23h1M10 24h3" />
<path stroke="#cca69b" d="M8 20h1" />
<path stroke="#555058" d="M11 20h1M10 21h3M10 22h3M10 23h3" />
<path stroke="#8a929b" d="M9 21h1M11 25h1" />
<path stroke="#7c838b" d="M9 22h1M10 26h1M9 28h1" />
<path stroke="#221820" d="M13 24h1M10 25h1M13 25h1M9 26h1M12 26h2M9 27h1M11 27h2M8 28h1M10 28h2" />
<path stroke="#60656b" d="M12 25h1M11 26h1M10 27h1M12 28h1" />
</svg>