<svg xmlns="http://www.w3.org/2000/svg" viewBox="0 -0.5 30 45" shape-rendering="crispEdges">
<metadata>Made with Pixels to Svg https://codepen.io/shshaw/pen/XbxvNj</metadata>
<path stroke="#120d11" d="M10 30h1M9 31h1M9 32h1" />
<path stroke="#60656b" d="M11 30h3M10 31h4M10 32h4M10 33h4M11 34h3M11 35h2M13 36h1M11 37h3" />
<path stroke="#221820" d="M14 32h1M9 33h1M14 33h1M9 34h1M14 34h1M9 35h1M14 35h1M10 36h1M14 36h1M10 37h1M14 37h1" />
<path stroke="#7c838b" d="M10 34h1M10 35h1" />
<path stroke="#614e48" d="M13 35h1M11 36h2" />
</svg>