<svg xmlns="http://www.w3.org/2000/svg" viewBox="0 -0.5 100 150" shape-rendering="crispEdges">
<metadata>Made with Pixels to Svg https://codepen.io/shshaw/pen/XbxvNj</metadata>
<path stroke="#896d5f" d="M60 63h3M70 63h3M60 64h3M70 64h3M60 65h3M70 65h3M60 66h3M70 66h3M57 67h3M77 67h3M57 68h3M77 68h3M57 69h3M77 69h3M57 70h3M77 70h3M57 71h3M77 71h3M57 72h3M77 72h3M57 73h3M57 74h3M57 75h3M57 76h3M70 83h3M70 84h3M70 85h3M70 86h3M67 93h3M67 94h3M67 95h3M67 96h3" />
<path stroke="#cca69b" d="M63 63h7M63 64h7M63 65h7M63 66h7M73 67h4M73 68h4M73 69h4M73 80h4M73 81h4M73 82h4M70 93h3M70 94h3M70 95h3M70 96h3" />
<path stroke="#8a929b" d="M60 67h10M60 68h10M60 69h10M63 70h10M63 71h10M63 72h10M67 73h3M67 74h3M67 75h3M67 76h3M70 80h3M70 81h3M70 82h3" />
<path stroke="#7c838b" d="M70 67h3M70 68h3M70 69h3M60 70h3M73 70h4M60 71h3M73 71h4M60 72h3M73 72h4M60 73h7M70 73h3M60 74h7M70 74h3M60 75h7M70 75h3M60 76h7M70 76h3M63 77h7M63 78h7M63 79h7M63 83h7M63 84h7M63 85h7M63 86h7M70 87h3M70 88h3M70 89h3M67 90h6M67 91h6M67 92h6" />
<path stroke="#614e48" d="M73 73h4M73 74h4M73 75h4M73 76h4M57 77h3M70 77h3M57 78h3M70 78h3M57 79h3M70 79h3M60 80h7M60 81h7M60 82h7M67 87h3M67 88h3M67 89h3" />
<path stroke="#60656b" d="M60 77h3M60 78h3M60 79h3" />
<path stroke="#221820" d="M73 77h4M73 78h4M73 79h4M67 80h3M67 81h3M67 82h3M73 83h4M73 84h4M73 85h4M73 86h4M73 87h4M73 88h4M73 89h4M73 90h4M73 91h4M73 92h4M73 93h4M73 94h4M73 95h4M73 96h4" />
<path stroke="#120d11" d="M60 83h3M60 84h3M60 85h3M60 86h3M63 87h4M63 88h4M63 89h4M63 90h4M63 91h4M63 92h4M63 93h4M63 94h4M63 95h4M63 96h4" />
</svg>