<svg xmlns="http://www.w3.org/2000/svg" viewBox="0 -0.5 100 150" shape-rendering="crispEdges">
<metadata>Made with Pixels to Svg https://codepen.io/shshaw/pen/XbxvNj</metadata>
<path stroke="#120d11" d="M63 93h4M63 94h4M63 95h4M63 96h4M63 97h4M63 98h4M63 99h4M63 100h4M63 101h4M63 102h4M60 103h3M60 104h3M60 105h3M60 106h3M60 107h7M60 108h7M60 109h7M60 110h3M60 111h3M60 112h3M60 113h3M60 114h3M60 115h3M60 116h3" />
<path stroke="#896d5f" d="M67 93h3M67 94h3M67 95h3M67 96h3" />
<path stroke="#cca69b" d="M70 93h3M70 94h3M70 95h3M70 96h3" />
<path stroke="#221820" d="M73 93h4M73 94h4M73 95h4M73 96h4M73 97h4M73 98h4M73 99h4M73 100h4M73 101h4M73 102h4M73 103h4M73 104h4M73 105h4M73 106h4M73 107h4M73 108h4M73 109h4M70 110h3M70 111h3M70 112h3M63 113h7M63 114h7M63 115h7M63 116h7" />
<path stroke="#60656b" d="M67 97h3M67 98h3M67 99h3M63 103h4M63 104h4M63 105h4M63 106h4M63 110h4M63 111h4M63 112h4" />
<path stroke="#7c838b" d="M70 97h3M70 98h3M70 99h3M67 100h3M67 101h3M67 102h3M67 103h3M67 104h3M67 105h3M67 106h3M67 107h3M67 108h3M67 109h3" />
<path stroke="#8a929b" d="M70 100h3M70 101h3M70 102h3M70 103h3M70 104h3M70 105h3M70 106h3M70 107h3M70 108h3M70 109h3M67 110h3M67 111h3M67 112h3" />
</svg>