<svg xmlns="http://www.w3.org/2000/svg" viewBox="0 -0.5 30 45" shape-rendering="crispEdges">
<metadata>Made with Pixels to Svg https://codepen.io/shshaw/pen/XbxvNj</metadata>
<path stroke="#60656b" d="M16 29h2M14 30h4M13 31h6M14 32h3M14 33h2M15 34h1M16 35h1M16 36h1M18 37h2" />
<path stroke="#221820" d="M18 30h1M19 31h1M19 32h1M20 33h1M20 34h1M20 35h1M20 36h1M21 37h1" />
<path stroke="#302623" d="M13 32h1M13 33h1M14 34h1M15 35h1M15 36h1M16 37h1" />
<path stroke="#8a929b" d="M17 32h2M17 33h3M18 34h2M19 35h1" />
<path stroke="#7c838b" d="M20 32h1M16 33h1M16 34h2M17 35h2M17 36h1" />
<path stroke="#896d5f" d="M18 36h1M17 37h1" />
<path stroke="#cca69b" d="M19 36h1M20 37h1" />
</svg>