<svg xmlns="http://www.w3.org/2000/svg" viewBox="0 -0.5 30 45" shape-rendering="crispEdges">
<metadata>Made with Pixels to Svg https://codepen.io/shshaw/pen/XbxvNj</metadata>
<path stroke="#221820" d="M9 26h1M11 26h1M9 27h1M11 27h1M8 28h1M10 28h2M7 29h1M11 29h1M6 30h1M9 30h1M6 31h1M6 32h1M8 32h1" />
<path stroke="#7c838b" d="M10 26h1M9 28h1M8 30h1M7 31h1" />
<path stroke="#60656b" d="M10 27h1M9 29h1M8 31h1M7 32h1" />
<path stroke="#8a929b" d="M8 29h1M7 30h1" />
<path stroke="#120d11" d="M10 29h1M10 30h1M9 31h2M9 32h1M7 33h2" />
</svg>