<svg xmlns="http://www.w3.org/2000/svg" viewBox="0 -0.5 30 45" shape-rendering="crispEdges">
<metadata>Made with Pixels to Svg https://codepen.io/shshaw/pen/XbxvNj</metadata>
<path stroke="#302623" d="M17 19h1M12 20h1M16 20h1M10 31h1M17 31h1M15 32h1M15 33h1M15 34h1M15 35h1M15 36h1M14 37h2M14 38h1M14 39h1M12 40h2" />
<path stroke="#614e48" d="M17 20h1M18 21h1M17 23h1M17 24h1M13 26h1M12 27h1M17 27h1M13 28h1M12 29h1M17 29h1M11 31h1M16 31h1M12 32h3M12 34h3M12 36h3M13 38h1" />
<path stroke="#221820" d="M11 21h2M14 21h3M10 22h1M13 22h1M10 23h1M10 24h1M10 25h1M18 25h1M18 26h1M11 27h1M18 27h1M11 28h1M18 28h1M11 29h1M18 29h1M11 30h1M17 30h1M10 32h1" />
<path stroke="#896d5f" d="M17 21h1M12 22h1M14 22h2M17 22h1M13 25h1M11 26h1M16 26h1M14 27h1M16 27h1M14 29h1M16 29h1M12 31h1M14 31h2M11 33h1M11 35h1M12 37h1M12 39h1" />
<path stroke="#cca69b" d="M11 22h1M16 22h1M13 23h1M13 24h1M12 26h1M14 26h2M15 28h1M15 30h1M13 31h1M12 33h3M12 35h3M13 37h1M13 39h1" />
<path stroke="#60656b" d="M18 22h2M18 23h2M18 24h2M17 25h1M17 26h1M13 27h1M12 28h1M16 28h2M13 29h1M13 30h1" />
<path stroke="#7c838b" d="M11 23h2M14 23h3M12 24h1M15 24h2M16 25h1M15 27h1M15 29h1M12 30h1" />
<path stroke="#8a929b" d="M11 24h1M14 24h1M11 25h2M14 25h2M14 28h1M14 30h1" />
<path stroke="#555058" d="M16 30h1" />
<path stroke="#4b3d39" d="M11 32h1M11 34h1M11 36h1M11 37h1M12 38h1" />
</svg>