<svg xmlns="http://www.w3.org/2000/svg" viewBox="0 -0.5 30 45" shape-rendering="crispEdges">
<metadata>Made with Pixels to Svg https://codepen.io/shshaw/pen/XbxvNj</metadata>
<path stroke="#957211" d="M16 29h1M15 30h3M15 31h3M15 32h2M15 33h1" />
<path stroke="#564106" d="M17 29h1M18 30h1M13 31h1M18 31h1M13 32h1M18 32h1M13 33h1M19 33h1M13 34h1M19 34h1M14 35h1M19 35h1M15 36h1M18 36h2M16 37h2" />
<path stroke="#c29d35" d="M14 30h1M14 31h1M14 32h1M14 33h1M16 33h1M14 34h3M15 35h1" />
<path stroke="#f0cb64" d="M17 32h1M17 33h2M17 34h2M16 35h3M16 36h2" />
</svg>