<svg xmlns="http://www.w3.org/2000/svg" viewBox="0 -0.5 30 45" shape-rendering="crispEdges">
<metadata>Made with Pixels to Svg https://codepen.io/shshaw/pen/XbxvNj</metadata>
<path stroke="#44250d" d="M17 19h1M11 20h2M16 20h1M18 20h1M10 21h1M13 21h3M17 21h1M19 21h1M16 22h1M18 22h1" />
<path stroke="#5d3a1d" d="M18 19h1M19 20h1M20 21h1" />
<path stroke="#2d1704" d="M17 20h1M11 21h2M16 21h1M18 21h1M10 22h1M17 22h1M19 22h1M18 23h1" />
<path stroke="#120a03" d="M11 22h5M10 23h1M16 23h2M18 24h1" />
<path stroke="#f2da98" d="M11 23h1M12 24h1M14 24h2" />
<path stroke="#f0cb64" d="M12 23h4M13 24h1M16 24h1" />
<path stroke="#745809" d="M10 24h1M10 25h1M17 25h1M11 26h1M16 26h1M11 27h1M15 27h1M11 28h1M15 28h1M11 29h1M14 29h1" />
<path stroke="#c29d35" d="M11 24h1M17 24h1M12 25h1M14 25h3M12 27h3M12 28h3M12 29h2M18 30h1M12 33h3" />
<path stroke="#957211" d="M11 25h1M13 25h1M12 26h4" />
<path stroke="#564106" d="M18 25h1M17 26h1M16 27h1M16 28h1M15 29h1" />
<path stroke="#bd4439" d="M17 28h1M16 29h1M18 29h1M10 30h6M17 31h1M17 32h1M17 33h1M17 34h1M17 35h1M17 36h1" />
<path stroke="#a41e12" d="M17 29h1M16 30h1M10 31h6M16 32h1M16 33h1M16 34h1M16 35h1" />
<path stroke="#49100b" d="M17 30h1M16 31h1M10 32h6" />
</svg>