<svg xmlns="http://www.w3.org/2000/svg" viewBox="0 -0.5 100 150" shape-rendering="crispEdges">
<metadata>Made with Pixels to Svg https://codepen.io/shshaw/pen/XbxvNj</metadata>
<path stroke="#191006" d="M30 87h3M30 88h3M30 89h3M30 90h3M30 91h3M30 92h3M33 103h4M33 104h4M33 105h4M33 106h4" />
<path stroke="#26180a" d="M33 87h4M40 87h3M33 88h4M40 88h3M33 89h4M40 89h3M40 90h3M40 91h3M40 92h3M40 93h3M40 94h3M40 95h3M40 96h3M33 97h10M33 98h10M33 99h10" />
<path stroke="#3a240f" d="M37 87h3M37 88h3M37 89h3M33 90h7M33 91h7M33 92h7M33 93h7M33 94h7M33 95h7M33 96h7" />
<path stroke="#191718" d="M27 93h3M27 94h3M27 95h3M27 96h3M30 97h3M30 98h3M30 99h3" />
<path stroke="#3f3c3d" d="M30 93h3M30 94h3M30 95h3M30 96h3" />
<path stroke="#0f0e0e" d="M23 97h7M23 98h7M23 99h7M30 100h7M30 101h7M30 102h7" />
<path stroke="#0c120b" d="M37 100h3M37 101h3M37 102h3" />
</svg>