<svg xmlns="http://www.w3.org/2000/svg" viewBox="0 -0.5 30 45" shape-rendering="crispEdges">
<metadata>Made with Pixels to Svg https://codepen.io/shshaw/pen/XbxvNj</metadata>
<path stroke="#581b16" d="M18 18h1M17 19h1M19 19h1M12 20h4M13 21h1M17 29h1" />
<path stroke="#471410" d="M18 19h1M11 20h1M16 20h2M11 21h2M14 21h2M12 22h3M13 23h1M17 27h1M17 28h1" />
<path stroke="#26180a" d="M18 20h2M17 21h1M20 21h1M16 22h1M20 22h1M16 23h1M20 23h1M17 24h1M20 24h1M11 25h1M17 25h1M20 25h1M18 26h1M20 26h1M18 27h1M20 27h1M18 28h1M20 28h1M18 29h1M20 29h1M20 30h1M21 31h1M21 32h1" />
<path stroke="#320e0b" d="M16 21h1M15 22h1M14 23h1M13 24h1M17 26h1M18 30h1M18 31h1M18 32h1" />
<path stroke="#513215" d="M18 21h2M11 22h1M17 22h1M19 22h1M10 23h1" />
<path stroke="#3a240f" d="M18 22h1M11 23h1M17 23h3M10 24h2M18 24h2M10 25h1M18 25h2M19 26h1M19 27h1M19 28h1M19 29h1M19 30h1M19 31h2M19 32h2" />
<path stroke="#21301e" d="M12 23h1M15 23h1M14 24h1M14 25h1M12 26h1M12 27h1" />
<path stroke="#191006" d="M12 24h1M13 25h1M14 26h1M15 27h1M16 28h1M10 31h2M14 31h4M12 33h3" />
<path stroke="#151e13" d="M15 24h1M15 25h1M15 26h1M11 27h1M16 27h1M12 28h3M12 29h1M14 29h2M12 30h4" />
<path stroke="#0c120b" d="M16 24h1M16 25h1M11 26h1M16 26h1M11 28h1M11 29h1M11 30h1M16 30h2" />
<path stroke="#080502" d="M12 25h1M13 26h1M14 27h1M15 28h1M16 29h1M10 32h2M14 32h4" />
<path stroke="#d48d26" d="M13 27h1" />
<path stroke="#b3761d" d="M13 29h1" />
<path stroke="#0f0e0e" d="M10 30h1" />
<path stroke="#383533" d="M12 31h2" />
<path stroke="#21201f" d="M12 32h2" />
</svg>