<svg xmlns="http://www.w3.org/2000/svg" viewBox="0 -0.5 100 150" shape-rendering="crispEdges">
<metadata>Made with Pixels to Svg https://codepen.io/shshaw/pen/XbxvNj</metadata>
<path stroke="#26180a" d="M60 67h7M60 68h7M60 69h7M57 70h3M67 70h3M57 71h3M67 71h3M57 72h3M67 72h3M70 73h3M70 74h3M70 75h3M70 76h3M70 77h3M70 78h3M70 79h3M57 80h3M70 80h7M57 81h3M70 81h7M57 82h3M70 82h7M57 83h3M67 83h3M73 83h4M57 84h3M67 84h3M73 84h4M57 85h3M67 85h3M73 85h4M57 86h3M67 86h3M73 86h4M60 87h7M73 87h4M60 88h7M73 88h4M60 89h7M73 89h4M60 90h3M73 90h4M60 91h3M73 91h4M60 92h3M73 92h4M60 93h3M73 93h4M60 94h3M73 94h4M60 95h3M73 95h4M60 96h3M73 96h4" />
<path stroke="#513215" d="M60 70h7M60 71h7M60 72h7M57 73h3M63 73h7M57 74h3M63 74h7M57 75h3M63 75h7M57 76h3M63 76h7M67 77h3M67 78h3M67 79h3M67 80h3M67 81h3M67 82h3M70 87h3M70 88h3M70 89h3M67 90h6M67 91h6M67 92h6M67 93h6M67 94h6M67 95h6M67 96h6" />
<path stroke="#3a240f" d="M60 73h3M60 74h3M60 75h3M60 76h3M57 77h10M57 78h10M57 79h10M60 80h7M60 81h7M60 82h7M60 83h7M70 83h3M60 84h7M70 84h3M60 85h7M70 85h3M60 86h7M70 86h3M67 87h3M67 88h3M67 89h3M63 90h4M63 91h4M63 92h4M63 93h4M63 94h4M63 95h4M63 96h4" />
</svg>