<svg xmlns="http://www.w3.org/2000/svg" viewBox="0 -0.5 100 150" shape-rendering="crispEdges">
<metadata>Made with Pixels to Svg https://codepen.io/shshaw/pen/XbxvNj</metadata>
<path stroke="#191718" d="M70 90h10M70 91h10M70 92h10M77 93h3M77 94h3M77 95h3M77 96h3M73 97h4M73 98h4M73 99h4" />
<path stroke="#26180a" d="M60 93h3M60 94h3M60 95h3M60 96h3M60 97h3M60 98h3M60 99h3" />
<path stroke="#3a240f" d="M63 93h4M63 94h4M63 95h4M63 96h4" />
<path stroke="#0f0e0e" d="M67 93h3M67 94h3M67 95h3M67 96h3M63 97h4M77 97h3M63 98h4M77 98h3M63 99h4M77 99h3M63 100h14M63 101h14M63 102h14" />
<path stroke="#3f3c3d" d="M70 93h3M70 94h3M70 95h3M70 96h3M67 97h3M67 98h3M67 99h3" />
<path stroke="#b3761d" d="M73 93h4M73 94h4M73 95h4M73 96h4" />
<path stroke="#504b4c" d="M70 97h3M70 98h3M70 99h3" />
<path stroke="#320e0b" d="M60 100h3M60 101h3M60 102h3" />
</svg>