<svg xmlns="http://www.w3.org/2000/svg" viewBox="0 -0.5 30 45" shape-rendering="crispEdges">
<metadata>Made with Pixels to Svg https://codepen.io/shshaw/pen/XbxvNj</metadata>
<path stroke="#191006" d="M10 25h9M9 26h10M9 27h10M9 28h10M9 29h10M9 30h11M9 31h11M9 32h11M9 33h11M10 34h10M10 35h10M10 36h9M10 37h9M10 38h9M10 39h8M9 40h3M9 41h2" />
<path stroke="#0f0e0e" d="M19 25h1M19 26h1M19 27h1M19 28h1M19 29h1M9 36h1M9 37h1M9 38h1" />
<path stroke="#26180a" d="M9 34h1M9 35h1M19 36h1M19 37h1M19 38h1M9 39h1M18 39h1M8 40h1M12 40h6M8 41h1M11 41h1M8 42h3" />
</svg>