<svg xmlns="http://www.w3.org/2000/svg" viewBox="0 -0.5 30 45" shape-rendering="crispEdges">
<metadata>Made with Pixels to Svg https://codepen.io/shshaw/pen/XbxvNj</metadata>
<path stroke="#0c120b" d="M16 29h2M16 30h2M16 31h2M16 32h2M16 33h1" />
<path stroke="#151e13" d="M14 30h2M14 31h2M14 32h2M15 33h1M15 34h1" />
<path stroke="#471410" d="M18 30h1M18 31h1M18 37h1M19 39h1M19 40h1M19 42h1" />
<path stroke="#191006" d="M19 30h1M13 31h1M19 31h1M13 32h1M19 32h1M13 33h1M19 33h1M17 34h1M19 34h1M19 35h1" />
<path stroke="#26180a" d="M20 30h1M21 31h1M21 32h1M21 33h1M13 34h1M22 34h1M23 35h1M19 36h1M23 36h1M19 37h1M23 37h1M20 38h1M23 38h1M20 39h1M23 39h1M20 40h1M23 40h1M20 41h1M22 41h1M20 42h2M20 43h1" />
<path stroke="#3a240f" d="M20 31h1M20 32h1M20 33h1M20 34h1M20 35h2M20 36h2M20 37h2M21 38h1M21 39h1M21 40h1M21 41h1" />
<path stroke="#581b16" d="M18 32h1M18 33h1M18 34h1M18 35h1M18 36h1M19 41h1" />
<path stroke="#21301e" d="M14 33h1M17 33h1M14 34h1M16 34h1M14 35h2" />
<path stroke="#513215" d="M21 34h1M22 35h1M22 36h1M22 37h1M22 38h1M22 39h1M22 40h1" />
<path stroke="#0f0e0e" d="M16 35h2M15 36h1M15 37h1M16 38h3M19 43h1" />
<path stroke="#211f1f" d="M16 36h2M16 37h2" />
<path stroke="#320e0b" d="M19 38h1" />
</svg>