<?xml version="1.0" encoding="UTF-8" ?>
<svg version="1.1" width="30" height="45" xmlns="http://www.w3.org/2000/svg" shape-rendering="crispEdges">
<rect x="9" y="26" width="1" height="1" fill="#999275" />
<rect x="10" y="26" width="1" height="1" fill="#999275" />
<rect x="11" y="26" width="1" height="1" fill="#70664B" />
<rect x="9" y="27" width="1" height="1" fill="#999275" />
<rect x="10" y="27" width="1" height="1" fill="#70664B" />
<rect x="11" y="27" width="1" height="1" fill="#70664B" />
<rect x="8" y="28" width="1" height="1" fill="#999275" />
<rect x="9" y="28" width="1" height="1" fill="#B0AC89" />
<rect x="10" y="28" width="1" height="1" fill="#70664B" />
<rect x="11" y="28" width="1" height="1" fill="#70664B" />
<rect x="8" y="29" width="1" height="1" fill="#1A0E02" />
<rect x="9" y="29" width="1" height="1" fill="#B0AC89" />
<rect x="10" y="29" width="1" height="1" fill="#70664B" />
<rect x="11" y="29" width="1" height="1" fill="#70664B" />
<rect x="7" y="30" width="1" height="1" fill="#1A0E02" />
<rect x="8" y="30" width="1" height="1" fill="#1A0E02" />
<rect x="9" y="30" width="1" height="1" fill="#1A0E02" />
<rect x="10" y="30" width="1" height="1" fill="#70664B" />
<rect x="6" y="31" width="1" height="1" fill="#2E2013" />
<rect x="7" y="31" width="1" height="1" fill="#3D2C1C" />
<rect x="8" y="31" width="1" height="1" fill="#3D2C1C" />
<rect x="9" y="31" width="1" height="1" fill="#1A0E02" />
<rect x="10" y="31" width="1" height="1" fill="#1A0E02" />
<rect x="6" y="32" width="1" height="1" fill="#2E2013" />
<rect x="7" y="32" width="1" height="1" fill="#3D2C1C" />
<rect x="8" y="32" width="1" height="1" fill="#2E2013" />
<rect x="9" y="32" width="1" height="1" fill="#1A0E02" />
<rect x="7" y="33" width="1" height="1" fill="#1A0E02" />
<rect x="8" y="33" width="1" height="1" fill="#1A0E02" />
</svg>