<?xml version="1.0" encoding="UTF-8" ?>
<svg version="1.1" width="30" height="45" xmlns="http://www.w3.org/2000/svg" shape-rendering="crispEdges">
<rect x="11" y="38" width="1" height="1" fill="#70664B" />
<rect x="12" y="38" width="1" height="1" fill="#B0AC89" />
<rect x="13" y="38" width="1" height="1" fill="#C5BFA7" />
<rect x="14" y="38" width="1" height="1" fill="#C5BFA7" />
<rect x="17" y="38" width="1" height="1" fill="#70664B" />
<rect x="18" y="38" width="1" height="1" fill="#B0AC89" />
<rect x="19" y="38" width="1" height="1" fill="#C5BFA7" />
<rect x="20" y="38" width="1" height="1" fill="#70664B" />
<rect x="11" y="39" width="1" height="1" fill="#70664B" />
<rect x="12" y="39" width="1" height="1" fill="#B0AC89" />
<rect x="13" y="39" width="1" height="1" fill="#C5BFA7" />
<rect x="14" y="39" width="1" height="1" fill="#C5BFA7" />
<rect x="17" y="39" width="1" height="1" fill="#70664B" />
<rect x="18" y="39" width="1" height="1" fill="#B0AC89" />
<rect x="19" y="39" width="1" height="1" fill="#C5BFA7" />
<rect x="20" y="39" width="1" height="1" fill="#70664B" />
<rect x="12" y="40" width="1" height="1" fill="#70664B" />
<rect x="13" y="40" width="1" height="1" fill="#B0AC89" />
<rect x="14" y="40" width="1" height="1" fill="#C5BFA7" />
<rect x="18" y="40" width="1" height="1" fill="#70664B" />
<rect x="19" y="40" width="1" height="1" fill="#C5BFA7" />
<rect x="20" y="40" width="1" height="1" fill="#70664B" />
<rect x="12" y="41" width="1" height="1" fill="#70664B" />
<rect x="13" y="41" width="1" height="1" fill="#B0AC89" />
<rect x="14" y="41" width="1" height="1" fill="#C5BFA7" />
<rect x="18" y="41" width="1" height="1" fill="#70664B" />
<rect x="19" y="41" width="1" height="1" fill="#B0AC89" />
<rect x="20" y="41" width="1" height="1" fill="#C5BFA7" />
<rect x="21" y="41" width="1" height="1" fill="#70664B" />
<rect x="12" y="42" width="1" height="1" fill="#70664B" />
<rect x="13" y="42" width="1" height="1" fill="#B0AC89" />
<rect x="14" y="42" width="1" height="1" fill="#C5BFA7" />
<rect x="19" y="42" width="1" height="1" fill="#70664B" />
<rect x="20" y="42" width="1" height="1" fill="#C5BFA7" />
<rect x="21" y="42" width="1" height="1" fill="#70664B" />
</svg>