<?xml version="1.0" encoding="UTF-8" ?>
<svg version="1.1" width="30" height="45" xmlns="http://www.w3.org/2000/svg" shape-rendering="crispEdges">
<rect x="18" y="20" width="1" height="1" fill="#C59738" />
<rect x="19" y="20" width="1" height="1" fill="#77550F" />
<rect x="18" y="21" width="1" height="1" fill="#E5CB7E" />
<rect x="19" y="21" width="1" height="1" fill="#AB7D1D" />
<rect x="20" y="21" width="1" height="1" fill="#77550F" />
<rect x="18" y="22" width="1" height="1" fill="#C59738" />
<rect x="19" y="22" width="1" height="1" fill="#E5CB7E" />
<rect x="20" y="22" width="1" height="1" fill="#AB7D1D" />
<rect x="21" y="22" width="1" height="1" fill="#77550F" />
<rect x="18" y="23" width="1" height="1" fill="#AB7D1D" />
<rect x="19" y="23" width="1" height="1" fill="#C59738" />
<rect x="20" y="23" width="1" height="1" fill="#D4BC74" />
<rect x="21" y="23" width="1" height="1" fill="#AB7D1D" />
<rect x="18" y="24" width="1" height="1" fill="#A89168" />
<rect x="19" y="24" width="1" height="1" fill="#B0AC89" />
<rect x="20" y="24" width="1" height="1" fill="#C5BFA7" />
<rect x="21" y="24" width="1" height="1" fill="#70664B" />
<rect x="18" y="25" width="1" height="1" fill="#70664B" />
<rect x="19" y="25" width="1" height="1" fill="#999275" />
<rect x="20" y="25" width="1" height="1" fill="#B0AC89" />
<rect x="21" y="25" width="1" height="1" fill="#C5BFA7" />
<rect x="22" y="25" width="1" height="1" fill="#70664B" />
<rect x="19" y="26" width="1" height="1" fill="#70664B" />
<rect x="20" y="26" width="1" height="1" fill="#999275" />
<rect x="21" y="26" width="1" height="1" fill="#C5BFA7" />
<rect x="22" y="26" width="1" height="1" fill="#70664B" />
<rect x="19" y="27" width="1" height="1" fill="#70664B" />
<rect x="20" y="27" width="1" height="1" fill="#999275" />
<rect x="21" y="27" width="1" height="1" fill="#C5BFA7" />
<rect x="22" y="27" width="1" height="1" fill="#70664B" />
<rect x="19" y="28" width="1" height="1" fill="#70664B" />
<rect x="20" y="28" width="1" height="1" fill="#999275" />
<rect x="21" y="28" width="1" height="1" fill="#C5BFA7" />
<rect x="22" y="28" width="1" height="1" fill="#70664B" />
</svg>