<?xml version="1.0" encoding="UTF-8" ?>
<svg version="1.1" width="30" height="45" xmlns="http://www.w3.org/2000/svg" shape-rendering="crispEdges">
<rect x="12" y="21" width="1" height="1" fill="#A89168" />
<rect x="17" y="21" width="1" height="1" fill="#A89168" />
<rect x="18" y="21" width="1" height="1" fill="#A89168" />
<rect x="11" y="22" width="1" height="1" fill="#C1AA78" />
<rect x="12" y="22" width="1" height="1" fill="#A89168" />
<rect x="15" y="22" width="1" height="1" fill="#A89168" />
<rect x="16" y="22" width="1" height="1" fill="#A89168" />
<rect x="17" y="22" width="1" height="1" fill="#C1AA78" />
<rect x="18" y="22" width="1" height="1" fill="#A89168" />
<rect x="19" y="22" width="1" height="1" fill="#70664B" />
<rect x="11" y="23" width="1" height="1" fill="#C1AA78" />
<rect x="12" y="23" width="1" height="1" fill="#C1AA78" />
<rect x="13" y="23" width="1" height="1" fill="#A89168" />
<rect x="14" y="23" width="1" height="1" fill="#A89168" />
<rect x="15" y="23" width="1" height="1" fill="#C1AA78" />
<rect x="16" y="23" width="1" height="1" fill="#C1AA78" />
<rect x="17" y="23" width="1" height="1" fill="#C1AA78" />
<rect x="18" y="23" width="1" height="1" fill="#A89168" />
<rect x="19" y="23" width="1" height="1" fill="#70664B" />
<rect x="11" y="24" width="1" height="1" fill="#D6BF95" />
<rect x="12" y="24" width="1" height="1" fill="#C1AA78" />
<rect x="13" y="24" width="1" height="1" fill="#C1AA78" />
<rect x="14" y="24" width="1" height="1" fill="#C1AA78" />
<rect x="15" y="24" width="1" height="1" fill="#D6BF95" />
<rect x="16" y="24" width="1" height="1" fill="#D6BF95" />
<rect x="17" y="24" width="1" height="1" fill="#C1AA78" />
<rect x="18" y="24" width="1" height="1" fill="#A89168" />
<rect x="19" y="24" width="1" height="1" fill="#70664B" />
<rect x="11" y="25" width="1" height="1" fill="#D6BF95" />
<rect x="12" y="25" width="1" height="1" fill="#D6BF95" />
<rect x="13" y="25" width="1" height="1" fill="#C1AA78" />
<rect x="14" y="25" width="1" height="1" fill="#D6BF95" />
<rect x="15" y="25" width="1" height="1" fill="#D6BF95" />
<rect x="16" y="25" width="1" height="1" fill="#D6BF95" />
<rect x="17" y="25" width="1" height="1" fill="#A89168" />
<rect x="18" y="25" width="1" height="1" fill="#70664B" />
<rect x="11" y="26" width="1" height="1" fill="#A89168" />
<rect x="12" y="26" width="1" height="1" fill="#A89168" />
<rect x="13" y="26" width="1" height="1" fill="#A89168" />
<rect x="14" y="26" width="1" height="1" fill="#A89168" />
<rect x="15" y="26" width="1" height="1" fill="#A89168" />
<rect x="16" y="26" width="1" height="1" fill="#A89168" />
<rect x="17" y="26" width="1" height="1" fill="#9A855F" />
<rect x="11" y="27" width="1" height="1" fill="#AB7D1D" />
<rect x="12" y="27" width="1" height="1" fill="#C1AA78" />
<rect x="13" y="27" width="1" height="1" fill="#D6BF95" />
<rect x="14" y="27" width="1" height="1" fill="#C1AA78" />
<rect x="15" y="27" width="1" height="1" fill="#C59738" />
<rect x="16" y="27" width="1" height="1" fill="#999275" />
<rect x="11" y="28" width="1" height="1" fill="#C59738" />
<rect x="12" y="28" width="1" height="1" fill="#C1AA78" />
<rect x="13" y="28" width="1" height="1" fill="#D6BF95" />
<rect x="14" y="28" width="1" height="1" fill="#C1AA78" />
<rect x="15" y="28" width="1" height="1" fill="#D4BC74" />
<rect x="16" y="28" width="1" height="1" fill="#999275" />
<rect x="11" y="29" width="1" height="1" fill="#AB7D1D" />
<rect x="12" y="29" width="1" height="1" fill="#A89168" />
<rect x="13" y="29" width="1" height="1" fill="#C59738" />
<rect x="14" y="29" width="1" height="1" fill="#A89168" />
<rect x="15" y="29" width="1" height="1" fill="#C59738" />
<rect x="16" y="29" width="1" height="1" fill="#AB7D1D" />
<rect x="17" y="29" width="1" height="1" fill="#77550F" />
<rect x="11" y="30" width="1" height="1" fill="#C59738" />
<rect x="12" y="30" width="1" height="1" fill="#AB7D1D" />
<rect x="13" y="30" width="1" height="1" fill="#E5CB7E" />
<rect x="14" y="30" width="1" height="1" fill="#C59738" />
<rect x="15" y="30" width="1" height="1" fill="#A89168" />
<rect x="16" y="30" width="1" height="1" fill="#C59738" />
<rect x="17" y="30" width="1" height="1" fill="#A89168" />
<rect x="11" y="31" width="1" height="1" fill="#C59738" />
<rect x="12" y="31" width="1" height="1" fill="#A89168" />
<rect x="13" y="31" width="1" height="1" fill="#77550F" />
<rect x="14" y="31" width="1" height="1" fill="#A89168" />
<rect x="15" y="31" width="1" height="1" fill="#C1AA78" />
<rect x="16" y="31" width="1" height="1" fill="#C59738" />
<rect x="11" y="32" width="1" height="1" fill="#C59738" />
<rect x="12" y="32" width="1" height="1" fill="#C1AA78" />
<rect x="13" y="32" width="1" height="1" fill="#A89168" />
<rect x="14" y="32" width="1" height="1" fill="#C1AA78" />
<rect x="15" y="32" width="1" height="1" fill="#C1AA78" />
<rect x="16" y="32" width="1" height="1" fill="#C59738" />
<rect x="11" y="33" width="1" height="1" fill="#C59738" />
<rect x="12" y="33" width="1" height="1" fill="#D6BF95" />
<rect x="13" y="33" width="1" height="1" fill="#C1AA78" />
<rect x="14" y="33" width="1" height="1" fill="#C1AA78" />
<rect x="15" y="33" width="1" height="1" fill="#D6BF95" />
<rect x="16" y="33" width="1" height="1" fill="#C59738" />
<rect x="11" y="34" width="1" height="1" fill="#D4BC74" />
<rect x="12" y="34" width="1" height="1" fill="#D6BF95" />
<rect x="13" y="34" width="1" height="1" fill="#C1AA78" />
<rect x="14" y="34" width="1" height="1" fill="#A89168" />
<rect x="15" y="34" width="1" height="1" fill="#D6BF95" />
<rect x="16" y="34" width="1" height="1" fill="#D4BC74" />
<rect x="11" y="35" width="1" height="1" fill="#E5CB7E" />
<rect x="12" y="35" width="1" height="1" fill="#D6BF95" />
<rect x="13" y="35" width="1" height="1" fill="#C1AA78" />
<rect x="14" y="35" width="1" height="1" fill="#A89168" />
<rect x="15" y="35" width="1" height="1" fill="#D6BF95" />
<rect x="16" y="35" width="1" height="1" fill="#E5CB7E" />
<rect x="11" y="36" width="1" height="1" fill="#E5CB7E" />
<rect x="12" y="36" width="1" height="1" fill="#D6BF95" />
<rect x="13" y="36" width="1" height="1" fill="#C1AA78" />
<rect x="14" y="36" width="1" height="1" fill="#A89168" />
<rect x="15" y="36" width="1" height="1" fill="#D6BF95" />
<rect x="16" y="36" width="1" height="1" fill="#D4BC74" />
<rect x="11" y="37" width="1" height="1" fill="#D4BC74" />
<rect x="12" y="37" width="1" height="1" fill="#D6BF95" />
<rect x="13" y="37" width="1" height="1" fill="#C1AA78" />
<rect x="14" y="37" width="1" height="1" fill="#9A855F" />
<rect x="15" y="37" width="1" height="1" fill="#D6BF95" />
<rect x="16" y="37" width="1" height="1" fill="#C59738" />
<rect x="11" y="38" width="1" height="1" fill="#C59738" />
<rect x="12" y="38" width="1" height="1" fill="#C1AA78" />
<rect x="13" y="38" width="1" height="1" fill="#A89168" />
<rect x="14" y="38" width="1" height="1" fill="#9A855F" />
<rect x="15" y="38" width="1" height="1" fill="#C1AA78" />
<rect x="16" y="38" width="1" height="1" fill="#C59738" />
<rect x="11" y="39" width="1" height="1" fill="#C59738" />
<rect x="12" y="39" width="1" height="1" fill="#A89168" />
<rect x="13" y="39" width="1" height="1" fill="#9A855F" />
<rect x="14" y="39" width="1" height="1" fill="#9A855F" />
<rect x="15" y="39" width="1" height="1" fill="#A89168" />
<rect x="16" y="39" width="1" height="1" fill="#C59738" />
<rect x="11" y="40" width="1" height="1" fill="#C59738" />
<rect x="12" y="40" width="1" height="1" fill="#D4BC74" />
<rect x="13" y="40" width="1" height="1" fill="#C59738" />
<rect x="14" y="40" width="1" height="1" fill="#AB7D1D" />
<rect x="15" y="40" width="1" height="1" fill="#E5CB7E" />
<rect x="16" y="40" width="1" height="1" fill="#C59738" />
</svg>