<svg xmlns="http://www.w3.org/2000/svg" viewBox="0 -0.5 30 45" shape-rendering="crispEdges">
<metadata>Made with Pixels to Svg https://codepen.io/shshaw/pen/XbxvNj</metadata>
<path stroke="#0b1315" d="M19 28h1M19 29h1M19 30h1M18 31h1M18 32h2M18 33h1M18 34h1" />
<path stroke="#0f161c" d="M20 28h1M22 28h1M20 29h1M22 29h1M22 30h1M19 31h1M22 31h1M22 32h1M21 33h1M19 34h2" />
<path stroke="#203049" d="M21 28h1M21 29h1M21 30h1M21 31h1M21 32h1M20 33h1" />
<path stroke="#0e1c29" d="M20 30h1M20 31h1M20 32h1M19 33h1" />
</svg>