<svg xmlns="http://www.w3.org/2000/svg" viewBox="0 -0.5 30 45" shape-rendering="crispEdges">
<metadata>Made with Pixels to Svg https://codepen.io/shshaw/pen/XbxvNj</metadata>
<path stroke="#0e1c29" d="M13 20h5M13 21h4M18 21h1M11 24h1M17 24h1M13 25h1M16 25h1M12 26h3M16 29h1M11 30h1M14 30h2M18 30h1M10 31h1M12 31h2M9 32h1" />
<path stroke="#0b1315" d="M12 21h1M13 22h1M18 25h1M11 26h1M17 26h2M11 27h1M15 27h3M12 28h1M14 28h1M17 28h1M18 29h1M10 30h1M9 31h1M11 31h1M15 31h2M10 32h1M12 32h1M14 32h1M17 32h1M9 33h1M13 33h1" />
<path stroke="#203049" d="M17 21h1M14 22h3M16 24h1M12 25h1M14 25h2M17 29h1M12 30h2" />
<path stroke="#0f161c" d="M18 24h1M11 25h1M17 25h1M15 26h2M12 27h3M13 28h1M16 30h2M19 30h1M14 31h1M17 31h3M13 32h1M18 32h2M18 33h2" />
</svg>