<svg xmlns="http://www.w3.org/2000/svg" viewBox="0 -0.5 30 45" shape-rendering="crispEdges">
<metadata>Made with Pixels to Svg https://codepen.io/shshaw/pen/XbxvNj</metadata>
<path stroke="#b4bcc5" d="M16 29h1M16 30h2M16 31h2M16 32h2M17 33h2M17 34h2M18 35h1M18 36h1M18 37h1" />
<path stroke="#343d49" d="M17 29h1M18 30h1M18 31h1M18 32h1M19 33h1M19 34h1M19 35h1M19 36h1M19 37h1" />
<path stroke="#7f92a7" d="M14 30h2M14 31h2M15 32h1M15 33h2M16 34h1M16 35h2M17 36h1M17 37h1" />
<path stroke="#536072" d="M13 31h1M13 32h2M14 33h1M14 34h2M15 35h1M16 36h1" />
<path stroke="#292f38" d="M13 33h1M13 34h1M14 35h1M15 36h1M16 37h1" />
</svg>