<svg xmlns="http://www.w3.org/2000/svg" viewBox="0 -0.5 30 45" shape-rendering="crispEdges">
<metadata>Made with Pixels to Svg https://codepen.io/shshaw/pen/XbxvNj</metadata>
<path stroke="#514767" d="M16 29h2M14 30h5M13 31h5M13 32h1M15 32h3M15 33h3M16 34h2M17 35h1M17 36h1M17 37h1" />
<path stroke="#322a38" d="M18 31h1M14 32h1M18 32h1M14 33h1M18 33h1M15 34h1M18 34h1M18 37h1" />
<path stroke="#28051b" d="M13 33h1M19 33h1M14 34h1M19 34h1M15 35h1M19 35h1M15 36h1M19 36h1M16 37h1M20 37h1" />
<path stroke="#2e2e42" d="M16 35h1M16 36h1" />
<path stroke="#7b718a" d="M18 35h1M18 36h1M19 37h1" />
</svg>