<svg xmlns="http://www.w3.org/2000/svg" viewBox="0 -0.5 30 45" shape-rendering="crispEdges">
<metadata>Made with Pixels to Svg https://codepen.io/shshaw/pen/XbxvNj</metadata>
<path stroke="#28051b" d="M10 30h3M9 31h1M9 32h1M9 33h1M9 34h1M9 35h1M10 36h1M10 37h1" />
<path stroke="#efe7e7" d="M13 30h1" />
<path stroke="#514767" d="M10 31h2M10 32h3M10 33h3M10 34h3M10 35h3M11 36h2M11 37h2" />
<path stroke="#322a38" d="M12 31h2M13 32h1M13 33h1M13 34h1M13 35h1M13 36h1M14 37h1" />
<path stroke="#7b718a" d="M13 37h1" />
</svg>