<svg xmlns="http://www.w3.org/2000/svg" viewBox="0 -0.5 30 45" shape-rendering="crispEdges">
<metadata>Made with Pixels to Svg https://codepen.io/shshaw/pen/XbxvNj</metadata>
<path stroke="#210b13" d="M16 38h1M16 39h1M17 40h1M21 40h1M17 41h1M21 41h1M18 42h1M21 42h1" />
<path stroke="#2e2e42" d="M17 38h1M17 39h1" />
<path stroke="#514767" d="M18 38h1M18 39h1" />
<path stroke="#7b718a" d="M19 38h1" />
<path stroke="#28051b" d="M20 38h1M20 39h1" />
<path stroke="#322a38" d="M19 39h1" />
<path stroke="#6f3a3c" d="M18 40h2M19 41h2" />
<path stroke="#9c6154" d="M20 40h1" />
<path stroke="#391b26" d="M18 41h1M19 42h2" />
</svg>