<svg xmlns="http://www.w3.org/2000/svg" viewBox="0 -0.5 30 45" shape-rendering="crispEdges">
<metadata>Made with Pixels to Svg https://codepen.io/shshaw/pen/XbxvNj</metadata>
<path stroke="#040c1e" d="M10 20h3M9 21h1M13 21h1M9 22h1M13 22h1M9 23h1M13 23h1M9 24h4" />
<path stroke="#78547c" d="M10 21h2M11 22h2M12 23h1" />
<path stroke="#896693" d="M12 21h1" />
<path stroke="#331742" d="M10 22h1M10 23h2" />
<path stroke="#28051b" d="M13 24h1M10 25h1M13 25h1M9 26h1M12 26h1M9 27h4" />
<path stroke="#322a38" d="M11 25h1M10 26h1" />
<path stroke="#514767" d="M12 25h1M11 26h1" />
</svg>