<svg xmlns="http://www.w3.org/2000/svg" viewBox="0 -0.5 30 45" shape-rendering="crispEdges">
<metadata>Made with Pixels to Svg https://codepen.io/shshaw/pen/XbxvNj</metadata>
<path stroke="#2e2e42" d="M11 21h1M17 21h1M10 22h1M18 22h1M10 23h1M18 23h1M10 24h1M18 24h1M10 25h1M18 25h1M10 26h1M18 26h1M11 27h1M17 27h1M11 28h1M17 28h1M10 31h9M10 32h1M12 32h1M16 32h1M10 33h1M16 33h1M10 34h1M16 34h1M10 35h1M16 35h1M10 36h1M16 36h1M10 37h1M16 37h1M10 38h1M16 38h1M10 39h1M16 39h1M10 40h7" />
<path stroke="#45243a" d="M16 21h1M12 22h1M15 22h1M12 23h1M14 23h1M13 24h1" />
<path stroke="#50a0b8" d="M11 22h1M16 22h1M15 23h1M12 24h1M11 25h1M15 25h2M12 26h1M14 26h2M12 28h1M14 28h2M11 33h1M13 33h2M11 34h1M13 34h2M11 35h1M13 35h2M11 36h1M13 36h2M11 37h1M13 37h2M11 38h1M13 38h2M11 39h1M13 39h2" />
<path stroke="#3a6b8c" d="M17 22h1M17 23h1M17 24h1M13 25h1M17 25h1M11 26h1M13 26h1M16 26h2M12 27h5M13 28h1M16 28h1M11 32h1M13 32h3M12 33h1M15 33h1M12 34h1M15 34h1M12 35h1M15 35h1M12 36h1M15 36h1M12 37h1M15 37h1M12 38h1M15 38h1M12 39h1M15 39h1" />
<path stroke="#83d6e7" d="M11 23h1M16 23h1M11 24h1M14 24h3M12 25h1M14 25h1" />
<path stroke="#4b281d" d="M11 29h1M14 29h3" />
<path stroke="#efe7e7" d="M12 29h1" />
<path stroke="#c2b4d3" d="M13 29h1" />
<path stroke="#28051b" d="M17 29h1M11 30h1M14 30h5" />
<path stroke="#866d86" d="M12 30h2" />
</svg>