<svg xmlns="http://www.w3.org/2000/svg" viewBox="0 -0.5 30 45" shape-rendering="crispEdges">
<metadata>Made with Pixels to Svg https://codepen.io/shshaw/pen/XbxvNj</metadata>
<path stroke="#040c1e" d="M18 20h3M17 21h1M21 21h1M17 22h1M21 22h1M17 23h1M21 23h1M18 24h3" />
<path stroke="#78547c" d="M18 21h2M19 22h2M20 23h1" />
<path stroke="#896693" d="M20 21h1" />
<path stroke="#331742" d="M18 22h1M18 23h2" />
<path stroke="#28051b" d="M21 24h1M18 25h1M22 25h1M19 26h1M22 26h1M19 27h4" />
<path stroke="#322a38" d="M19 25h1M20 26h1" />
<path stroke="#514767" d="M20 25h1M21 26h1" />
<path stroke="#7b718a" d="M21 25h1" />
</svg>