<svg xmlns="http://www.w3.org/2000/svg" viewBox="0 -0.5 30 45" shape-rendering="crispEdges">
<metadata>Made with Pixels to Svg https://codepen.io/shshaw/pen/XbxvNj</metadata>
<path stroke="#180b30" d="M12 21h1M18 21h2M11 22h1M10 23h1M10 24h1M10 25h1M18 25h1M10 26h2M17 26h2M11 27h1M17 27h1M11 28h1M17 28h1M11 29h1M11 30h1M18 30h1M11 31h1M18 31h1M11 32h1M17 32h1M11 33h1M17 33h1M11 34h1M17 34h1M11 35h1M17 35h1M11 36h1M17 36h1M11 37h1M17 37h1M11 38h1M17 38h1M11 39h1M17 39h1M11 40h1M17 40h1M11 41h1M17 41h1M11 42h7" />
<path stroke="#7a54a5" d="M18 22h2M11 23h1M17 23h1M12 24h1M14 24h3" />
<path stroke="rgba(0,0,0,0.29411764705882354)" d="M13 23h1" />
<path stroke="#613d8a" d="M18 23h2M11 24h1M13 24h1M19 24h1M12 25h5M13 26h1M12 27h4M12 28h3M12 30h4M13 31h2M13 32h2M13 33h2M13 34h2M12 38h1M16 38h1M12 39h1M16 39h1M12 41h1M16 41h1" />
<path stroke="#3c2363" d="M17 24h2M11 25h1M17 25h1M12 26h1M14 26h3M16 27h1M15 28h2M16 30h2M12 31h1M15 31h3M12 32h1M15 32h2M12 33h1M15 33h2M12 34h1M15 34h2M12 35h5M12 36h5M12 37h5M13 38h3M13 39h3M13 41h3" />
<path stroke="#dca465" d="M12 29h1M15 29h2M12 40h1M16 40h1" />
<path stroke="#ffe498" d="M13 29h2" />
<path stroke="#cd975a" d="M17 29h1M13 40h3" />
</svg>