<svg xmlns="http://www.w3.org/2000/svg" viewBox="0 -0.5 36 7" shape-rendering="crispEdges">
<metadata>Made with Pixels to Svg https://codepen.io/shshaw/pen/XbxvNj</metadata>
<path stroke="#e1c3bb" d="M28 0h1M27 1h1M27 5h1M28 6h1" />
<path stroke="#cca69b" d="M28 1h1M27 2h1M27 4h1M28 5h1" />
<path stroke="#896d5f" d="M29 1h1M29 2h6" />
<path stroke="#dae2eb" d="M1 2h26M0 3h1" />
<path stroke="#e38a8a" d="M28 2h1" />
<path stroke="#959ea9" d="M1 3h13" />
<path stroke="#717a86" d="M14 3h13" />
<path stroke="#c73838" d="M27 3h2" />
<path stroke="#980101" d="M29 3h1" />
<path stroke="#302623" d="M30 3h5" />
<path stroke="#614e48" d="M35 3h1M29 4h6M29 5h1" />
<path stroke="#c0cad7" d="M1 4h26" />
<path stroke="#c00101" d="M28 4h1" />
</svg>