<svg xmlns="http://www.w3.org/2000/svg" viewBox="0 -0.5 16 8" shape-rendering="crispEdges">
<metadata>Made with Pixels to Svg https://codepen.io/shshaw/pen/XbxvNj</metadata>
<path stroke="#3f3c3d" d="M8 0h1M10 0h1M0 2h12" />
<path stroke="#0f0e0e" d="M9 1h1M11 1h1M12 2h1M0 3h12" />
<path stroke="#74330a" d="M12 3h1M10 4h1M13 4h1M14 5h1M14 6h1" />
<path stroke="#f0ae4f" d="M1 4h3" />
<path stroke="#cd923c" d="M4 4h6M9 5h1M15 6h1M14 7h1" />
<path stroke="#492006" d="M11 4h2M12 5h2M13 6h1" />
<path stroke="#ac792f" d="M11 5h1M10 6h1M12 6h1M13 7h1" />
</svg>