<svg xmlns="http://www.w3.org/2000/svg" viewBox="0 -0.5 25 5" shape-rendering="crispEdges">
<metadata>Made with Pixels to Svg https://codepen.io/shshaw/pen/XbxvNj</metadata>
<path stroke="#e6ce91" d="M18 0h1M18 1h1M19 2h1M21 2h1M23 2h1" />
<path stroke="#f2f2f2" d="M1 1h11" />
<path stroke="#e1cde3" d="M12 1h6" />
<path stroke="#c2aa6d" d="M19 1h1M21 1h1M23 1h1M18 2h1M20 2h1M22 2h1M24 2h1" />
<path stroke="#9a885c" d="M20 1h1M22 1h1M18 3h2M21 3h1M23 3h1" />
<path stroke="#b6a1b9" d="M0 2h11" />
<path stroke="#964da4" d="M11 2h7" />
<path stroke="#664f69" d="M1 3h11" />
<path stroke="#593d5d" d="M12 3h6" />
<path stroke="#7c6d4a" d="M20 3h1M22 3h1M18 4h1" />
</svg>