<svg xmlns="http://www.w3.org/2000/svg" viewBox="0 -0.5 30 45" shape-rendering="crispEdges">
<metadata>Made with Pixels to Svg https://codepen.io/shshaw/pen/XbxvNj</metadata>
<path stroke="#b59147" d="M17 29h1M18 30h1" />
<path stroke="#353132" d="M14 30h2M15 31h1M15 32h1M15 33h2M16 34h1M16 35h2" />
<path stroke="#a88b47" d="M16 30h1M17 31h1M18 36h1M20 36h1M17 37h1M19 37h1" />
<path stroke="#a88b46" d="M17 30h1" />
<path stroke="#141213" d="M13 31h1M13 33h1M13 34h1M14 35h1M15 36h2" />
<path stroke="#242021" d="M14 31h1M14 32h1M18 32h1M14 33h1M19 33h1M14 34h2M19 34h1M15 35h1M19 35h1" />
<path stroke="#8d7036" d="M16 31h1" />
<path stroke="#8d7136" d="M18 31h1M17 32h1" />
<path stroke="#141313" d="M13 32h1" />
<path stroke="#444041" d="M16 32h1M17 33h2M17 34h1M18 35h1" />
<path stroke="#454041" d="M18 34h1" />
<path stroke="#353133" d="M17 36h1" />
<path stroke="#b59047" d="M19 36h1" />
<path stroke="#725a2b" d="M16 37h1" />
<path stroke="#b49147" d="M18 37h1" />
</svg>