<svg xmlns="http://www.w3.org/2000/svg" viewBox="0 -0.5 30 45" shape-rendering="crispEdges">
<metadata>Made with Pixels to Svg https://codepen.io/shshaw/pen/XbxvNj</metadata>
<path stroke="#a98b47" d="M18 20h1M21 23h1" />
<path stroke="#b59147" d="M19 20h1M20 21h1M21 22h1M22 23h1" />
<path stroke="#8d7136" d="M18 21h1M21 24h1" />
<path stroke="#a88b47" d="M19 21h1M20 22h1M22 24h1" />
<path stroke="#141213" d="M18 22h1M19 23h1M18 24h2M19 26h1M19 27h1M19 28h1" />
<path stroke="#8d7036" d="M19 22h1" />
<path stroke="#242021" d="M18 23h1M20 25h1M22 25h1M20 26h1M22 26h1M22 27h1M20 28h1M22 28h1" />
<path stroke="#8d7137" d="M20 23h1" />
<path stroke="#141212" d="M20 24h1" />
<path stroke="#141313" d="M19 25h1" />
<path stroke="#353132" d="M21 25h1M21 26h1M21 28h1" />
<path stroke="#242020" d="M20 27h1" />
<path stroke="#343132" d="M21 27h1" />
</svg>