<svg xmlns="http://www.w3.org/2000/svg" viewBox="0 -0.5 30 45" shape-rendering="crispEdges">
<metadata>Made with Pixels to Svg https://codepen.io/shshaw/pen/XbxvNj</metadata>
<path stroke="#b59147" d="M12 20h1M12 21h1M11 22h1" />
<path stroke="#8d7136" d="M13 20h1" />
<path stroke="#353132" d="M13 21h1M12 22h2M11 23h1M13 23h1M11 24h2M11 26h1M10 27h2M9 28h2" />
<path stroke="#242021" d="M10 23h1M10 24h1M10 25h1M9 26h1M12 26h1M12 27h1" />
<path stroke="#343132" d="M12 23h1" />
<path stroke="#141213" d="M13 24h1M12 25h1" />
<path stroke="#353133" d="M11 25h1" />
<path stroke="#353032" d="M10 26h1" />
<path stroke="#252021" d="M9 27h1" />
<path stroke="#242020" d="M8 28h1M11 28h1" />
</svg>