<svg xmlns="http://www.w3.org/2000/svg" viewBox="0 -0.5 30 45" shape-rendering="crispEdges">
<metadata>Made with Pixels to Svg https://codepen.io/shshaw/pen/XbxvNj</metadata>
<path stroke="#242021" d="M17 20h1M16 22h2M10 23h1M18 23h1M10 24h1M10 25h1M13 25h1M17 25h1M12 26h5M16 28h1" />
<path stroke="#252021" d="M12 21h1M15 29h1" />
<path stroke="#141213" d="M13 21h3M17 21h1M11 23h1M19 23h1M11 24h1M18 24h2M11 25h1M18 25h1M10 26h1M17 26h1M10 27h2M17 27h1M10 28h2M11 29h1" />
<path stroke="#141313" d="M16 21h1" />
<path stroke="#242020" d="M11 22h1" />
<path stroke="#151213" d="M12 22h1M18 22h1" />
<path stroke="#353132" d="M17 23h1M16 24h1M12 25h1M14 25h3M15 27h1M15 28h1M14 29h1" />
<path stroke="#353133" d="M17 24h1" />
<path stroke="#141212" d="M11 26h1" />
<path stroke="#242121" d="M16 27h1" />
<path stroke="#a88b47" d="M11 30h1M14 30h1M13 31h1" />
<path stroke="#b59147" d="M12 30h2M12 31h1" />
<path stroke="#8d7136" d="M15 30h1M11 31h1M14 31h1M13 32h1" />
<path stroke="#a98b47" d="M12 32h1" />
</svg>