<svg xmlns="http://www.w3.org/2000/svg" viewBox="0 -0.5 30 45" shape-rendering="crispEdges">
<metadata>Made with Pixels to Svg https://codepen.io/shshaw/pen/XbxvNj</metadata>
<path stroke="#a88b47" d="M10 29h1M9 31h1" />
<path stroke="#b59147" d="M9 30h1M13 37h1" />
<path stroke="#141213" d="M10 30h1M13 30h1M10 31h1M13 31h1M9 32h1M13 32h1M9 33h1M13 33h1M9 34h1M13 34h1M9 35h1M10 36h1" />
<path stroke="#353132" d="M11 30h2M11 31h1M11 32h1M10 33h1M10 35h1M11 36h1M13 36h1" />
<path stroke="#252021" d="M12 31h1" />
<path stroke="#353032" d="M10 32h1M10 34h1" />
<path stroke="#242021" d="M12 32h1M11 33h2M11 34h2M11 35h2M12 36h1" />
<path stroke="#242121" d="M13 35h1" />
<path stroke="#725b2b" d="M8 36h1M9 37h2" />
<path stroke="#8d7136" d="M9 36h1M11 37h2" />
</svg>