<svg xmlns="http://www.w3.org/2000/svg" viewBox="0 -0.5 30 45" shape-rendering="crispEdges">
<metadata>Made with Pixels to Svg https://codepen.io/shshaw/pen/XbxvNj</metadata>
<path stroke="#141313" d="M19 28h1M19 30h1" />
<path stroke="#242021" d="M20 28h1M20 29h1M22 29h1M20 30h1M22 30h1M19 31h2M22 31h1M19 32h1" />
<path stroke="#353132" d="M21 28h1M21 29h1M21 30h1M20 33h1" />
<path stroke="#242121" d="M22 28h1M19 33h1" />
<path stroke="#141213" d="M19 29h1M18 31h1M18 33h1M19 34h1" />
<path stroke="#b59147" d="M18 30h1M21 31h1" />
<path stroke="#151213" d="M18 32h1M18 34h1" />
<path stroke="#8d7137" d="M20 32h1" />
<path stroke="#a88b47" d="M21 32h1M22 33h1" />
<path stroke="#b59047" d="M22 32h1" />
<path stroke="#8d7136" d="M21 33h1" />
<path stroke="#242020" d="M20 34h1" />
</svg>