<svg xmlns="http://www.w3.org/2000/svg" viewBox="0 -0.5 30 45" shape-rendering="crispEdges">
<metadata>Made with Pixels to Svg https://codepen.io/shshaw/pen/XbxvNj</metadata>
<path stroke="#d7d7d7" d="M18 21h1M19 22h1M20 23h1M20 24h1M21 25h1M21 27h1M21 28h1" />
<path stroke="#efefef" d="M19 21h1M20 22h1M21 23h1M22 25h1M22 26h1M22 28h1" />
<path stroke="#bfbdc2" d="M18 22h1M18 23h2M19 24h1M20 25h1M20 26h1M20 27h1M20 28h1" />
<path stroke="#a3a397" d="M18 24h1M19 25h1M19 26h1M19 27h1M19 28h1" />
<path stroke="#eeefef" d="M21 24h1" />
<path stroke="#d6d7d7" d="M21 26h1" />
<path stroke="#efeeef" d="M22 27h1" />
</svg>