<svg xmlns="http://www.w3.org/2000/svg" viewBox="0 -0.5 30 45" shape-rendering="crispEdges">
<metadata>Made with Pixels to Svg https://codepen.io/shshaw/pen/XbxvNj</metadata>
<path stroke="#d7d7d7" d="M12 20h5M11 21h3M18 21h1M10 22h2M19 22h1M10 23h1M9 24h2M20 24h1M9 25h2M21 25h1M9 26h1M21 26h1M9 27h1M8 28h1M21 28h1M8 29h1M21 29h1M8 30h1M21 30h1M20 31h2M20 32h1M20 33h1M20 34h1M20 35h1M20 36h1M10 37h1M20 37h1M10 38h1M12 38h1M14 38h5M20 38h1M10 39h3M18 39h2M10 40h1" />
<path stroke="#d7d7d6" d="M17 20h1M20 23h1M20 39h1M20 40h1" />
<path stroke="#efefef" d="M18 20h1M19 21h1M20 22h1M21 23h1M21 24h1M22 25h1M22 26h1M22 27h1M22 28h1M22 29h1M9 31h1M22 31h1M9 32h1M21 32h2M9 33h1M21 33h1M9 34h1M21 34h1M21 35h1M9 36h1M21 36h1M9 37h1M9 38h1M21 38h1M9 39h1M13 39h5M21 39h1M9 40h1M11 40h2M18 40h2M21 40h1M9 41h1M20 41h2M9 42h1M21 42h1" />
<path stroke="#bfbdc2" d="M14 21h1M17 21h1M12 22h2M17 22h2M11 23h2M18 23h1M11 24h1M19 24h1M20 25h1M20 26h1M20 27h1M9 28h1M9 29h1M20 29h1M9 30h1M19 30h2M19 31h1M10 32h1M19 32h1M10 33h2M19 33h1M11 34h1M19 34h1M10 35h2M19 35h1M10 36h2M18 36h2M11 37h2M14 37h6M11 38h1M19 38h1" />
<path stroke="#a3a397" d="M15 21h2M14 22h3M13 23h5M12 24h2M18 24h1M11 25h3M10 26h3M19 26h1M11 27h1M19 27h1M11 28h1M19 28h1M10 29h2M19 29h1M10 30h2M11 31h1M11 32h1" />
<path stroke="#bfbcc2" d="M19 23h1M10 31h1M10 34h1M13 37h1" />
<path stroke="#a3a396" d="M14 24h1" />
<path stroke="#787972" d="M15 24h1M12 27h1M12 34h1" />
<path stroke="#797972" d="M16 24h2M15 25h1M13 26h2M13 27h1M18 27h1M12 28h1M18 28h1M12 29h2M12 30h1M12 31h2M12 32h2M12 33h2M13 34h1M12 35h1M13 36h1M15 36h2" />
<path stroke="#797973" d="M14 25h1" />
<path stroke="#5d5d59" d="M16 25h2M15 26h4M14 27h4M14 28h4M17 29h1M14 30h5M14 31h5M14 32h5M15 33h4M14 34h5M14 35h3M14 36h1M17 36h1" />
<path stroke="#a2a397" d="M18 25h1M18 35h1" />
<path stroke="#a3a297" d="M19 25h1M10 27h1M10 28h1" />
<path stroke="#d6d7d7" d="M21 27h1" />
<path stroke="#797872" d="M13 28h1M13 30h1M13 35h1" />
<path stroke="#bfbdc3" d="M20 28h1" />
<path stroke="#5d5d58" d="M14 29h1M14 33h1M17 35h1" />
<path stroke="#5c5d59" d="M15 29h1M18 29h1" />
<path stroke="#5d5c59" d="M16 29h1" />
<path stroke="#efeeef" d="M22 30h1M10 41h1" />
<path stroke="#eeefef" d="M9 35h1M21 37h1" />
<path stroke="#bebdc2" d="M12 36h1" />
<path stroke="#d7d6d7" d="M13 38h1" />
</svg>