<svg xmlns="http://www.w3.org/2000/svg" viewBox="0 -0.5 30 45" shape-rendering="crispEdges">
<metadata>Made with Pixels to Svg https://codepen.io/shshaw/pen/XbxvNj</metadata>
<path stroke="#3f2e40" d="M15 29h1M15 30h1M16 31h1M17 32h1M17 33h1M17 34h1M17 35h1M17 36h1M17 37h1M18 38h1M18 39h1M14 40h1M18 40h1M14 41h1M19 41h1" />
<path stroke="#685361" d="M16 29h1M16 30h2M17 31h1M18 32h1M18 33h1M18 34h1M18 35h1M18 36h1M18 37h1M19 38h1M19 39h1M19 40h1M20 41h1" />
<path stroke="#211823" d="M17 29h1M18 30h1M18 31h1M19 32h1M19 33h1M19 34h1M19 35h1M19 36h1M19 37h1M20 38h1M20 39h1M20 40h1M21 41h1M14 42h8" />
<path stroke="#312334" d="M14 30h1M13 31h3M13 32h4M13 33h4M13 34h4M13 35h4M13 36h4M14 37h3M14 38h4M14 39h4M15 40h3M15 41h4" />
</svg>