<svg xmlns="http://www.w3.org/2000/svg" viewBox="0 -0.5 30 45" shape-rendering="crispEdges">
<metadata>Made with Pixels to Svg https://codepen.io/shshaw/pen/XbxvNj</metadata>
<path stroke="#d7d7d7" d="M12 20h1M17 20h1M11 21h2M18 21h1M10 22h2M19 22h1M10 23h1M10 24h1" />
<path stroke="#efefef" d="M18 20h1" />
<path stroke="#312334" d="M13 21h3M17 24h1M11 25h1M13 25h1M16 25h1M12 26h4M13 27h2M13 28h2M13 29h2M13 30h2M12 31h4M12 32h5M12 33h5M12 34h5M13 35h4M13 36h4M14 37h3M14 38h4M14 39h4M15 40h3M15 41h4" />
<path stroke="#a3a397" d="M16 21h1M16 22h1M17 23h1M18 24h2" />
<path stroke="#bfbdc2" d="M17 21h1M12 22h1M17 22h2M11 23h1M18 23h2" />
<path stroke="#3f2e40" d="M13 22h3M15 23h2M11 24h1M13 24h1M16 24h1M12 25h1M14 25h2M12 27h1M15 27h1M15 28h1M15 29h1M12 30h1M15 30h1M11 31h1M16 31h1M11 32h1M17 32h1M11 34h1M12 35h1M12 36h1M13 37h1M13 38h1M13 39h1M14 40h1M14 41h1" />
<path stroke="#685361" d="M12 23h3M15 24h1M12 28h1M12 29h1M16 29h1M11 30h1M16 30h2M10 31h1M17 31h1M10 32h1M11 33h1" />
<path stroke="#8a7282" d="M12 24h1M14 24h1" />
<path stroke="#211823" d="M10 25h1M17 25h2M11 26h1M16 26h2M11 27h1M16 27h1M11 28h1M16 28h1M11 29h1M17 29h1M10 30h1M18 30h1M9 31h1M18 31h1M9 32h1M10 33h1M10 34h1M11 35h1M11 36h1M12 37h1M12 38h1M12 39h1M13 40h1M13 41h1M14 42h5" />
</svg>