<svg xmlns="http://www.w3.org/2000/svg" viewBox="0 -0.5 30 45" shape-rendering="crispEdges">
<metadata>Made with Pixels to Svg https://codepen.io/shshaw/pen/XbxvNj</metadata>
<path stroke="#d7d7d7" d="M12 21h2M11 22h1M10 23h1M10 24h1M10 25h1M9 27h1" />
<path stroke="#bfbdc2" d="M12 22h2M11 23h1M11 24h1M11 25h1" />
<path stroke="#bebdc2" d="M12 23h1" />
<path stroke="#a3a397" d="M13 23h1M12 24h1M10 26h2M10 27h2M10 28h1" />
<path stroke="#5d5d59" d="M13 24h1M12 25h1M12 26h1M12 27h1M11 28h1" />
<path stroke="#d6d7d7" d="M9 26h1" />
</svg>