<svg xmlns="http://www.w3.org/2000/svg" viewBox="0 -0.5 30 45" shape-rendering="crispEdges">
<metadata>Made with Pixels to Svg https://codepen.io/shshaw/pen/XbxvNj</metadata>
<path stroke="#0e081c" d="M17 20h1M16 21h2M12 22h1M16 22h3M11 23h1M17 23h3M18 24h2M18 25h1M17 26h1M13 27h1M17 32h1" />
<path stroke="#352a51" d="M13 21h1M13 22h1M15 22h1M12 23h1M14 23h1M16 23h1M11 24h1M15 24h1M17 24h1M12 25h1M14 25h1M16 25h1M11 26h1M15 26h1" />
<path stroke="#190f32" d="M14 21h2M18 21h1M14 22h1M19 22h1M15 23h1M12 24h1M14 24h1M16 24h1M11 25h1M15 25h1M17 25h1M12 26h1M14 26h1M16 26h1" />
<path stroke="#5b4c7e" d="M13 23h1M13 24h1M13 25h1M13 26h1M11 27h2M14 27h3" />
<path stroke="#140303" d="M11 28h1M11 29h3" />
<path stroke="#350b0b" d="M12 28h6M14 29h5" />
<path stroke="#535353" d="M11 30h1M14 31h1M16 31h1M11 32h1M14 33h1" />
<path stroke="#322d2d" d="M12 30h1M16 30h1M15 31h1M11 33h1M13 33h1" />
<path stroke="#424242" d="M13 30h1M15 30h1M13 32h1M15 32h1M13 34h1" />
<path stroke="#282828" d="M14 30h1M11 31h1M13 31h1M17 31h1M12 32h1M14 32h1M16 32h1" />
<path stroke="#604e4e" d="M17 30h1M12 31h1M16 33h1" />
</svg>