<svg xmlns="http://www.w3.org/2000/svg" viewBox="0 -0.5 30 45" shape-rendering="crispEdges">
<metadata>Made with Pixels to Svg https://codepen.io/shshaw/pen/XbxvNj</metadata>
<path stroke="#352a51" d="M10 30h1M9 31h1M9 32h1M9 33h1M9 34h1M9 35h1M11 35h1M10 37h2" />
<path stroke="#0e081c" d="M11 30h3M11 31h3M11 32h3M11 33h3M11 34h3M13 35h1M10 36h3M12 37h1" />
<path stroke="#190f32" d="M10 31h1M10 32h1M10 33h1M10 34h1M10 35h1M12 35h1M13 36h1M13 37h1" />
<path stroke="#5b4c7e" d="M8 36h1M9 37h1" />
</svg>