<svg xmlns="http://www.w3.org/2000/svg" viewBox="0 -0.5 30 45" shape-rendering="crispEdges">
<metadata>Made with Pixels to Svg https://codepen.io/shshaw/pen/XbxvNj</metadata>
<path stroke="#350b0b" d="M11 30h8M10 31h3M18 31h2M10 32h2M18 32h3M10 33h1M19 33h2M10 34h1M20 34h1M10 35h1M20 35h2M10 36h1M21 36h1M10 37h1M21 37h1M10 38h1M21 38h1M12 39h1M16 39h1M10 40h1M13 40h1M16 40h1M20 40h1M10 41h1M14 41h2M17 41h1M19 41h1M15 42h1M18 42h1" />
<path stroke="#140303" d="M13 31h5M12 32h6M11 33h8M11 34h9M11 35h9M11 36h10M11 37h10M11 38h10M10 39h2M13 39h3M17 39h5M11 40h1M14 40h2M17 40h3M18 41h1" />
</svg>