<svg xmlns="http://www.w3.org/2000/svg" viewBox="0 -0.5 30 45" shape-rendering="crispEdges">
<metadata>Made with Pixels to Svg https://codepen.io/shshaw/pen/XbxvNj</metadata>
<path stroke="#0e081c" d="M16 29h2M14 30h4M13 31h5M13 32h5M13 33h5M14 34h3M14 35h1M15 36h1M17 36h3M16 37h2" />
<path stroke="#190f32" d="M18 30h1M18 31h1M18 32h1M17 34h1M15 35h1M17 35h1M16 36h1" />
<path stroke="#352a51" d="M19 31h1M19 32h1M18 33h1M20 33h1M18 34h1M20 34h1M16 35h1M18 35h1M20 35h1M18 37h2" />
<path stroke="#5b4c7e" d="M19 33h1M19 34h1M19 35h1M21 36h1M20 37h1" />
<path stroke="#140303" d="M20 36h1" />
</svg>