<svg xmlns="http://www.w3.org/2000/svg" viewBox="0 -0.5 30 45" shape-rendering="crispEdges">
<metadata>Made with Pixels to Svg https://codepen.io/shshaw/pen/XbxvNj</metadata>
<path stroke="#0f152b" d="M10 30h1M9 32h1M9 33h1M9 34h1M10 36h1M10 37h1" />
<path stroke="#6d0012" d="M11 30h1M10 31h1M10 35h1M11 36h2" />
<path stroke="#192244" d="M12 30h2M12 31h2M12 32h2M11 33h3M11 34h3M11 35h3M13 36h1M11 37h3" />
<path stroke="#880016" d="M9 31h1M9 35h1" />
<path stroke="#202c58" d="M11 31h1M10 32h2M10 33h1M10 34h1" />
</svg>