<svg xmlns="http://www.w3.org/2000/svg" viewBox="0 -0.5 30 45" shape-rendering="crispEdges">
<metadata>Made with Pixels to Svg https://codepen.io/shshaw/pen/XbxvNj</metadata>
<path stroke="#192244" d="M16 29h1M14 30h1M16 30h2M13 31h2M18 31h1M13 32h2M18 32h1M14 33h1M19 33h1M15 34h1M19 34h1M15 35h1M19 35h1M19 36h1M19 37h1" />
<path stroke="#141b38" d="M17 29h1M18 30h1" />
<path stroke="#6d0012" d="M15 30h1M16 31h1M17 35h1M16 36h1" />
<path stroke="#202c58" d="M15 31h1M15 32h1M15 33h2M16 34h1M16 35h1M17 36h1M17 37h1" />
<path stroke="#880016" d="M17 31h1M18 35h1" />
<path stroke="#2a386d" d="M16 32h2M17 33h2M17 34h2M18 36h1M18 37h1" />
<path stroke="#0f152b" d="M13 33h1M14 34h1M15 36h1M16 37h1" />
</svg>