<svg xmlns="http://www.w3.org/2000/svg" viewBox="0 -0.5 30 45" shape-rendering="crispEdges">
<metadata>Made with Pixels to Svg https://codepen.io/shshaw/pen/XbxvNj</metadata>
<path stroke="#9d152b" d="M12 20h1M17 20h2M13 21h3M13 30h1M14 31h1M14 32h1M14 33h1M14 34h1M14 35h1M14 36h1M14 37h1M14 38h1M14 39h1" />
<path stroke="#6d0012" d="M11 21h1M17 21h2M12 22h1M15 22h3M15 27h1M12 28h1M14 28h1M16 29h1M11 30h1M15 30h1M12 31h1M12 32h1M12 33h1M12 34h1M12 35h1M12 36h1M12 37h1M12 38h1M12 39h1" />
<path stroke="#880016" d="M12 21h1M16 21h1M13 22h2M11 27h1M16 27h1M13 28h1M17 28h1M11 29h1M12 30h1M14 30h1M13 31h1M13 32h1M13 33h1M13 34h1M13 35h1M13 36h1M13 37h1M13 38h1M13 39h1" />
<path stroke="#2a386d" d="M11 23h1M17 23h1M12 24h1M14 24h3" />
<path stroke="#202c58" d="M11 24h1M17 24h1M12 25h1M14 25h3" />
<path stroke="#141b38" d="M10 25h1M18 25h1M11 26h1M17 26h1M11 28h1M16 28h1" />
<path stroke="#192244" d="M11 25h1M13 25h1M17 25h1M12 26h5M12 27h3M15 28h1M12 29h4" />
</svg>