<svg xmlns="http://www.w3.org/2000/svg" viewBox="0 -0.5 30 45" shape-rendering="crispEdges">
<metadata>Made with Pixels to Svg https://codepen.io/shshaw/pen/XbxvNj</metadata>
<path stroke="#e1cd8a" d="M18 20h1M18 21h1M16 28h1M17 29h1M9 30h1M12 30h1M18 30h1" />
<path stroke="#b5a87c" d="M19 21h1M18 22h2M18 23h1M20 23h1M11 24h1M19 24h1M15 28h1M10 29h1M14 29h1M11 30h1M13 30h1M16 30h2M9 31h1M12 31h1M17 31h2" />
<path stroke="#715f2f" d="M20 21h1M20 22h1M11 23h1M19 23h1M10 24h1M18 24h1M20 24h1M10 25h1M19 25h1M15 29h1M14 30h1M10 31h1M13 31h1M16 31h1M9 32h1M17 32h2" />
<path stroke="#a8a592" d="M17 23h1M16 24h1M12 25h1M14 25h2M11 27h1M15 27h1M11 28h1M14 28h1M11 29h3" />
<path stroke="#979381" d="M17 24h1M11 25h1M16 25h1M12 27h3M12 28h2" />
<path stroke="#3f3e34" d="M13 25h1M18 25h1M11 26h5M17 26h1M16 27h1" />
<path stroke="#575546" d="M17 25h1M16 26h1" />
<path stroke="#5b4c24" d="M16 29h1M10 30h1M15 30h1M11 31h1M14 31h1M12 32h2" />
</svg>