<svg xmlns="http://www.w3.org/2000/svg" viewBox="0 -0.5 30 45" shape-rendering="crispEdges">
<metadata>Made with Pixels to Svg https://codepen.io/shshaw/pen/XbxvNj</metadata>
<path stroke="#e1cd8a" d="M10 19h1M9 20h1M11 20h2M9 21h1M13 21h1" />
<path stroke="#715f2f" d="M10 20h1M10 21h1M10 22h1M12 22h1M9 23h1M11 23h1M10 24h1M12 24h2M10 25h1" />
<path stroke="#b5a87c" d="M11 21h2M9 22h1M11 22h1M13 22h1M10 23h1M12 23h2M11 24h1" />
<path stroke="#979381" d="M11 25h2M11 26h1M11 27h1" />
<path stroke="#3f3e34" d="M13 25h1" />
<path stroke="#575546" d="M9 26h2M12 26h1M9 27h2M12 27h1M10 28h2" />
</svg>