<svg xmlns="http://www.w3.org/2000/svg" viewBox="0 -0.5 30 45" shape-rendering="crispEdges">
<metadata>Made with Pixels to Svg https://codepen.io/shshaw/pen/XbxvNj</metadata>
<path stroke="#979381" d="M16 29h1M15 30h3M15 31h2M15 32h1M15 33h2M16 34h1M16 35h2M17 36h1" />
<path stroke="#3f3e34" d="M17 29h1M18 30h1M13 31h1M18 31h1M13 32h1M18 32h1M13 33h1M19 33h1M13 34h1M19 34h1M14 35h1M19 35h1M15 36h1M16 37h1" />
<path stroke="#575546" d="M14 30h1M14 31h1M14 32h1M14 33h1M14 34h2M15 35h1M16 36h1" />
<path stroke="#a8a592" d="M17 31h1M16 32h2M17 33h2M17 34h2M18 35h1" />
<path stroke="#715f2f" d="M18 36h2M17 37h1M20 37h1" />
<path stroke="#e1cd8a" d="M18 37h2" />
</svg>