<svg xmlns="http://www.w3.org/2000/svg" viewBox="0 -0.5 30 45" shape-rendering="crispEdges">
<metadata>Made with Pixels to Svg https://codepen.io/shshaw/pen/XbxvNj</metadata>
<path stroke="#e1cd8a" d="M19 19h1M18 20h1M18 21h1M21 21h1M22 23h1" />
<path stroke="#b5a87c" d="M19 20h1M19 21h1M18 22h2M21 22h1M18 23h1M20 23h1M19 24h1M22 24h1M20 25h2" />
<path stroke="#715f2f" d="M20 20h1M20 21h1M20 22h1M22 22h1M19 23h1M21 23h1M18 24h1M20 24h2M19 25h1" />
<path stroke="#3f3e34" d="M18 25h1M19 26h1M19 27h1M19 28h1" />
<path stroke="#575546" d="M22 25h1M20 26h1M22 26h1M20 27h1M22 27h1M20 28h1M22 28h1" />
<path stroke="#a8a592" d="M21 26h1M21 27h1M21 28h1" />
</svg>