<svg xmlns="http://www.w3.org/2000/svg" viewBox="0 -0.5 30 45" shape-rendering="crispEdges">
<metadata>Made with Pixels to Svg https://codepen.io/shshaw/pen/XbxvNj</metadata>
<path stroke="#17151e" d="M12 20h1M18 20h1M19 21h1M11 23h1M18 23h1M11 24h1M17 24h1M19 24h1M16 25h1M15 27h1M15 28h1M15 29h1M11 30h1M14 30h1" />
<path stroke="#1a1823" d="M17 20h1M12 21h1M16 21h1M11 22h1M15 22h1M18 22h1M14 23h1M17 23h1M19 23h1M13 24h1M12 25h1M12 26h1M14 26h1M11 27h1M14 27h1M11 28h1M14 28h1M11 29h1M14 29h1M13 30h1" />
<path stroke="#6a7b9f" d="M11 21h1M17 21h2M10 22h1M16 22h1M10 23h1M15 23h1M10 24h1M14 24h1M11 25h1M13 25h1M11 26h1M13 26h1M12 27h1M12 28h1M12 29h1M12 30h1" />
<path stroke="#242130" d="M17 22h1M19 22h1M16 23h1M15 24h2M14 25h2M13 27h1M13 28h1M13 29h1" />
<path stroke="#0c0b0f" d="M18 24h1M10 25h1M17 25h2M10 26h1M15 26h3M10 27h1M16 27h1M10 28h1M16 28h1M10 29h1M16 29h1M10 30h1M15 30h1" />
<path stroke="#5d3910" d="M17 29h1" />
<path stroke="#2b1a07" d="M16 30h2M9 31h2M15 31h1M18 31h1" />
<path stroke="#4c2f0e" d="M18 30h1M11 31h4" />
<path stroke="#231606" d="M16 31h2M9 32h9" />
</svg>