<svg xmlns="http://www.w3.org/2000/svg" viewBox="0 -0.5 30 45" shape-rendering="crispEdges">
<metadata>Made with Pixels to Svg https://codepen.io/shshaw/pen/XbxvNj</metadata>
<path stroke="#1a1823" d="M10 30h3M10 31h3M10 32h3M10 33h1M10 34h1M10 35h1" />
<path stroke="#0c0b0f" d="M13 30h1M9 31h1M13 31h1M9 32h1M13 32h1M9 33h1M13 33h1M9 34h1M13 34h1M9 35h1" />
<path stroke="#17151e" d="M11 33h2M11 34h2M11 35h1" />
<path stroke="#191004" d="M12 35h1M13 36h1M10 37h1M14 37h1" />
<path stroke="#0f0a02" d="M13 35h1M14 36h1" />
<path stroke="#5d3910" d="M9 36h2M11 37h1" />
<path stroke="#2b1a07" d="M11 36h1M12 37h1" />
<path stroke="#231606" d="M12 36h1M13 37h1" />
<path stroke="#4c2f0e" d="M9 37h1" />
</svg>