<svg xmlns="http://www.w3.org/2000/svg" viewBox="0 -0.5 30 45" shape-rendering="crispEdges">
<metadata>Made with Pixels to Svg https://codepen.io/shshaw/pen/XbxvNj</metadata>
<path stroke="#0c0b0f" d="M16 29h1M14 30h2M13 31h2M13 32h2M13 33h1M13 34h1" />
<path stroke="#17151e" d="M17 29h1M16 30h1M18 30h1M15 31h1M18 31h1M15 32h1M18 32h1M14 33h1M19 33h1M14 34h2M19 34h1" />
<path stroke="#1a1823" d="M17 30h1M16 31h1M16 32h1M15 33h2M16 34h2" />
<path stroke="#242130" d="M17 31h1M17 32h1M17 33h2M18 34h1" />
<path stroke="#191004" d="M14 35h1M15 36h1M19 36h1M16 37h1M19 37h1" />
<path stroke="#231606" d="M15 35h1M16 36h1M18 36h1M18 37h1" />
<path stroke="#2b1a07" d="M16 35h2M20 35h1" />
<path stroke="#4c2f0e" d="M18 35h1M17 36h1M17 37h1" />
<path stroke="#5d3910" d="M19 35h1M20 36h1M20 37h1" />
</svg>