<svg xmlns="http://www.w3.org/2000/svg" viewBox="0 -0.5 30 45" shape-rendering="crispEdges">
<metadata>Made with Pixels to Svg https://codepen.io/shshaw/pen/XbxvNj</metadata>
<path stroke="rgba(46,36,64,0.10980392156862745)" d="M13 11h4M12 12h1M17 12h1M11 13h1M18 13h1M11 14h1M17 14h2M16 15h2M17 17h1M15 19h1" />
<path stroke="rgba(43,38,63,0.6313725490196078)" d="M11 15h1M11 16h1M11 17h1M18 17h1M11 18h1M17 18h1M12 19h1M17 19h1M13 20h4" />
<path stroke="rgba(44,36,66,0.27450980392156865)" d="M18 15h1M17 16h1M16 19h1" />
</svg>